<?xml version="1.0" encoding="utf-8" standalone="no"?>
<!DOCTYPE svg PUBLIC "-//W3C//DTD SVG 1.1//EN"
  "http://www.w3.org/Graphics/SVG/1.1/DTD/svg11.dtd">
<!-- Created with matplotlib (https://matplotlib.org/) -->
<svg height="396pt" version="1.1" viewBox="0 0 1008 396" width="1008pt" xmlns="http://www.w3.org/2000/svg" xmlns:xlink="http://www.w3.org/1999/xlink">
 <defs>
  <style type="text/css">
*{stroke-linecap:butt;stroke-linejoin:round;}
  </style>
 </defs>
 <g id="figure_1">
  <g id="patch_1">
   <path d="M 0 396 
L 1008 396 
L 1008 0 
L 0 0 
z
" style="fill:#ffffff;"/>
  </g>
  <g id="axes_1">
   <g id="patch_2">
    <path d="M 102.84 298.92 
L 368.056667 298.92 
L 368.056667 83.96 
L 102.84 83.96 
z
" style="fill:#ffffff;"/>
   </g>
   <g id="matplotlib.axis_1">
    <g id="xtick_1">
     <g id="text_1">
      <!-- 0 ≤ TIb &lt; 0.7 -->
      <defs>
       <path d="M 31.78125 66.40625 
Q 24.171875 66.40625 20.328125 58.90625 
Q 16.5 51.421875 16.5 36.375 
Q 16.5 21.390625 20.328125 13.890625 
Q 24.171875 6.390625 31.78125 6.390625 
Q 39.453125 6.390625 43.28125 13.890625 
Q 47.125 21.390625 47.125 36.375 
Q 47.125 51.421875 43.28125 58.90625 
Q 39.453125 66.40625 31.78125 66.40625 
z
M 31.78125 74.21875 
Q 44.046875 74.21875 50.515625 64.515625 
Q 56.984375 54.828125 56.984375 36.375 
Q 56.984375 17.96875 50.515625 8.265625 
Q 44.046875 -1.421875 31.78125 -1.421875 
Q 19.53125 -1.421875 13.0625 8.265625 
Q 6.59375 17.96875 6.59375 36.375 
Q 6.59375 54.828125 13.0625 64.515625 
Q 19.53125 74.21875 31.78125 74.21875 
z
" id="DejaVuSans-48"/>
       <path id="DejaVuSans-32"/>
       <path d="M 73.1875 49.609375 
L 26.3125 36.078125 
L 73.1875 22.703125 
L 73.1875 14.015625 
L 10.59375 31.984375 
L 10.59375 40.28125 
L 73.1875 58.203125 
z
M 10.59375 8.296875 
L 73.1875 8.296875 
L 73.1875 0 
L 10.59375 0 
z
" id="DejaVuSans-8804"/>
       <path d="M -0.296875 72.90625 
L 61.375 72.90625 
L 61.375 64.59375 
L 35.5 64.59375 
L 35.5 0 
L 25.59375 0 
L 25.59375 64.59375 
L -0.296875 64.59375 
z
" id="DejaVuSans-84"/>
       <path d="M 9.8125 72.90625 
L 19.671875 72.90625 
L 19.671875 0 
L 9.8125 0 
z
" id="DejaVuSans-73"/>
       <path d="M 48.6875 27.296875 
Q 48.6875 37.203125 44.609375 42.84375 
Q 40.53125 48.484375 33.40625 48.484375 
Q 26.265625 48.484375 22.1875 42.84375 
Q 18.109375 37.203125 18.109375 27.296875 
Q 18.109375 17.390625 22.1875 11.75 
Q 26.265625 6.109375 33.40625 6.109375 
Q 40.53125 6.109375 44.609375 11.75 
Q 48.6875 17.390625 48.6875 27.296875 
z
M 18.109375 46.390625 
Q 20.953125 51.265625 25.265625 53.625 
Q 29.59375 56 35.59375 56 
Q 45.5625 56 51.78125 48.09375 
Q 58.015625 40.1875 58.015625 27.296875 
Q 58.015625 14.40625 51.78125 6.484375 
Q 45.5625 -1.421875 35.59375 -1.421875 
Q 29.59375 -1.421875 25.265625 0.953125 
Q 20.953125 3.328125 18.109375 8.203125 
L 18.109375 0 
L 9.078125 0 
L 9.078125 75.984375 
L 18.109375 75.984375 
z
" id="DejaVuSans-98"/>
       <path d="M 73.1875 49.21875 
L 22.796875 31.296875 
L 73.1875 13.484375 
L 73.1875 4.59375 
L 10.59375 27.296875 
L 10.59375 35.40625 
L 73.1875 58.109375 
z
" id="DejaVuSans-60"/>
       <path d="M 10.6875 12.40625 
L 21 12.40625 
L 21 0 
L 10.6875 0 
z
" id="DejaVuSans-46"/>
       <path d="M 8.203125 72.90625 
L 55.078125 72.90625 
L 55.078125 68.703125 
L 28.609375 0 
L 18.3125 0 
L 43.21875 64.59375 
L 8.203125 64.59375 
z
" id="DejaVuSans-55"/>
      </defs>
      <g style="fill:#262626;" transform="translate(72.835686 358.770708)rotate(-45)scale(0.1 -0.1)">
       <use xlink:href="#DejaVuSans-48"/>
       <use x="63.623047" xlink:href="#DejaVuSans-32"/>
       <use x="95.410156" xlink:href="#DejaVuSans-8804"/>
       <use x="179.199219" xlink:href="#DejaVuSans-32"/>
       <use x="210.986328" xlink:href="#DejaVuSans-84"/>
       <use x="272.070312" xlink:href="#DejaVuSans-73"/>
       <use x="301.5625" xlink:href="#DejaVuSans-98"/>
       <use x="365.039062" xlink:href="#DejaVuSans-32"/>
       <use x="396.826172" xlink:href="#DejaVuSans-60"/>
       <use x="480.615234" xlink:href="#DejaVuSans-32"/>
       <use x="512.402344" xlink:href="#DejaVuSans-48"/>
       <use x="576.025391" xlink:href="#DejaVuSans-46"/>
       <use x="607.8125" xlink:href="#DejaVuSans-55"/>
      </g>
     </g>
    </g>
    <g id="xtick_2">
     <g id="text_2">
      <!-- 0.7 ≤ TIb &lt; 1.0 -->
      <defs>
       <path d="M 12.40625 8.296875 
L 28.515625 8.296875 
L 28.515625 63.921875 
L 10.984375 60.40625 
L 10.984375 69.390625 
L 28.421875 72.90625 
L 38.28125 72.90625 
L 38.28125 8.296875 
L 54.390625 8.296875 
L 54.390625 0 
L 12.40625 0 
z
" id="DejaVuSans-49"/>
      </defs>
      <g style="fill:#262626;" transform="translate(103.97754 365.516948)rotate(-45)scale(0.1 -0.1)">
       <use xlink:href="#DejaVuSans-48"/>
       <use x="63.623047" xlink:href="#DejaVuSans-46"/>
       <use x="95.410156" xlink:href="#DejaVuSans-55"/>
       <use x="159.033203" xlink:href="#DejaVuSans-32"/>
       <use x="190.820312" xlink:href="#DejaVuSans-8804"/>
       <use x="274.609375" xlink:href="#DejaVuSans-32"/>
       <use x="306.396484" xlink:href="#DejaVuSans-84"/>
       <use x="367.480469" xlink:href="#DejaVuSans-73"/>
       <use x="396.972656" xlink:href="#DejaVuSans-98"/>
       <use x="460.449219" xlink:href="#DejaVuSans-32"/>
       <use x="492.236328" xlink:href="#DejaVuSans-60"/>
       <use x="576.025391" xlink:href="#DejaVuSans-32"/>
       <use x="607.8125" xlink:href="#DejaVuSans-49"/>
       <use x="671.435547" xlink:href="#DejaVuSans-46"/>
       <use x="703.222656" xlink:href="#DejaVuSans-48"/>
      </g>
     </g>
    </g>
    <g id="xtick_3">
     <g id="text_3">
      <!-- 1.0 ≤ TIb &lt; 1.5 -->
      <defs>
       <path d="M 10.796875 72.90625 
L 49.515625 72.90625 
L 49.515625 64.59375 
L 19.828125 64.59375 
L 19.828125 46.734375 
Q 21.96875 47.46875 24.109375 47.828125 
Q 26.265625 48.1875 28.421875 48.1875 
Q 40.625 48.1875 47.75 41.5 
Q 54.890625 34.8125 54.890625 23.390625 
Q 54.890625 11.625 47.5625 5.09375 
Q 40.234375 -1.421875 26.90625 -1.421875 
Q 22.3125 -1.421875 17.546875 -0.640625 
Q 12.796875 0.140625 7.71875 1.703125 
L 7.71875 11.625 
Q 12.109375 9.234375 16.796875 8.0625 
Q 21.484375 6.890625 26.703125 6.890625 
Q 35.15625 6.890625 40.078125 11.328125 
Q 45.015625 15.765625 45.015625 23.390625 
Q 45.015625 31 40.078125 35.4375 
Q 35.15625 39.890625 26.703125 39.890625 
Q 22.75 39.890625 18.8125 39.015625 
Q 14.890625 38.140625 10.796875 36.28125 
z
" id="DejaVuSans-53"/>
      </defs>
      <g style="fill:#262626;" transform="translate(141.865635 365.516948)rotate(-45)scale(0.1 -0.1)">
       <use xlink:href="#DejaVuSans-49"/>
       <use x="63.623047" xlink:href="#DejaVuSans-46"/>
       <use x="95.410156" xlink:href="#DejaVuSans-48"/>
       <use x="159.033203" xlink:href="#DejaVuSans-32"/>
       <use x="190.820312" xlink:href="#DejaVuSans-8804"/>
       <use x="274.609375" xlink:href="#DejaVuSans-32"/>
       <use x="306.396484" xlink:href="#DejaVuSans-84"/>
       <use x="367.480469" xlink:href="#DejaVuSans-73"/>
       <use x="396.972656" xlink:href="#DejaVuSans-98"/>
       <use x="460.449219" xlink:href="#DejaVuSans-32"/>
       <use x="492.236328" xlink:href="#DejaVuSans-60"/>
       <use x="576.025391" xlink:href="#DejaVuSans-32"/>
       <use x="607.8125" xlink:href="#DejaVuSans-49"/>
       <use x="671.435547" xlink:href="#DejaVuSans-46"/>
       <use x="703.222656" xlink:href="#DejaVuSans-53"/>
      </g>
     </g>
    </g>
    <g id="xtick_4">
     <g id="text_4">
      <!-- 1.5 ≤ TIb &lt; 2.0 -->
      <defs>
       <path d="M 19.1875 8.296875 
L 53.609375 8.296875 
L 53.609375 0 
L 7.328125 0 
L 7.328125 8.296875 
Q 12.9375 14.109375 22.625 23.890625 
Q 32.328125 33.6875 34.8125 36.53125 
Q 39.546875 41.84375 41.421875 45.53125 
Q 43.3125 49.21875 43.3125 52.78125 
Q 43.3125 58.59375 39.234375 62.25 
Q 35.15625 65.921875 28.609375 65.921875 
Q 23.96875 65.921875 18.8125 64.3125 
Q 13.671875 62.703125 7.8125 59.421875 
L 7.8125 69.390625 
Q 13.765625 71.78125 18.9375 73 
Q 24.125 74.21875 28.421875 74.21875 
Q 39.75 74.21875 46.484375 68.546875 
Q 53.21875 62.890625 53.21875 53.421875 
Q 53.21875 48.921875 51.53125 44.890625 
Q 49.859375 40.875 45.40625 35.40625 
Q 44.1875 33.984375 37.640625 27.21875 
Q 31.109375 20.453125 19.1875 8.296875 
z
" id="DejaVuSans-50"/>
      </defs>
      <g style="fill:#262626;" transform="translate(179.753731 365.516948)rotate(-45)scale(0.1 -0.1)">
       <use xlink:href="#DejaVuSans-49"/>
       <use x="63.623047" xlink:href="#DejaVuSans-46"/>
       <use x="95.410156" xlink:href="#DejaVuSans-53"/>
       <use x="159.033203" xlink:href="#DejaVuSans-32"/>
       <use x="190.820312" xlink:href="#DejaVuSans-8804"/>
       <use x="274.609375" xlink:href="#DejaVuSans-32"/>
       <use x="306.396484" xlink:href="#DejaVuSans-84"/>
       <use x="367.480469" xlink:href="#DejaVuSans-73"/>
       <use x="396.972656" xlink:href="#DejaVuSans-98"/>
       <use x="460.449219" xlink:href="#DejaVuSans-32"/>
       <use x="492.236328" xlink:href="#DejaVuSans-60"/>
       <use x="576.025391" xlink:href="#DejaVuSans-32"/>
       <use x="607.8125" xlink:href="#DejaVuSans-50"/>
       <use x="671.435547" xlink:href="#DejaVuSans-46"/>
       <use x="703.222656" xlink:href="#DejaVuSans-48"/>
      </g>
     </g>
    </g>
    <g id="xtick_5">
     <g id="text_5">
      <!-- 2.0 ≤ TIb &lt; 2.5 -->
      <g style="fill:#262626;" transform="translate(217.641826 365.516948)rotate(-45)scale(0.1 -0.1)">
       <use xlink:href="#DejaVuSans-50"/>
       <use x="63.623047" xlink:href="#DejaVuSans-46"/>
       <use x="95.410156" xlink:href="#DejaVuSans-48"/>
       <use x="159.033203" xlink:href="#DejaVuSans-32"/>
       <use x="190.820312" xlink:href="#DejaVuSans-8804"/>
       <use x="274.609375" xlink:href="#DejaVuSans-32"/>
       <use x="306.396484" xlink:href="#DejaVuSans-84"/>
       <use x="367.480469" xlink:href="#DejaVuSans-73"/>
       <use x="396.972656" xlink:href="#DejaVuSans-98"/>
       <use x="460.449219" xlink:href="#DejaVuSans-32"/>
       <use x="492.236328" xlink:href="#DejaVuSans-60"/>
       <use x="576.025391" xlink:href="#DejaVuSans-32"/>
       <use x="607.8125" xlink:href="#DejaVuSans-50"/>
       <use x="671.435547" xlink:href="#DejaVuSans-46"/>
       <use x="703.222656" xlink:href="#DejaVuSans-53"/>
      </g>
     </g>
    </g>
    <g id="xtick_6">
     <g id="text_6">
      <!-- 2.5 ≤ TIb &lt; 3.0 -->
      <defs>
       <path d="M 40.578125 39.3125 
Q 47.65625 37.796875 51.625 33 
Q 55.609375 28.21875 55.609375 21.1875 
Q 55.609375 10.40625 48.1875 4.484375 
Q 40.765625 -1.421875 27.09375 -1.421875 
Q 22.515625 -1.421875 17.65625 -0.515625 
Q 12.796875 0.390625 7.625 2.203125 
L 7.625 11.71875 
Q 11.71875 9.328125 16.59375 8.109375 
Q 21.484375 6.890625 26.8125 6.890625 
Q 36.078125 6.890625 40.9375 10.546875 
Q 45.796875 14.203125 45.796875 21.1875 
Q 45.796875 27.640625 41.28125 31.265625 
Q 36.765625 34.90625 28.71875 34.90625 
L 20.21875 34.90625 
L 20.21875 43.015625 
L 29.109375 43.015625 
Q 36.375 43.015625 40.234375 45.921875 
Q 44.09375 48.828125 44.09375 54.296875 
Q 44.09375 59.90625 40.109375 62.90625 
Q 36.140625 65.921875 28.71875 65.921875 
Q 24.65625 65.921875 20.015625 65.03125 
Q 15.375 64.15625 9.8125 62.3125 
L 9.8125 71.09375 
Q 15.4375 72.65625 20.34375 73.4375 
Q 25.25 74.21875 29.59375 74.21875 
Q 40.828125 74.21875 47.359375 69.109375 
Q 53.90625 64.015625 53.90625 55.328125 
Q 53.90625 49.265625 50.4375 45.09375 
Q 46.96875 40.921875 40.578125 39.3125 
z
" id="DejaVuSans-51"/>
      </defs>
      <g style="fill:#262626;" transform="translate(255.529921 365.516948)rotate(-45)scale(0.1 -0.1)">
       <use xlink:href="#DejaVuSans-50"/>
       <use x="63.623047" xlink:href="#DejaVuSans-46"/>
       <use x="95.410156" xlink:href="#DejaVuSans-53"/>
       <use x="159.033203" xlink:href="#DejaVuSans-32"/>
       <use x="190.820312" xlink:href="#DejaVuSans-8804"/>
       <use x="274.609375" xlink:href="#DejaVuSans-32"/>
       <use x="306.396484" xlink:href="#DejaVuSans-84"/>
       <use x="367.480469" xlink:href="#DejaVuSans-73"/>
       <use x="396.972656" xlink:href="#DejaVuSans-98"/>
       <use x="460.449219" xlink:href="#DejaVuSans-32"/>
       <use x="492.236328" xlink:href="#DejaVuSans-60"/>
       <use x="576.025391" xlink:href="#DejaVuSans-32"/>
       <use x="607.8125" xlink:href="#DejaVuSans-51"/>
       <use x="671.435547" xlink:href="#DejaVuSans-46"/>
       <use x="703.222656" xlink:href="#DejaVuSans-48"/>
      </g>
     </g>
    </g>
    <g id="xtick_7">
     <g id="text_7">
      <!-- 3.0 ≤ TIb -->
      <g style="fill:#262626;" transform="translate(315.083105 343.851859)rotate(-45)scale(0.1 -0.1)">
       <use xlink:href="#DejaVuSans-51"/>
       <use x="63.623047" xlink:href="#DejaVuSans-46"/>
       <use x="95.410156" xlink:href="#DejaVuSans-48"/>
       <use x="159.033203" xlink:href="#DejaVuSans-32"/>
       <use x="190.820312" xlink:href="#DejaVuSans-8804"/>
       <use x="274.609375" xlink:href="#DejaVuSans-32"/>
       <use x="306.396484" xlink:href="#DejaVuSans-84"/>
       <use x="367.480469" xlink:href="#DejaVuSans-73"/>
       <use x="396.972656" xlink:href="#DejaVuSans-98"/>
      </g>
     </g>
    </g>
    <g id="text_8">
     <!-- Thermal Index bone (TIb) interval -->
     <defs>
      <path d="M 54.890625 33.015625 
L 54.890625 0 
L 45.90625 0 
L 45.90625 32.71875 
Q 45.90625 40.484375 42.875 44.328125 
Q 39.84375 48.1875 33.796875 48.1875 
Q 26.515625 48.1875 22.3125 43.546875 
Q 18.109375 38.921875 18.109375 30.90625 
L 18.109375 0 
L 9.078125 0 
L 9.078125 75.984375 
L 18.109375 75.984375 
L 18.109375 46.1875 
Q 21.34375 51.125 25.703125 53.5625 
Q 30.078125 56 35.796875 56 
Q 45.21875 56 50.046875 50.171875 
Q 54.890625 44.34375 54.890625 33.015625 
z
" id="DejaVuSans-104"/>
      <path d="M 56.203125 29.59375 
L 56.203125 25.203125 
L 14.890625 25.203125 
Q 15.484375 15.921875 20.484375 11.0625 
Q 25.484375 6.203125 34.421875 6.203125 
Q 39.59375 6.203125 44.453125 7.46875 
Q 49.3125 8.734375 54.109375 11.28125 
L 54.109375 2.78125 
Q 49.265625 0.734375 44.1875 -0.34375 
Q 39.109375 -1.421875 33.890625 -1.421875 
Q 20.796875 -1.421875 13.15625 6.1875 
Q 5.515625 13.8125 5.515625 26.8125 
Q 5.515625 40.234375 12.765625 48.109375 
Q 20.015625 56 32.328125 56 
Q 43.359375 56 49.78125 48.890625 
Q 56.203125 41.796875 56.203125 29.59375 
z
M 47.21875 32.234375 
Q 47.125 39.59375 43.09375 43.984375 
Q 39.0625 48.390625 32.421875 48.390625 
Q 24.90625 48.390625 20.390625 44.140625 
Q 15.875 39.890625 15.1875 32.171875 
z
" id="DejaVuSans-101"/>
      <path d="M 41.109375 46.296875 
Q 39.59375 47.171875 37.8125 47.578125 
Q 36.03125 48 33.890625 48 
Q 26.265625 48 22.1875 43.046875 
Q 18.109375 38.09375 18.109375 28.8125 
L 18.109375 0 
L 9.078125 0 
L 9.078125 54.6875 
L 18.109375 54.6875 
L 18.109375 46.1875 
Q 20.953125 51.171875 25.484375 53.578125 
Q 30.03125 56 36.53125 56 
Q 37.453125 56 38.578125 55.875 
Q 39.703125 55.765625 41.0625 55.515625 
z
" id="DejaVuSans-114"/>
      <path d="M 52 44.1875 
Q 55.375 50.25 60.0625 53.125 
Q 64.75 56 71.09375 56 
Q 79.640625 56 84.28125 50.015625 
Q 88.921875 44.046875 88.921875 33.015625 
L 88.921875 0 
L 79.890625 0 
L 79.890625 32.71875 
Q 79.890625 40.578125 77.09375 44.375 
Q 74.3125 48.1875 68.609375 48.1875 
Q 61.625 48.1875 57.5625 43.546875 
Q 53.515625 38.921875 53.515625 30.90625 
L 53.515625 0 
L 44.484375 0 
L 44.484375 32.71875 
Q 44.484375 40.625 41.703125 44.40625 
Q 38.921875 48.1875 33.109375 48.1875 
Q 26.21875 48.1875 22.15625 43.53125 
Q 18.109375 38.875 18.109375 30.90625 
L 18.109375 0 
L 9.078125 0 
L 9.078125 54.6875 
L 18.109375 54.6875 
L 18.109375 46.1875 
Q 21.1875 51.21875 25.484375 53.609375 
Q 29.78125 56 35.6875 56 
Q 41.65625 56 45.828125 52.96875 
Q 50 49.953125 52 44.1875 
z
" id="DejaVuSans-109"/>
      <path d="M 34.28125 27.484375 
Q 23.390625 27.484375 19.1875 25 
Q 14.984375 22.515625 14.984375 16.5 
Q 14.984375 11.71875 18.140625 8.90625 
Q 21.296875 6.109375 26.703125 6.109375 
Q 34.1875 6.109375 38.703125 11.40625 
Q 43.21875 16.703125 43.21875 25.484375 
L 43.21875 27.484375 
z
M 52.203125 31.203125 
L 52.203125 0 
L 43.21875 0 
L 43.21875 8.296875 
Q 40.140625 3.328125 35.546875 0.953125 
Q 30.953125 -1.421875 24.3125 -1.421875 
Q 15.921875 -1.421875 10.953125 3.296875 
Q 6 8.015625 6 15.921875 
Q 6 25.140625 12.171875 29.828125 
Q 18.359375 34.515625 30.609375 34.515625 
L 43.21875 34.515625 
L 43.21875 35.40625 
Q 43.21875 41.609375 39.140625 45 
Q 35.0625 48.390625 27.6875 48.390625 
Q 23 48.390625 18.546875 47.265625 
Q 14.109375 46.140625 10.015625 43.890625 
L 10.015625 52.203125 
Q 14.9375 54.109375 19.578125 55.046875 
Q 24.21875 56 28.609375 56 
Q 40.484375 56 46.34375 49.84375 
Q 52.203125 43.703125 52.203125 31.203125 
z
" id="DejaVuSans-97"/>
      <path d="M 9.421875 75.984375 
L 18.40625 75.984375 
L 18.40625 0 
L 9.421875 0 
z
" id="DejaVuSans-108"/>
      <path d="M 54.890625 33.015625 
L 54.890625 0 
L 45.90625 0 
L 45.90625 32.71875 
Q 45.90625 40.484375 42.875 44.328125 
Q 39.84375 48.1875 33.796875 48.1875 
Q 26.515625 48.1875 22.3125 43.546875 
Q 18.109375 38.921875 18.109375 30.90625 
L 18.109375 0 
L 9.078125 0 
L 9.078125 54.6875 
L 18.109375 54.6875 
L 18.109375 46.1875 
Q 21.34375 51.125 25.703125 53.5625 
Q 30.078125 56 35.796875 56 
Q 45.21875 56 50.046875 50.171875 
Q 54.890625 44.34375 54.890625 33.015625 
z
" id="DejaVuSans-110"/>
      <path d="M 45.40625 46.390625 
L 45.40625 75.984375 
L 54.390625 75.984375 
L 54.390625 0 
L 45.40625 0 
L 45.40625 8.203125 
Q 42.578125 3.328125 38.25 0.953125 
Q 33.9375 -1.421875 27.875 -1.421875 
Q 17.96875 -1.421875 11.734375 6.484375 
Q 5.515625 14.40625 5.515625 27.296875 
Q 5.515625 40.1875 11.734375 48.09375 
Q 17.96875 56 27.875 56 
Q 33.9375 56 38.25 53.625 
Q 42.578125 51.265625 45.40625 46.390625 
z
M 14.796875 27.296875 
Q 14.796875 17.390625 18.875 11.75 
Q 22.953125 6.109375 30.078125 6.109375 
Q 37.203125 6.109375 41.296875 11.75 
Q 45.40625 17.390625 45.40625 27.296875 
Q 45.40625 37.203125 41.296875 42.84375 
Q 37.203125 48.484375 30.078125 48.484375 
Q 22.953125 48.484375 18.875 42.84375 
Q 14.796875 37.203125 14.796875 27.296875 
z
" id="DejaVuSans-100"/>
      <path d="M 54.890625 54.6875 
L 35.109375 28.078125 
L 55.90625 0 
L 45.3125 0 
L 29.390625 21.484375 
L 13.484375 0 
L 2.875 0 
L 24.125 28.609375 
L 4.6875 54.6875 
L 15.28125 54.6875 
L 29.78125 35.203125 
L 44.28125 54.6875 
z
" id="DejaVuSans-120"/>
      <path d="M 30.609375 48.390625 
Q 23.390625 48.390625 19.1875 42.75 
Q 14.984375 37.109375 14.984375 27.296875 
Q 14.984375 17.484375 19.15625 11.84375 
Q 23.34375 6.203125 30.609375 6.203125 
Q 37.796875 6.203125 41.984375 11.859375 
Q 46.1875 17.53125 46.1875 27.296875 
Q 46.1875 37.015625 41.984375 42.703125 
Q 37.796875 48.390625 30.609375 48.390625 
z
M 30.609375 56 
Q 42.328125 56 49.015625 48.375 
Q 55.71875 40.765625 55.71875 27.296875 
Q 55.71875 13.875 49.015625 6.21875 
Q 42.328125 -1.421875 30.609375 -1.421875 
Q 18.84375 -1.421875 12.171875 6.21875 
Q 5.515625 13.875 5.515625 27.296875 
Q 5.515625 40.765625 12.171875 48.375 
Q 18.84375 56 30.609375 56 
z
" id="DejaVuSans-111"/>
      <path d="M 31 75.875 
Q 24.46875 64.65625 21.28125 53.65625 
Q 18.109375 42.671875 18.109375 31.390625 
Q 18.109375 20.125 21.3125 9.0625 
Q 24.515625 -2 31 -13.1875 
L 23.1875 -13.1875 
Q 15.875 -1.703125 12.234375 9.375 
Q 8.59375 20.453125 8.59375 31.390625 
Q 8.59375 42.28125 12.203125 53.3125 
Q 15.828125 64.359375 23.1875 75.875 
z
" id="DejaVuSans-40"/>
      <path d="M 8.015625 75.875 
L 15.828125 75.875 
Q 23.140625 64.359375 26.78125 53.3125 
Q 30.421875 42.28125 30.421875 31.390625 
Q 30.421875 20.453125 26.78125 9.375 
Q 23.140625 -1.703125 15.828125 -13.1875 
L 8.015625 -13.1875 
Q 14.5 -2 17.703125 9.0625 
Q 20.90625 20.125 20.90625 31.390625 
Q 20.90625 42.671875 17.703125 53.65625 
Q 14.5 64.65625 8.015625 75.875 
z
" id="DejaVuSans-41"/>
      <path d="M 9.421875 54.6875 
L 18.40625 54.6875 
L 18.40625 0 
L 9.421875 0 
z
M 9.421875 75.984375 
L 18.40625 75.984375 
L 18.40625 64.59375 
L 9.421875 64.59375 
z
" id="DejaVuSans-105"/>
      <path d="M 18.3125 70.21875 
L 18.3125 54.6875 
L 36.8125 54.6875 
L 36.8125 47.703125 
L 18.3125 47.703125 
L 18.3125 18.015625 
Q 18.3125 11.328125 20.140625 9.421875 
Q 21.96875 7.515625 27.59375 7.515625 
L 36.8125 7.515625 
L 36.8125 0 
L 27.59375 0 
Q 17.1875 0 13.234375 3.875 
Q 9.28125 7.765625 9.28125 18.015625 
L 9.28125 47.703125 
L 2.6875 47.703125 
L 2.6875 54.6875 
L 9.28125 54.6875 
L 9.28125 70.21875 
z
" id="DejaVuSans-116"/>
      <path d="M 2.984375 54.6875 
L 12.5 54.6875 
L 29.59375 8.796875 
L 46.6875 54.6875 
L 56.203125 54.6875 
L 35.6875 0 
L 23.484375 0 
z
" id="DejaVuSans-118"/>
     </defs>
     <g style="fill:#262626;" transform="translate(151.415521 378.585947)scale(0.1 -0.1)">
      <use xlink:href="#DejaVuSans-84"/>
      <use x="61.083984" xlink:href="#DejaVuSans-104"/>
      <use x="124.462891" xlink:href="#DejaVuSans-101"/>
      <use x="185.986328" xlink:href="#DejaVuSans-114"/>
      <use x="227.083984" xlink:href="#DejaVuSans-109"/>
      <use x="324.496094" xlink:href="#DejaVuSans-97"/>
      <use x="385.775391" xlink:href="#DejaVuSans-108"/>
      <use x="413.558594" xlink:href="#DejaVuSans-32"/>
      <use x="445.345703" xlink:href="#DejaVuSans-73"/>
      <use x="474.837891" xlink:href="#DejaVuSans-110"/>
      <use x="538.216797" xlink:href="#DejaVuSans-100"/>
      <use x="601.693359" xlink:href="#DejaVuSans-101"/>
      <use x="663.201172" xlink:href="#DejaVuSans-120"/>
      <use x="722.380859" xlink:href="#DejaVuSans-32"/>
      <use x="754.167969" xlink:href="#DejaVuSans-98"/>
      <use x="817.644531" xlink:href="#DejaVuSans-111"/>
      <use x="878.826172" xlink:href="#DejaVuSans-110"/>
      <use x="942.205078" xlink:href="#DejaVuSans-101"/>
      <use x="1003.728516" xlink:href="#DejaVuSans-32"/>
      <use x="1035.515625" xlink:href="#DejaVuSans-40"/>
      <use x="1074.529297" xlink:href="#DejaVuSans-84"/>
      <use x="1135.613281" xlink:href="#DejaVuSans-73"/>
      <use x="1165.105469" xlink:href="#DejaVuSans-98"/>
      <use x="1228.582031" xlink:href="#DejaVuSans-41"/>
      <use x="1267.595703" xlink:href="#DejaVuSans-32"/>
      <use x="1299.382812" xlink:href="#DejaVuSans-105"/>
      <use x="1327.166016" xlink:href="#DejaVuSans-110"/>
      <use x="1390.544922" xlink:href="#DejaVuSans-116"/>
      <use x="1429.753906" xlink:href="#DejaVuSans-101"/>
      <use x="1491.277344" xlink:href="#DejaVuSans-114"/>
      <use x="1532.390625" xlink:href="#DejaVuSans-118"/>
      <use x="1591.570312" xlink:href="#DejaVuSans-97"/>
      <use x="1652.849609" xlink:href="#DejaVuSans-108"/>
     </g>
    </g>
   </g>
   <g id="matplotlib.axis_2">
    <g id="ytick_1">
     <g id="line2d_1">
      <path clip-path="url(#pee64c65850)" d="M 102.84 287.234841 
L 368.056667 287.234841 
" style="fill:none;stroke:#cccccc;stroke-width:0.8;"/>
     </g>
     <g id="text_9">
      <!-- 0 -->
      <g style="fill:#262626;" transform="translate(89.4775 291.03406)scale(0.1 -0.1)">
       <use xlink:href="#DejaVuSans-48"/>
      </g>
     </g>
    </g>
    <g id="ytick_2">
     <g id="line2d_2">
      <path clip-path="url(#pee64c65850)" d="M 102.84 244.44914 
L 368.056667 244.44914 
" style="fill:none;stroke:#cccccc;stroke-width:0.8;"/>
     </g>
     <g id="text_10">
      <!-- 20 -->
      <g style="fill:#262626;" transform="translate(83.115 248.248359)scale(0.1 -0.1)">
       <use xlink:href="#DejaVuSans-50"/>
       <use x="63.623047" xlink:href="#DejaVuSans-48"/>
      </g>
     </g>
    </g>
    <g id="ytick_3">
     <g id="line2d_3">
      <path clip-path="url(#pee64c65850)" d="M 102.84 201.663439 
L 368.056667 201.663439 
" style="fill:none;stroke:#cccccc;stroke-width:0.8;"/>
     </g>
     <g id="text_11">
      <!-- 40 -->
      <defs>
       <path d="M 37.796875 64.3125 
L 12.890625 25.390625 
L 37.796875 25.390625 
z
M 35.203125 72.90625 
L 47.609375 72.90625 
L 47.609375 25.390625 
L 58.015625 25.390625 
L 58.015625 17.1875 
L 47.609375 17.1875 
L 47.609375 0 
L 37.796875 0 
L 37.796875 17.1875 
L 4.890625 17.1875 
L 4.890625 26.703125 
z
" id="DejaVuSans-52"/>
      </defs>
      <g style="fill:#262626;" transform="translate(83.115 205.462658)scale(0.1 -0.1)">
       <use xlink:href="#DejaVuSans-52"/>
       <use x="63.623047" xlink:href="#DejaVuSans-48"/>
      </g>
     </g>
    </g>
    <g id="ytick_4">
     <g id="line2d_4">
      <path clip-path="url(#pee64c65850)" d="M 102.84 158.877738 
L 368.056667 158.877738 
" style="fill:none;stroke:#cccccc;stroke-width:0.8;"/>
     </g>
     <g id="text_12">
      <!-- 60 -->
      <defs>
       <path d="M 33.015625 40.375 
Q 26.375 40.375 22.484375 35.828125 
Q 18.609375 31.296875 18.609375 23.390625 
Q 18.609375 15.53125 22.484375 10.953125 
Q 26.375 6.390625 33.015625 6.390625 
Q 39.65625 6.390625 43.53125 10.953125 
Q 47.40625 15.53125 47.40625 23.390625 
Q 47.40625 31.296875 43.53125 35.828125 
Q 39.65625 40.375 33.015625 40.375 
z
M 52.59375 71.296875 
L 52.59375 62.3125 
Q 48.875 64.0625 45.09375 64.984375 
Q 41.3125 65.921875 37.59375 65.921875 
Q 27.828125 65.921875 22.671875 59.328125 
Q 17.53125 52.734375 16.796875 39.40625 
Q 19.671875 43.65625 24.015625 45.921875 
Q 28.375 48.1875 33.59375 48.1875 
Q 44.578125 48.1875 50.953125 41.515625 
Q 57.328125 34.859375 57.328125 23.390625 
Q 57.328125 12.15625 50.6875 5.359375 
Q 44.046875 -1.421875 33.015625 -1.421875 
Q 20.359375 -1.421875 13.671875 8.265625 
Q 6.984375 17.96875 6.984375 36.375 
Q 6.984375 53.65625 15.1875 63.9375 
Q 23.390625 74.21875 37.203125 74.21875 
Q 40.921875 74.21875 44.703125 73.484375 
Q 48.484375 72.75 52.59375 71.296875 
z
" id="DejaVuSans-54"/>
      </defs>
      <g style="fill:#262626;" transform="translate(83.115 162.676957)scale(0.1 -0.1)">
       <use xlink:href="#DejaVuSans-54"/>
       <use x="63.623047" xlink:href="#DejaVuSans-48"/>
      </g>
     </g>
    </g>
    <g id="ytick_5">
     <g id="line2d_5">
      <path clip-path="url(#pee64c65850)" d="M 102.84 116.092037 
L 368.056667 116.092037 
" style="fill:none;stroke:#cccccc;stroke-width:0.8;"/>
     </g>
     <g id="text_13">
      <!-- 80 -->
      <defs>
       <path d="M 31.78125 34.625 
Q 24.75 34.625 20.71875 30.859375 
Q 16.703125 27.09375 16.703125 20.515625 
Q 16.703125 13.921875 20.71875 10.15625 
Q 24.75 6.390625 31.78125 6.390625 
Q 38.8125 6.390625 42.859375 10.171875 
Q 46.921875 13.96875 46.921875 20.515625 
Q 46.921875 27.09375 42.890625 30.859375 
Q 38.875 34.625 31.78125 34.625 
z
M 21.921875 38.8125 
Q 15.578125 40.375 12.03125 44.71875 
Q 8.5 49.078125 8.5 55.328125 
Q 8.5 64.0625 14.71875 69.140625 
Q 20.953125 74.21875 31.78125 74.21875 
Q 42.671875 74.21875 48.875 69.140625 
Q 55.078125 64.0625 55.078125 55.328125 
Q 55.078125 49.078125 51.53125 44.71875 
Q 48 40.375 41.703125 38.8125 
Q 48.828125 37.15625 52.796875 32.3125 
Q 56.78125 27.484375 56.78125 20.515625 
Q 56.78125 9.90625 50.3125 4.234375 
Q 43.84375 -1.421875 31.78125 -1.421875 
Q 19.734375 -1.421875 13.25 4.234375 
Q 6.78125 9.90625 6.78125 20.515625 
Q 6.78125 27.484375 10.78125 32.3125 
Q 14.796875 37.15625 21.921875 38.8125 
z
M 18.3125 54.390625 
Q 18.3125 48.734375 21.84375 45.5625 
Q 25.390625 42.390625 31.78125 42.390625 
Q 38.140625 42.390625 41.71875 45.5625 
Q 45.3125 48.734375 45.3125 54.390625 
Q 45.3125 60.0625 41.71875 63.234375 
Q 38.140625 66.40625 31.78125 66.40625 
Q 25.390625 66.40625 21.84375 63.234375 
Q 18.3125 60.0625 18.3125 54.390625 
z
" id="DejaVuSans-56"/>
      </defs>
      <g style="fill:#262626;" transform="translate(83.115 119.891256)scale(0.1 -0.1)">
       <use xlink:href="#DejaVuSans-56"/>
       <use x="63.623047" xlink:href="#DejaVuSans-48"/>
      </g>
     </g>
    </g>
    <g id="text_14">
     <!-- Average proportion of scan time (%) -->
     <defs>
      <path d="M 34.1875 63.1875 
L 20.796875 26.90625 
L 47.609375 26.90625 
z
M 28.609375 72.90625 
L 39.796875 72.90625 
L 67.578125 0 
L 57.328125 0 
L 50.6875 18.703125 
L 17.828125 18.703125 
L 11.1875 0 
L 0.78125 0 
z
" id="DejaVuSans-65"/>
      <path d="M 45.40625 27.984375 
Q 45.40625 37.75 41.375 43.109375 
Q 37.359375 48.484375 30.078125 48.484375 
Q 22.859375 48.484375 18.828125 43.109375 
Q 14.796875 37.75 14.796875 27.984375 
Q 14.796875 18.265625 18.828125 12.890625 
Q 22.859375 7.515625 30.078125 7.515625 
Q 37.359375 7.515625 41.375 12.890625 
Q 45.40625 18.265625 45.40625 27.984375 
z
M 54.390625 6.78125 
Q 54.390625 -7.171875 48.1875 -13.984375 
Q 42 -20.796875 29.203125 -20.796875 
Q 24.46875 -20.796875 20.265625 -20.09375 
Q 16.0625 -19.390625 12.109375 -17.921875 
L 12.109375 -9.1875 
Q 16.0625 -11.328125 19.921875 -12.34375 
Q 23.78125 -13.375 27.78125 -13.375 
Q 36.625 -13.375 41.015625 -8.765625 
Q 45.40625 -4.15625 45.40625 5.171875 
L 45.40625 9.625 
Q 42.625 4.78125 38.28125 2.390625 
Q 33.9375 0 27.875 0 
Q 17.828125 0 11.671875 7.65625 
Q 5.515625 15.328125 5.515625 27.984375 
Q 5.515625 40.671875 11.671875 48.328125 
Q 17.828125 56 27.875 56 
Q 33.9375 56 38.28125 53.609375 
Q 42.625 51.21875 45.40625 46.390625 
L 45.40625 54.6875 
L 54.390625 54.6875 
z
" id="DejaVuSans-103"/>
      <path d="M 18.109375 8.203125 
L 18.109375 -20.796875 
L 9.078125 -20.796875 
L 9.078125 54.6875 
L 18.109375 54.6875 
L 18.109375 46.390625 
Q 20.953125 51.265625 25.265625 53.625 
Q 29.59375 56 35.59375 56 
Q 45.5625 56 51.78125 48.09375 
Q 58.015625 40.1875 58.015625 27.296875 
Q 58.015625 14.40625 51.78125 6.484375 
Q 45.5625 -1.421875 35.59375 -1.421875 
Q 29.59375 -1.421875 25.265625 0.953125 
Q 20.953125 3.328125 18.109375 8.203125 
z
M 48.6875 27.296875 
Q 48.6875 37.203125 44.609375 42.84375 
Q 40.53125 48.484375 33.40625 48.484375 
Q 26.265625 48.484375 22.1875 42.84375 
Q 18.109375 37.203125 18.109375 27.296875 
Q 18.109375 17.390625 22.1875 11.75 
Q 26.265625 6.109375 33.40625 6.109375 
Q 40.53125 6.109375 44.609375 11.75 
Q 48.6875 17.390625 48.6875 27.296875 
z
" id="DejaVuSans-112"/>
      <path d="M 37.109375 75.984375 
L 37.109375 68.5 
L 28.515625 68.5 
Q 23.6875 68.5 21.796875 66.546875 
Q 19.921875 64.59375 19.921875 59.515625 
L 19.921875 54.6875 
L 34.71875 54.6875 
L 34.71875 47.703125 
L 19.921875 47.703125 
L 19.921875 0 
L 10.890625 0 
L 10.890625 47.703125 
L 2.296875 47.703125 
L 2.296875 54.6875 
L 10.890625 54.6875 
L 10.890625 58.5 
Q 10.890625 67.625 15.140625 71.796875 
Q 19.390625 75.984375 28.609375 75.984375 
z
" id="DejaVuSans-102"/>
      <path d="M 44.28125 53.078125 
L 44.28125 44.578125 
Q 40.484375 46.53125 36.375 47.5 
Q 32.28125 48.484375 27.875 48.484375 
Q 21.1875 48.484375 17.84375 46.4375 
Q 14.5 44.390625 14.5 40.28125 
Q 14.5 37.15625 16.890625 35.375 
Q 19.28125 33.59375 26.515625 31.984375 
L 29.59375 31.296875 
Q 39.15625 29.25 43.1875 25.515625 
Q 47.21875 21.78125 47.21875 15.09375 
Q 47.21875 7.46875 41.1875 3.015625 
Q 35.15625 -1.421875 24.609375 -1.421875 
Q 20.21875 -1.421875 15.453125 -0.5625 
Q 10.6875 0.296875 5.421875 2 
L 5.421875 11.28125 
Q 10.40625 8.6875 15.234375 7.390625 
Q 20.0625 6.109375 24.8125 6.109375 
Q 31.15625 6.109375 34.5625 8.28125 
Q 37.984375 10.453125 37.984375 14.40625 
Q 37.984375 18.0625 35.515625 20.015625 
Q 33.0625 21.96875 24.703125 23.78125 
L 21.578125 24.515625 
Q 13.234375 26.265625 9.515625 29.90625 
Q 5.8125 33.546875 5.8125 39.890625 
Q 5.8125 47.609375 11.28125 51.796875 
Q 16.75 56 26.8125 56 
Q 31.78125 56 36.171875 55.265625 
Q 40.578125 54.546875 44.28125 53.078125 
z
" id="DejaVuSans-115"/>
      <path d="M 48.78125 52.59375 
L 48.78125 44.1875 
Q 44.96875 46.296875 41.140625 47.34375 
Q 37.3125 48.390625 33.40625 48.390625 
Q 24.65625 48.390625 19.8125 42.84375 
Q 14.984375 37.3125 14.984375 27.296875 
Q 14.984375 17.28125 19.8125 11.734375 
Q 24.65625 6.203125 33.40625 6.203125 
Q 37.3125 6.203125 41.140625 7.25 
Q 44.96875 8.296875 48.78125 10.40625 
L 48.78125 2.09375 
Q 45.015625 0.34375 40.984375 -0.53125 
Q 36.96875 -1.421875 32.421875 -1.421875 
Q 20.0625 -1.421875 12.78125 6.34375 
Q 5.515625 14.109375 5.515625 27.296875 
Q 5.515625 40.671875 12.859375 48.328125 
Q 20.21875 56 33.015625 56 
Q 37.15625 56 41.109375 55.140625 
Q 45.0625 54.296875 48.78125 52.59375 
z
" id="DejaVuSans-99"/>
      <path d="M 72.703125 32.078125 
Q 68.453125 32.078125 66.03125 28.46875 
Q 63.625 24.859375 63.625 18.40625 
Q 63.625 12.0625 66.03125 8.421875 
Q 68.453125 4.78125 72.703125 4.78125 
Q 76.859375 4.78125 79.265625 8.421875 
Q 81.6875 12.0625 81.6875 18.40625 
Q 81.6875 24.8125 79.265625 28.4375 
Q 76.859375 32.078125 72.703125 32.078125 
z
M 72.703125 38.28125 
Q 80.421875 38.28125 84.953125 32.90625 
Q 89.5 27.546875 89.5 18.40625 
Q 89.5 9.28125 84.9375 3.921875 
Q 80.375 -1.421875 72.703125 -1.421875 
Q 64.890625 -1.421875 60.34375 3.921875 
Q 55.8125 9.28125 55.8125 18.40625 
Q 55.8125 27.59375 60.375 32.9375 
Q 64.9375 38.28125 72.703125 38.28125 
z
M 22.3125 68.015625 
Q 18.109375 68.015625 15.6875 64.375 
Q 13.28125 60.75 13.28125 54.390625 
Q 13.28125 47.953125 15.671875 44.328125 
Q 18.0625 40.71875 22.3125 40.71875 
Q 26.5625 40.71875 28.96875 44.328125 
Q 31.390625 47.953125 31.390625 54.390625 
Q 31.390625 60.6875 28.953125 64.34375 
Q 26.515625 68.015625 22.3125 68.015625 
z
M 66.40625 74.21875 
L 74.21875 74.21875 
L 28.609375 -1.421875 
L 20.796875 -1.421875 
z
M 22.3125 74.21875 
Q 30.03125 74.21875 34.609375 68.875 
Q 39.203125 63.53125 39.203125 54.390625 
Q 39.203125 45.171875 34.640625 39.84375 
Q 30.078125 34.515625 22.3125 34.515625 
Q 14.546875 34.515625 10.03125 39.859375 
Q 5.515625 45.21875 5.515625 54.390625 
Q 5.515625 63.484375 10.046875 68.84375 
Q 14.59375 74.21875 22.3125 74.21875 
z
" id="DejaVuSans-37"/>
     </defs>
     <g style="fill:#262626;" transform="translate(77.035313 282.716563)rotate(-90)scale(0.1 -0.1)">
      <use xlink:href="#DejaVuSans-65"/>
      <use x="68.330078" xlink:href="#DejaVuSans-118"/>
      <use x="127.509766" xlink:href="#DejaVuSans-101"/>
      <use x="189.033203" xlink:href="#DejaVuSans-114"/>
      <use x="230.146484" xlink:href="#DejaVuSans-97"/>
      <use x="291.425781" xlink:href="#DejaVuSans-103"/>
      <use x="354.902344" xlink:href="#DejaVuSans-101"/>
      <use x="416.425781" xlink:href="#DejaVuSans-32"/>
      <use x="448.212891" xlink:href="#DejaVuSans-112"/>
      <use x="511.689453" xlink:href="#DejaVuSans-114"/>
      <use x="552.771484" xlink:href="#DejaVuSans-111"/>
      <use x="613.953125" xlink:href="#DejaVuSans-112"/>
      <use x="677.429688" xlink:href="#DejaVuSans-111"/>
      <use x="738.611328" xlink:href="#DejaVuSans-114"/>
      <use x="779.724609" xlink:href="#DejaVuSans-116"/>
      <use x="818.933594" xlink:href="#DejaVuSans-105"/>
      <use x="846.716797" xlink:href="#DejaVuSans-111"/>
      <use x="907.898438" xlink:href="#DejaVuSans-110"/>
      <use x="971.277344" xlink:href="#DejaVuSans-32"/>
      <use x="1003.064453" xlink:href="#DejaVuSans-111"/>
      <use x="1064.246094" xlink:href="#DejaVuSans-102"/>
      <use x="1099.451172" xlink:href="#DejaVuSans-32"/>
      <use x="1131.238281" xlink:href="#DejaVuSans-115"/>
      <use x="1183.337891" xlink:href="#DejaVuSans-99"/>
      <use x="1238.318359" xlink:href="#DejaVuSans-97"/>
      <use x="1299.597656" xlink:href="#DejaVuSans-110"/>
      <use x="1362.976562" xlink:href="#DejaVuSans-32"/>
      <use x="1394.763672" xlink:href="#DejaVuSans-116"/>
      <use x="1433.972656" xlink:href="#DejaVuSans-105"/>
      <use x="1461.755859" xlink:href="#DejaVuSans-109"/>
      <use x="1559.167969" xlink:href="#DejaVuSans-101"/>
      <use x="1620.691406" xlink:href="#DejaVuSans-32"/>
      <use x="1652.478516" xlink:href="#DejaVuSans-40"/>
      <use x="1691.492188" xlink:href="#DejaVuSans-37"/>
      <use x="1786.511719" xlink:href="#DejaVuSans-41"/>
     </g>
    </g>
   </g>
   <g id="PathCollection_1">
    <path clip-path="url(#pee64c65850)" d="M 111.547748 113.865858 
L 116.865109 113.865858 
L 116.865109 108.548497 
L 111.547748 108.548497 
z
" style="fill:#ffffff;stroke:#1f77b4;stroke-width:0.75;"/>
    <path clip-path="url(#pee64c65850)" d="M 149.435843 280.981565 
L 154.753205 280.981565 
L 154.753205 275.664203 
L 149.435843 275.664203 
z
" style="fill:#ffffff;stroke:#1f77b4;stroke-width:0.75;"/>
    <path clip-path="url(#pee64c65850)" d="M 187.323938 280.27255 
L 192.6413 280.27255 
L 192.6413 274.955189 
L 187.323938 274.955189 
z
" style="fill:#ffffff;stroke:#1f77b4;stroke-width:0.75;"/>
    <path clip-path="url(#pee64c65850)" d="M 225.212034 278.227702 
L 230.529395 278.227702 
L 230.529395 272.910341 
L 225.212034 272.910341 
z
" style="fill:#ffffff;stroke:#1f77b4;stroke-width:0.75;"/>
    <path clip-path="url(#pee64c65850)" d="M 263.100129 282.191428 
L 268.41749 282.191428 
L 268.41749 276.874066 
L 263.100129 276.874066 
z
" style="fill:#ffffff;stroke:#1f77b4;stroke-width:0.75;"/>
    <path clip-path="url(#pee64c65850)" d="M 300.988224 289.893522 
L 306.305586 289.893522 
L 306.305586 284.57616 
L 300.988224 284.57616 
z
" style="fill:#ffffff;stroke:#1f77b4;stroke-width:0.75;"/>
    <path clip-path="url(#pee64c65850)" d="M 338.876319 289.893522 
L 344.193681 289.893522 
L 344.193681 284.57616 
L 338.876319 284.57616 
z
" style="fill:#ffffff;stroke:#1f77b4;stroke-width:0.75;"/>
   </g>
   <g id="line2d_6">
    <path clip-path="url(#pee64c65850)" d="M 114.206429 111.207178 
L 152.094524 278.322884 
L 189.982619 277.613869 
L 227.870714 275.569022 
L 265.75881 279.532747 
L 303.646905 287.234841 
L 341.535 287.234841 
" style="fill:none;stroke:#1f77b4;stroke-dasharray:2.775,1.2;stroke-dashoffset:0;stroke-width:0.75;"/>
   </g>
   <g id="PathCollection_2">
    <defs>
     <path d="M 0 2.658681 
C 0.70509 2.658681 1.381397 2.378545 1.879971 1.879971 
C 2.378545 1.381397 2.658681 0.70509 2.658681 0 
C 2.658681 -0.70509 2.378545 -1.381397 1.879971 -1.879971 
C 1.381397 -2.378545 0.70509 -2.658681 0 -2.658681 
C -0.70509 -2.658681 -1.381397 -2.378545 -1.879971 -1.879971 
C -2.378545 -1.381397 -2.658681 -0.70509 -2.658681 0 
C -2.658681 0.70509 -2.378545 1.381397 -1.879971 1.879971 
C -1.381397 2.378545 -0.70509 2.658681 0 2.658681 
z
" id="C0_0_bcef8c8fcc"/>
    </defs>
    <g clip-path="url(#pee64c65850)">
     <use style="fill:#ffffff;stroke:#ff7f0e;stroke-width:0.75;" x="121.784048" xlink:href="#C0_0_bcef8c8fcc" y="144.105909"/>
    </g>
    <g clip-path="url(#pee64c65850)">
     <use style="fill:#ffffff;stroke:#ff7f0e;stroke-width:0.75;" x="159.672143" xlink:href="#C0_0_bcef8c8fcc" y="286.848574"/>
    </g>
    <g clip-path="url(#pee64c65850)">
     <use style="fill:#ffffff;stroke:#ff7f0e;stroke-width:0.75;" x="197.560238" xlink:href="#C0_0_bcef8c8fcc" y="268.588811"/>
    </g>
    <g clip-path="url(#pee64c65850)">
     <use style="fill:#ffffff;stroke:#ff7f0e;stroke-width:0.75;" x="235.448333" xlink:href="#C0_0_bcef8c8fcc" y="257.380306"/>
    </g>
    <g clip-path="url(#pee64c65850)">
     <use style="fill:#ffffff;stroke:#ff7f0e;stroke-width:0.75;" x="273.336429" xlink:href="#C0_0_bcef8c8fcc" y="265.32798"/>
    </g>
    <g clip-path="url(#pee64c65850)">
     <use style="fill:#ffffff;stroke:#ff7f0e;stroke-width:0.75;" x="311.224524" xlink:href="#C0_0_bcef8c8fcc" y="287.22896"/>
    </g>
    <g clip-path="url(#pee64c65850)">
     <use style="fill:#ffffff;stroke:#ff7f0e;stroke-width:0.75;" x="349.112619" xlink:href="#C0_0_bcef8c8fcc" y="287.234841"/>
    </g>
   </g>
   <g id="line2d_7">
    <path clip-path="url(#pee64c65850)" d="M 121.784048 144.105909 
L 159.672143 286.848574 
L 197.560238 268.588811 
L 235.448333 257.380306 
L 273.336429 265.32798 
L 311.224524 287.22896 
L 349.112619 287.234841 
" style="fill:none;stroke:#ff7f0e;stroke-dasharray:4.8,1.2,0.75,1.2;stroke-dashoffset:0;stroke-width:0.75;"/>
   </g>
   <g id="line2d_8">
    <path clip-path="url(#pee64c65850)" d="M 140.728095 298.92 
L 140.728095 83.96 
" style="fill:none;stroke:#cccccc;stroke-width:0.5;"/>
   </g>
   <g id="line2d_9">
    <path clip-path="url(#pee64c65850)" d="M 178.61619 298.92 
L 178.61619 83.96 
" style="fill:none;stroke:#cccccc;stroke-width:0.5;"/>
   </g>
   <g id="line2d_10">
    <path clip-path="url(#pee64c65850)" d="M 216.504286 298.92 
L 216.504286 83.96 
" style="fill:none;stroke:#cccccc;stroke-width:0.5;"/>
   </g>
   <g id="line2d_11">
    <path clip-path="url(#pee64c65850)" d="M 254.392381 298.92 
L 254.392381 83.96 
" style="fill:none;stroke:#cccccc;stroke-width:0.5;"/>
   </g>
   <g id="line2d_12">
    <path clip-path="url(#pee64c65850)" d="M 292.280476 298.92 
L 292.280476 83.96 
" style="fill:none;stroke:#cccccc;stroke-width:0.5;"/>
   </g>
   <g id="line2d_13">
    <path clip-path="url(#pee64c65850)" d="M 330.168571 298.92 
L 330.168571 83.96 
" style="fill:none;stroke:#cccccc;stroke-width:0.5;"/>
   </g>
   <g id="patch_3">
    <path d="M 102.84 298.92 
L 102.84 83.96 
" style="fill:none;stroke:#cccccc;stroke-linecap:square;stroke-linejoin:miter;stroke-width:0.8;"/>
   </g>
   <g id="patch_4">
    <path d="M 368.056667 298.92 
L 368.056667 83.96 
" style="fill:none;stroke:#cccccc;stroke-linecap:square;stroke-linejoin:miter;stroke-width:0.8;"/>
   </g>
   <g id="patch_5">
    <path d="M 102.84 298.92 
L 368.056667 298.92 
" style="fill:none;stroke:#cccccc;stroke-linecap:square;stroke-linejoin:miter;stroke-width:0.8;"/>
   </g>
   <g id="patch_6">
    <path d="M 102.84 83.96 
L 368.056667 83.96 
" style="fill:none;stroke:#cccccc;stroke-linecap:square;stroke-linejoin:miter;stroke-width:0.8;"/>
   </g>
   <g id="PathCollection_3">
    <path clip-path="url(#pee64c65850)" d="M 129.361667 142.082537 
L 126.702986 147.399898 
L 132.020347 147.399898 
z
" style="fill:#ffffff;stroke:#2ca02c;stroke-width:0.75;"/>
    <path clip-path="url(#pee64c65850)" d="M 167.249762 282.886926 
L 164.591081 288.204287 
L 169.908443 288.204287 
z
" style="fill:#ffffff;stroke:#2ca02c;stroke-width:0.75;"/>
    <path clip-path="url(#pee64c65850)" d="M 205.137857 280.703682 
L 202.479176 286.021044 
L 207.796538 286.021044 
z
" style="fill:#ffffff;stroke:#2ca02c;stroke-width:0.75;"/>
    <path clip-path="url(#pee64c65850)" d="M 243.025952 255.912266 
L 240.367272 261.229628 
L 245.684633 261.229628 
z
" style="fill:#ffffff;stroke:#2ca02c;stroke-width:0.75;"/>
    <path clip-path="url(#pee64c65850)" d="M 280.914048 251.825078 
L 278.255367 257.14244 
L 283.572728 257.14244 
z
" style="fill:#ffffff;stroke:#2ca02c;stroke-width:0.75;"/>
    <path clip-path="url(#pee64c65850)" d="M 318.802143 280.117967 
L 316.143462 285.435328 
L 321.460824 285.435328 
z
" style="fill:#ffffff;stroke:#2ca02c;stroke-width:0.75;"/>
    <path clip-path="url(#pee64c65850)" d="M 356.690238 284.57616 
L 354.031557 289.893522 
L 359.348919 289.893522 
z
" style="fill:#ffffff;stroke:#2ca02c;stroke-width:0.75;"/>
   </g>
   <g id="line2d_14">
    <path clip-path="url(#pee64c65850)" d="M 129.361667 144.741217 
L 167.249762 285.545606 
L 205.137857 283.362363 
L 243.025952 258.570947 
L 280.914048 254.483759 
L 318.802143 282.776647 
L 356.690238 287.234841 
" style="fill:none;stroke:#2ca02c;stroke-dasharray:0.75,1.2375;stroke-dashoffset:0;stroke-width:0.75;"/>
   </g>
   <g id="legend_1">
    <g id="PathCollection_4">
     <path d="M 71.442319 74.796918 
L 76.759681 74.796918 
L 76.759681 69.479557 
L 71.442319 69.479557 
z
" style="fill:#ffffff;stroke:#1f77b4;stroke-width:0.75;"/>
    </g>
    <g id="text_15">
     <!-- 1st Trimester -->
     <g style="fill:#262626;" transform="translate(92.101 74.763238)scale(0.1 -0.1)">
      <use xlink:href="#DejaVuSans-49"/>
      <use x="63.623047" xlink:href="#DejaVuSans-115"/>
      <use x="115.722656" xlink:href="#DejaVuSans-116"/>
      <use x="154.931641" xlink:href="#DejaVuSans-32"/>
      <use x="186.71875" xlink:href="#DejaVuSans-84"/>
      <use x="247.583984" xlink:href="#DejaVuSans-114"/>
      <use x="288.697266" xlink:href="#DejaVuSans-105"/>
      <use x="316.480469" xlink:href="#DejaVuSans-109"/>
      <use x="413.892578" xlink:href="#DejaVuSans-101"/>
      <use x="475.416016" xlink:href="#DejaVuSans-115"/>
      <use x="527.515625" xlink:href="#DejaVuSans-116"/>
      <use x="566.724609" xlink:href="#DejaVuSans-101"/>
      <use x="628.248047" xlink:href="#DejaVuSans-114"/>
     </g>
    </g>
    <g id="PathCollection_5">
     <path d="M 189.033813 74.796918 
C 189.738903 74.796918 190.41521 74.516783 190.913784 74.018209 
C 191.412358 73.519635 191.692493 72.843328 191.692493 72.138238 
C 191.692493 71.433147 191.412358 70.75684 190.913784 70.258266 
C 190.41521 69.759692 189.738903 69.479557 189.033813 69.479557 
C 188.328722 69.479557 187.652415 69.759692 187.153841 70.258266 
C 186.655267 70.75684 186.375132 71.433147 186.375132 72.138238 
C 186.375132 72.843328 186.655267 73.519635 187.153841 74.018209 
C 187.652415 74.516783 188.328722 74.796918 189.033813 74.796918 
z
" style="fill:#ffffff;stroke:#ff7f0e;stroke-width:0.75;"/>
    </g>
    <g id="text_16">
     <!-- 2nd Trimester -->
     <g style="fill:#262626;" transform="translate(207.033813 74.763238)scale(0.1 -0.1)">
      <use xlink:href="#DejaVuSans-50"/>
      <use x="63.623047" xlink:href="#DejaVuSans-110"/>
      <use x="127.001953" xlink:href="#DejaVuSans-100"/>
      <use x="190.478516" xlink:href="#DejaVuSans-32"/>
      <use x="222.265625" xlink:href="#DejaVuSans-84"/>
      <use x="283.130859" xlink:href="#DejaVuSans-114"/>
      <use x="324.244141" xlink:href="#DejaVuSans-105"/>
      <use x="352.027344" xlink:href="#DejaVuSans-109"/>
      <use x="449.439453" xlink:href="#DejaVuSans-101"/>
      <use x="510.962891" xlink:href="#DejaVuSans-115"/>
      <use x="563.0625" xlink:href="#DejaVuSans-116"/>
      <use x="602.271484" xlink:href="#DejaVuSans-101"/>
      <use x="663.794922" xlink:href="#DejaVuSans-114"/>
     </g>
    </g>
    <g id="PathCollection_6">
     <path d="M 307.522875 69.479557 
L 304.864194 74.796918 
L 310.181556 74.796918 
z
" style="fill:#ffffff;stroke:#2ca02c;stroke-width:0.75;"/>
    </g>
    <g id="text_17">
     <!-- 3rd Trimester -->
     <g style="fill:#262626;" transform="translate(325.522875 74.763238)scale(0.1 -0.1)">
      <use xlink:href="#DejaVuSans-51"/>
      <use x="63.623047" xlink:href="#DejaVuSans-114"/>
      <use x="104.720703" xlink:href="#DejaVuSans-100"/>
      <use x="168.197266" xlink:href="#DejaVuSans-32"/>
      <use x="199.984375" xlink:href="#DejaVuSans-84"/>
      <use x="260.849609" xlink:href="#DejaVuSans-114"/>
      <use x="301.962891" xlink:href="#DejaVuSans-105"/>
      <use x="329.746094" xlink:href="#DejaVuSans-109"/>
      <use x="427.158203" xlink:href="#DejaVuSans-101"/>
      <use x="488.681641" xlink:href="#DejaVuSans-115"/>
      <use x="540.78125" xlink:href="#DejaVuSans-116"/>
      <use x="579.990234" xlink:href="#DejaVuSans-101"/>
      <use x="641.513672" xlink:href="#DejaVuSans-114"/>
     </g>
    </g>
   </g>
  </g>
  <g id="axes_2">
   <g id="patch_7">
    <path d="M 378.851667 298.92 
L 644.068333 298.92 
L 644.068333 83.96 
L 378.851667 83.96 
z
" style="fill:#ffffff;"/>
   </g>
   <g id="matplotlib.axis_3">
    <g id="xtick_8">
     <g id="text_18">
      <!-- 0 ≤ TIs &lt; 0.7 -->
      <g style="fill:#262626;" transform="translate(349.652791 357.965269)rotate(-45)scale(0.1 -0.1)">
       <use xlink:href="#DejaVuSans-48"/>
       <use x="63.623047" xlink:href="#DejaVuSans-32"/>
       <use x="95.410156" xlink:href="#DejaVuSans-8804"/>
       <use x="179.199219" xlink:href="#DejaVuSans-32"/>
       <use x="210.986328" xlink:href="#DejaVuSans-84"/>
       <use x="272.070312" xlink:href="#DejaVuSans-73"/>
       <use x="301.5625" xlink:href="#DejaVuSans-115"/>
       <use x="353.662109" xlink:href="#DejaVuSans-32"/>
       <use x="385.449219" xlink:href="#DejaVuSans-60"/>
       <use x="469.238281" xlink:href="#DejaVuSans-32"/>
       <use x="501.025391" xlink:href="#DejaVuSans-48"/>
       <use x="564.648438" xlink:href="#DejaVuSans-46"/>
       <use x="596.435547" xlink:href="#DejaVuSans-55"/>
      </g>
     </g>
    </g>
    <g id="xtick_9">
     <g id="text_19">
      <!-- 0.7 ≤ TIs &lt; 1.0 -->
      <g style="fill:#262626;" transform="translate(380.794646 364.711509)rotate(-45)scale(0.1 -0.1)">
       <use xlink:href="#DejaVuSans-48"/>
       <use x="63.623047" xlink:href="#DejaVuSans-46"/>
       <use x="95.410156" xlink:href="#DejaVuSans-55"/>
       <use x="159.033203" xlink:href="#DejaVuSans-32"/>
       <use x="190.820312" xlink:href="#DejaVuSans-8804"/>
       <use x="274.609375" xlink:href="#DejaVuSans-32"/>
       <use x="306.396484" xlink:href="#DejaVuSans-84"/>
       <use x="367.480469" xlink:href="#DejaVuSans-73"/>
       <use x="396.972656" xlink:href="#DejaVuSans-115"/>
       <use x="449.072266" xlink:href="#DejaVuSans-32"/>
       <use x="480.859375" xlink:href="#DejaVuSans-60"/>
       <use x="564.648438" xlink:href="#DejaVuSans-32"/>
       <use x="596.435547" xlink:href="#DejaVuSans-49"/>
       <use x="660.058594" xlink:href="#DejaVuSans-46"/>
       <use x="691.845703" xlink:href="#DejaVuSans-48"/>
      </g>
     </g>
    </g>
    <g id="xtick_10">
     <g id="text_20">
      <!-- 1.0 ≤ TIs &lt; 1.5 -->
      <g style="fill:#262626;" transform="translate(418.682741 364.711509)rotate(-45)scale(0.1 -0.1)">
       <use xlink:href="#DejaVuSans-49"/>
       <use x="63.623047" xlink:href="#DejaVuSans-46"/>
       <use x="95.410156" xlink:href="#DejaVuSans-48"/>
       <use x="159.033203" xlink:href="#DejaVuSans-32"/>
       <use x="190.820312" xlink:href="#DejaVuSans-8804"/>
       <use x="274.609375" xlink:href="#DejaVuSans-32"/>
       <use x="306.396484" xlink:href="#DejaVuSans-84"/>
       <use x="367.480469" xlink:href="#DejaVuSans-73"/>
       <use x="396.972656" xlink:href="#DejaVuSans-115"/>
       <use x="449.072266" xlink:href="#DejaVuSans-32"/>
       <use x="480.859375" xlink:href="#DejaVuSans-60"/>
       <use x="564.648438" xlink:href="#DejaVuSans-32"/>
       <use x="596.435547" xlink:href="#DejaVuSans-49"/>
       <use x="660.058594" xlink:href="#DejaVuSans-46"/>
       <use x="691.845703" xlink:href="#DejaVuSans-53"/>
      </g>
     </g>
    </g>
    <g id="xtick_11">
     <g id="text_21">
      <!-- 1.5 ≤ TIs &lt; 2.0 -->
      <g style="fill:#262626;" transform="translate(456.570836 364.711509)rotate(-45)scale(0.1 -0.1)">
       <use xlink:href="#DejaVuSans-49"/>
       <use x="63.623047" xlink:href="#DejaVuSans-46"/>
       <use x="95.410156" xlink:href="#DejaVuSans-53"/>
       <use x="159.033203" xlink:href="#DejaVuSans-32"/>
       <use x="190.820312" xlink:href="#DejaVuSans-8804"/>
       <use x="274.609375" xlink:href="#DejaVuSans-32"/>
       <use x="306.396484" xlink:href="#DejaVuSans-84"/>
       <use x="367.480469" xlink:href="#DejaVuSans-73"/>
       <use x="396.972656" xlink:href="#DejaVuSans-115"/>
       <use x="449.072266" xlink:href="#DejaVuSans-32"/>
       <use x="480.859375" xlink:href="#DejaVuSans-60"/>
       <use x="564.648438" xlink:href="#DejaVuSans-32"/>
       <use x="596.435547" xlink:href="#DejaVuSans-50"/>
       <use x="660.058594" xlink:href="#DejaVuSans-46"/>
       <use x="691.845703" xlink:href="#DejaVuSans-48"/>
      </g>
     </g>
    </g>
    <g id="xtick_12">
     <g id="text_22">
      <!-- 2.0 ≤ TIs &lt; 2.5 -->
      <g style="fill:#262626;" transform="translate(494.458931 364.711509)rotate(-45)scale(0.1 -0.1)">
       <use xlink:href="#DejaVuSans-50"/>
       <use x="63.623047" xlink:href="#DejaVuSans-46"/>
       <use x="95.410156" xlink:href="#DejaVuSans-48"/>
       <use x="159.033203" xlink:href="#DejaVuSans-32"/>
       <use x="190.820312" xlink:href="#DejaVuSans-8804"/>
       <use x="274.609375" xlink:href="#DejaVuSans-32"/>
       <use x="306.396484" xlink:href="#DejaVuSans-84"/>
       <use x="367.480469" xlink:href="#DejaVuSans-73"/>
       <use x="396.972656" xlink:href="#DejaVuSans-115"/>
       <use x="449.072266" xlink:href="#DejaVuSans-32"/>
       <use x="480.859375" xlink:href="#DejaVuSans-60"/>
       <use x="564.648438" xlink:href="#DejaVuSans-32"/>
       <use x="596.435547" xlink:href="#DejaVuSans-50"/>
       <use x="660.058594" xlink:href="#DejaVuSans-46"/>
       <use x="691.845703" xlink:href="#DejaVuSans-53"/>
      </g>
     </g>
    </g>
    <g id="xtick_13">
     <g id="text_23">
      <!-- 2.5 ≤ TIs &lt; 3.0 -->
      <g style="fill:#262626;" transform="translate(532.347027 364.711509)rotate(-45)scale(0.1 -0.1)">
       <use xlink:href="#DejaVuSans-50"/>
       <use x="63.623047" xlink:href="#DejaVuSans-46"/>
       <use x="95.410156" xlink:href="#DejaVuSans-53"/>
       <use x="159.033203" xlink:href="#DejaVuSans-32"/>
       <use x="190.820312" xlink:href="#DejaVuSans-8804"/>
       <use x="274.609375" xlink:href="#DejaVuSans-32"/>
       <use x="306.396484" xlink:href="#DejaVuSans-84"/>
       <use x="367.480469" xlink:href="#DejaVuSans-73"/>
       <use x="396.972656" xlink:href="#DejaVuSans-115"/>
       <use x="449.072266" xlink:href="#DejaVuSans-32"/>
       <use x="480.859375" xlink:href="#DejaVuSans-60"/>
       <use x="564.648438" xlink:href="#DejaVuSans-32"/>
       <use x="596.435547" xlink:href="#DejaVuSans-51"/>
       <use x="660.058594" xlink:href="#DejaVuSans-46"/>
       <use x="691.845703" xlink:href="#DejaVuSans-48"/>
      </g>
     </g>
    </g>
    <g id="xtick_14">
     <g id="text_24">
      <!-- 3.0 ≤ TIs -->
      <g style="fill:#262626;" transform="translate(591.900211 343.046421)rotate(-45)scale(0.1 -0.1)">
       <use xlink:href="#DejaVuSans-51"/>
       <use x="63.623047" xlink:href="#DejaVuSans-46"/>
       <use x="95.410156" xlink:href="#DejaVuSans-48"/>
       <use x="159.033203" xlink:href="#DejaVuSans-32"/>
       <use x="190.820312" xlink:href="#DejaVuSans-8804"/>
       <use x="274.609375" xlink:href="#DejaVuSans-32"/>
       <use x="306.396484" xlink:href="#DejaVuSans-84"/>
       <use x="367.480469" xlink:href="#DejaVuSans-73"/>
       <use x="396.972656" xlink:href="#DejaVuSans-115"/>
      </g>
     </g>
    </g>
    <g id="text_25">
     <!-- Thermal Index soft-tissue (TIs) interval -->
     <defs>
      <path d="M 4.890625 31.390625 
L 31.203125 31.390625 
L 31.203125 23.390625 
L 4.890625 23.390625 
z
" id="DejaVuSans-45"/>
      <path d="M 8.5 21.578125 
L 8.5 54.6875 
L 17.484375 54.6875 
L 17.484375 21.921875 
Q 17.484375 14.15625 20.5 10.265625 
Q 23.53125 6.390625 29.59375 6.390625 
Q 36.859375 6.390625 41.078125 11.03125 
Q 45.3125 15.671875 45.3125 23.6875 
L 45.3125 54.6875 
L 54.296875 54.6875 
L 54.296875 0 
L 45.3125 0 
L 45.3125 8.40625 
Q 42.046875 3.421875 37.71875 1 
Q 33.40625 -1.421875 27.6875 -1.421875 
Q 18.265625 -1.421875 13.375 4.4375 
Q 8.5 10.296875 8.5 21.578125 
z
M 31.109375 56 
z
" id="DejaVuSans-117"/>
     </defs>
     <g style="fill:#262626;" transform="translate(414.484219 377.780508)scale(0.1 -0.1)">
      <use xlink:href="#DejaVuSans-84"/>
      <use x="61.083984" xlink:href="#DejaVuSans-104"/>
      <use x="124.462891" xlink:href="#DejaVuSans-101"/>
      <use x="185.986328" xlink:href="#DejaVuSans-114"/>
      <use x="227.083984" xlink:href="#DejaVuSans-109"/>
      <use x="324.496094" xlink:href="#DejaVuSans-97"/>
      <use x="385.775391" xlink:href="#DejaVuSans-108"/>
      <use x="413.558594" xlink:href="#DejaVuSans-32"/>
      <use x="445.345703" xlink:href="#DejaVuSans-73"/>
      <use x="474.837891" xlink:href="#DejaVuSans-110"/>
      <use x="538.216797" xlink:href="#DejaVuSans-100"/>
      <use x="601.693359" xlink:href="#DejaVuSans-101"/>
      <use x="663.201172" xlink:href="#DejaVuSans-120"/>
      <use x="722.380859" xlink:href="#DejaVuSans-32"/>
      <use x="754.167969" xlink:href="#DejaVuSans-115"/>
      <use x="806.267578" xlink:href="#DejaVuSans-111"/>
      <use x="867.449219" xlink:href="#DejaVuSans-102"/>
      <use x="902.638672" xlink:href="#DejaVuSans-116"/>
      <use x="941.847656" xlink:href="#DejaVuSans-45"/>
      <use x="977.931641" xlink:href="#DejaVuSans-116"/>
      <use x="1017.140625" xlink:href="#DejaVuSans-105"/>
      <use x="1044.923828" xlink:href="#DejaVuSans-115"/>
      <use x="1097.023438" xlink:href="#DejaVuSans-115"/>
      <use x="1149.123047" xlink:href="#DejaVuSans-117"/>
      <use x="1212.501953" xlink:href="#DejaVuSans-101"/>
      <use x="1274.025391" xlink:href="#DejaVuSans-32"/>
      <use x="1305.8125" xlink:href="#DejaVuSans-40"/>
      <use x="1344.826172" xlink:href="#DejaVuSans-84"/>
      <use x="1405.910156" xlink:href="#DejaVuSans-73"/>
      <use x="1435.402344" xlink:href="#DejaVuSans-115"/>
      <use x="1487.501953" xlink:href="#DejaVuSans-41"/>
      <use x="1526.515625" xlink:href="#DejaVuSans-32"/>
      <use x="1558.302734" xlink:href="#DejaVuSans-105"/>
      <use x="1586.085938" xlink:href="#DejaVuSans-110"/>
      <use x="1649.464844" xlink:href="#DejaVuSans-116"/>
      <use x="1688.673828" xlink:href="#DejaVuSans-101"/>
      <use x="1750.197266" xlink:href="#DejaVuSans-114"/>
      <use x="1791.310547" xlink:href="#DejaVuSans-118"/>
      <use x="1850.490234" xlink:href="#DejaVuSans-97"/>
      <use x="1911.769531" xlink:href="#DejaVuSans-108"/>
     </g>
    </g>
   </g>
   <g id="matplotlib.axis_4">
    <g id="ytick_6">
     <g id="line2d_15">
      <path clip-path="url(#p4a3586bd2c)" d="M 378.851667 287.234841 
L 644.068333 287.234841 
" style="fill:none;stroke:#cccccc;stroke-width:0.8;"/>
     </g>
    </g>
    <g id="ytick_7">
     <g id="line2d_16">
      <path clip-path="url(#p4a3586bd2c)" d="M 378.851667 244.44914 
L 644.068333 244.44914 
" style="fill:none;stroke:#cccccc;stroke-width:0.8;"/>
     </g>
    </g>
    <g id="ytick_8">
     <g id="line2d_17">
      <path clip-path="url(#p4a3586bd2c)" d="M 378.851667 201.663439 
L 644.068333 201.663439 
" style="fill:none;stroke:#cccccc;stroke-width:0.8;"/>
     </g>
    </g>
    <g id="ytick_9">
     <g id="line2d_18">
      <path clip-path="url(#p4a3586bd2c)" d="M 378.851667 158.877738 
L 644.068333 158.877738 
" style="fill:none;stroke:#cccccc;stroke-width:0.8;"/>
     </g>
    </g>
    <g id="ytick_10">
     <g id="line2d_19">
      <path clip-path="url(#p4a3586bd2c)" d="M 378.851667 116.092037 
L 644.068333 116.092037 
" style="fill:none;stroke:#cccccc;stroke-width:0.8;"/>
     </g>
    </g>
   </g>
   <g id="PathCollection_7">
    <path clip-path="url(#p4a3586bd2c)" d="M 387.559414 101.42344 
L 392.876776 101.42344 
L 392.876776 96.106078 
L 387.559414 96.106078 
z
" style="fill:#ffffff;stroke:#1f77b4;stroke-width:0.75;"/>
    <path clip-path="url(#p4a3586bd2c)" d="M 425.44751 271.759845 
L 430.764871 271.759845 
L 430.764871 266.442484 
L 425.44751 266.442484 
z
" style="fill:#ffffff;stroke:#1f77b4;stroke-width:0.75;"/>
    <path clip-path="url(#p4a3586bd2c)" d="M 463.335605 282.568775 
L 468.652966 282.568775 
L 468.652966 277.251413 
L 463.335605 277.251413 
z
" style="fill:#ffffff;stroke:#1f77b4;stroke-width:0.75;"/>
    <path clip-path="url(#p4a3586bd2c)" d="M 501.2237 289.893522 
L 506.541062 289.893522 
L 506.541062 284.57616 
L 501.2237 284.57616 
z
" style="fill:#ffffff;stroke:#1f77b4;stroke-width:0.75;"/>
    <path clip-path="url(#p4a3586bd2c)" d="M 539.111795 289.893522 
L 544.429157 289.893522 
L 544.429157 284.57616 
L 539.111795 284.57616 
z
" style="fill:#ffffff;stroke:#1f77b4;stroke-width:0.75;"/>
    <path clip-path="url(#p4a3586bd2c)" d="M 576.999891 289.893522 
L 582.317252 289.893522 
L 582.317252 284.57616 
L 576.999891 284.57616 
z
" style="fill:#ffffff;stroke:#1f77b4;stroke-width:0.75;"/>
    <path clip-path="url(#p4a3586bd2c)" d="M 614.887986 289.893522 
L 620.205347 289.893522 
L 620.205347 284.57616 
L 614.887986 284.57616 
z
" style="fill:#ffffff;stroke:#1f77b4;stroke-width:0.75;"/>
   </g>
   <g id="line2d_20">
    <path clip-path="url(#p4a3586bd2c)" d="M 390.218095 98.764759 
L 428.10619 269.101165 
L 465.994286 279.910094 
L 503.882381 287.234841 
L 541.770476 287.234841 
L 579.658571 287.234841 
L 617.546667 287.234841 
" style="fill:none;stroke:#1f77b4;stroke-dasharray:2.775,1.2;stroke-dashoffset:0;stroke-width:0.75;"/>
   </g>
   <g id="PathCollection_8">
    <defs>
     <path d="M 0 2.658681 
C 0.70509 2.658681 1.381397 2.378545 1.879971 1.879971 
C 2.378545 1.381397 2.658681 0.70509 2.658681 0 
C 2.658681 -0.70509 2.378545 -1.381397 1.879971 -1.879971 
C 1.381397 -2.378545 0.70509 -2.658681 0 -2.658681 
C -0.70509 -2.658681 -1.381397 -2.378545 -1.879971 -1.879971 
C -2.378545 -1.381397 -2.658681 -0.70509 -2.658681 0 
C -2.658681 0.70509 -2.378545 1.381397 -1.879971 1.879971 
C -1.381397 2.378545 -0.70509 2.658681 0 2.658681 
z
" id="C1_0_5e690dc93d"/>
    </defs>
    <g clip-path="url(#p4a3586bd2c)">
     <use style="fill:#ffffff;stroke:#ff7f0e;stroke-width:0.75;" x="397.795714" xlink:href="#C1_0_5e690dc93d" y="95.626097"/>
    </g>
    <g clip-path="url(#p4a3586bd2c)">
     <use style="fill:#ffffff;stroke:#ff7f0e;stroke-width:0.75;" x="435.68381" xlink:href="#C1_0_5e690dc93d" y="265.301674"/>
    </g>
    <g clip-path="url(#p4a3586bd2c)">
     <use style="fill:#ffffff;stroke:#ff7f0e;stroke-width:0.75;" x="473.571905" xlink:href="#C1_0_5e690dc93d" y="286.848247"/>
    </g>
    <g clip-path="url(#p4a3586bd2c)">
     <use style="fill:#ffffff;stroke:#ff7f0e;stroke-width:0.75;" x="511.46" xlink:href="#C1_0_5e690dc93d" y="287.234841"/>
    </g>
    <g clip-path="url(#p4a3586bd2c)">
     <use style="fill:#ffffff;stroke:#ff7f0e;stroke-width:0.75;" x="549.348095" xlink:href="#C1_0_5e690dc93d" y="287.234841"/>
    </g>
    <g clip-path="url(#p4a3586bd2c)">
     <use style="fill:#ffffff;stroke:#ff7f0e;stroke-width:0.75;" x="587.23619" xlink:href="#C1_0_5e690dc93d" y="287.234841"/>
    </g>
    <g clip-path="url(#p4a3586bd2c)">
     <use style="fill:#ffffff;stroke:#ff7f0e;stroke-width:0.75;" x="625.124286" xlink:href="#C1_0_5e690dc93d" y="287.234841"/>
    </g>
   </g>
   <g id="line2d_21">
    <path clip-path="url(#p4a3586bd2c)" d="M 397.795714 95.626097 
L 435.68381 265.301674 
L 473.571905 286.848247 
L 511.46 287.234841 
L 549.348095 287.234841 
L 587.23619 287.234841 
L 625.124286 287.234841 
" style="fill:none;stroke:#ff7f0e;stroke-dasharray:4.8,1.2,0.75,1.2;stroke-dashoffset:0;stroke-width:0.75;"/>
   </g>
   <g id="line2d_22">
    <path clip-path="url(#p4a3586bd2c)" d="M 416.739762 298.92 
L 416.739762 83.96 
" style="fill:none;stroke:#cccccc;stroke-width:0.5;"/>
   </g>
   <g id="line2d_23">
    <path clip-path="url(#p4a3586bd2c)" d="M 454.627857 298.92 
L 454.627857 83.96 
" style="fill:none;stroke:#cccccc;stroke-width:0.5;"/>
   </g>
   <g id="line2d_24">
    <path clip-path="url(#p4a3586bd2c)" d="M 492.515952 298.92 
L 492.515952 83.96 
" style="fill:none;stroke:#cccccc;stroke-width:0.5;"/>
   </g>
   <g id="line2d_25">
    <path clip-path="url(#p4a3586bd2c)" d="M 530.404048 298.92 
L 530.404048 83.96 
" style="fill:none;stroke:#cccccc;stroke-width:0.5;"/>
   </g>
   <g id="line2d_26">
    <path clip-path="url(#p4a3586bd2c)" d="M 568.292143 298.92 
L 568.292143 83.96 
" style="fill:none;stroke:#cccccc;stroke-width:0.5;"/>
   </g>
   <g id="line2d_27">
    <path clip-path="url(#p4a3586bd2c)" d="M 606.180238 298.92 
L 606.180238 83.96 
" style="fill:none;stroke:#cccccc;stroke-width:0.5;"/>
   </g>
   <g id="patch_8">
    <path d="M 378.851667 298.92 
L 378.851667 83.96 
" style="fill:none;stroke:#cccccc;stroke-linecap:square;stroke-linejoin:miter;stroke-width:0.8;"/>
   </g>
   <g id="patch_9">
    <path d="M 644.068333 298.92 
L 644.068333 83.96 
" style="fill:none;stroke:#cccccc;stroke-linecap:square;stroke-linejoin:miter;stroke-width:0.8;"/>
   </g>
   <g id="patch_10">
    <path d="M 378.851667 298.92 
L 644.068333 298.92 
" style="fill:none;stroke:#cccccc;stroke-linecap:square;stroke-linejoin:miter;stroke-width:0.8;"/>
   </g>
   <g id="patch_11">
    <path d="M 378.851667 83.96 
L 644.068333 83.96 
" style="fill:none;stroke:#cccccc;stroke-linecap:square;stroke-linejoin:miter;stroke-width:0.8;"/>
   </g>
   <g id="PathCollection_9">
    <path clip-path="url(#p4a3586bd2c)" d="M 405.373333 107.955078 
L 402.714653 113.27244 
L 408.032014 113.27244 
z
" style="fill:#ffffff;stroke:#2ca02c;stroke-width:0.75;"/>
    <path clip-path="url(#p4a3586bd2c)" d="M 443.261429 249.533743 
L 440.602748 254.851105 
L 445.920109 254.851105 
z
" style="fill:#ffffff;stroke:#2ca02c;stroke-width:0.75;"/>
    <path clip-path="url(#p4a3586bd2c)" d="M 481.149524 282.311154 
L 478.490843 287.628516 
L 483.808205 287.628516 
z
" style="fill:#ffffff;stroke:#2ca02c;stroke-width:0.75;"/>
    <path clip-path="url(#p4a3586bd2c)" d="M 519.037619 284.57616 
L 516.378938 289.893522 
L 521.6963 289.893522 
z
" style="fill:#ffffff;stroke:#2ca02c;stroke-width:0.75;"/>
    <path clip-path="url(#p4a3586bd2c)" d="M 556.925714 284.57616 
L 554.267034 289.893522 
L 559.584395 289.893522 
z
" style="fill:#ffffff;stroke:#2ca02c;stroke-width:0.75;"/>
    <path clip-path="url(#p4a3586bd2c)" d="M 594.81381 284.57616 
L 592.155129 289.893522 
L 597.47249 289.893522 
z
" style="fill:#ffffff;stroke:#2ca02c;stroke-width:0.75;"/>
    <path clip-path="url(#p4a3586bd2c)" d="M 632.701905 284.57616 
L 630.043224 289.893522 
L 635.360586 289.893522 
z
" style="fill:#ffffff;stroke:#2ca02c;stroke-width:0.75;"/>
   </g>
   <g id="line2d_28">
    <path clip-path="url(#p4a3586bd2c)" d="M 405.373333 110.613759 
L 443.261429 252.192424 
L 481.149524 284.969835 
L 519.037619 287.234841 
L 556.925714 287.234841 
L 594.81381 287.234841 
L 632.701905 287.234841 
" style="fill:none;stroke:#2ca02c;stroke-dasharray:0.75,1.2375;stroke-dashoffset:0;stroke-width:0.75;"/>
   </g>
  </g>
  <g id="axes_3">
   <g id="patch_12">
    <path d="M 654.863333 298.92 
L 920.08 298.92 
L 920.08 83.96 
L 654.863333 83.96 
z
" style="fill:#ffffff;"/>
   </g>
   <g id="matplotlib.axis_5">
    <g id="xtick_15">
     <g id="text_26">
      <!-- 0 ≤ MI &lt; 0.3 -->
      <defs>
       <path d="M 9.8125 72.90625 
L 24.515625 72.90625 
L 43.109375 23.296875 
L 61.8125 72.90625 
L 76.515625 72.90625 
L 76.515625 0 
L 66.890625 0 
L 66.890625 64.015625 
L 48.09375 14.015625 
L 38.1875 14.015625 
L 19.390625 64.015625 
L 19.390625 0 
L 9.8125 0 
z
" id="DejaVuSans-77"/>
      </defs>
      <g style="fill:#262626;" transform="translate(625.197906 356.063814)rotate(-45)scale(0.1 -0.1)">
       <use xlink:href="#DejaVuSans-48"/>
       <use x="63.623047" xlink:href="#DejaVuSans-32"/>
       <use x="95.410156" xlink:href="#DejaVuSans-8804"/>
       <use x="179.199219" xlink:href="#DejaVuSans-32"/>
       <use x="210.986328" xlink:href="#DejaVuSans-77"/>
       <use x="297.265625" xlink:href="#DejaVuSans-73"/>
       <use x="326.757812" xlink:href="#DejaVuSans-32"/>
       <use x="358.544922" xlink:href="#DejaVuSans-60"/>
       <use x="442.333984" xlink:href="#DejaVuSans-32"/>
       <use x="474.121094" xlink:href="#DejaVuSans-48"/>
       <use x="537.744141" xlink:href="#DejaVuSans-46"/>
       <use x="569.53125" xlink:href="#DejaVuSans-51"/>
      </g>
     </g>
    </g>
    <g id="xtick_16">
     <g id="text_27">
      <!-- 0.3 ≤ MI &lt; 0.7 -->
      <g style="fill:#262626;" transform="translate(651.603749 362.810055)rotate(-45)scale(0.1 -0.1)">
       <use xlink:href="#DejaVuSans-48"/>
       <use x="63.623047" xlink:href="#DejaVuSans-46"/>
       <use x="95.410156" xlink:href="#DejaVuSans-51"/>
       <use x="159.033203" xlink:href="#DejaVuSans-32"/>
       <use x="190.820312" xlink:href="#DejaVuSans-8804"/>
       <use x="274.609375" xlink:href="#DejaVuSans-32"/>
       <use x="306.396484" xlink:href="#DejaVuSans-77"/>
       <use x="392.675781" xlink:href="#DejaVuSans-73"/>
       <use x="422.167969" xlink:href="#DejaVuSans-32"/>
       <use x="453.955078" xlink:href="#DejaVuSans-60"/>
       <use x="537.744141" xlink:href="#DejaVuSans-32"/>
       <use x="569.53125" xlink:href="#DejaVuSans-48"/>
       <use x="633.154297" xlink:href="#DejaVuSans-46"/>
       <use x="664.941406" xlink:href="#DejaVuSans-55"/>
      </g>
     </g>
    </g>
    <g id="xtick_17">
     <g id="text_28">
      <!-- 0.7 ≤ MI &lt; 1.0 -->
      <g style="fill:#262626;" transform="translate(684.755832 362.810055)rotate(-45)scale(0.1 -0.1)">
       <use xlink:href="#DejaVuSans-48"/>
       <use x="63.623047" xlink:href="#DejaVuSans-46"/>
       <use x="95.410156" xlink:href="#DejaVuSans-55"/>
       <use x="159.033203" xlink:href="#DejaVuSans-32"/>
       <use x="190.820312" xlink:href="#DejaVuSans-8804"/>
       <use x="274.609375" xlink:href="#DejaVuSans-32"/>
       <use x="306.396484" xlink:href="#DejaVuSans-77"/>
       <use x="392.675781" xlink:href="#DejaVuSans-73"/>
       <use x="422.167969" xlink:href="#DejaVuSans-32"/>
       <use x="453.955078" xlink:href="#DejaVuSans-60"/>
       <use x="537.744141" xlink:href="#DejaVuSans-32"/>
       <use x="569.53125" xlink:href="#DejaVuSans-49"/>
       <use x="633.154297" xlink:href="#DejaVuSans-46"/>
       <use x="664.941406" xlink:href="#DejaVuSans-48"/>
      </g>
     </g>
    </g>
    <g id="xtick_18">
     <g id="text_29">
      <!-- 1.0 ≤ MI &lt; 1.5 -->
      <g style="fill:#262626;" transform="translate(717.907915 362.810055)rotate(-45)scale(0.1 -0.1)">
       <use xlink:href="#DejaVuSans-49"/>
       <use x="63.623047" xlink:href="#DejaVuSans-46"/>
       <use x="95.410156" xlink:href="#DejaVuSans-48"/>
       <use x="159.033203" xlink:href="#DejaVuSans-32"/>
       <use x="190.820312" xlink:href="#DejaVuSans-8804"/>
       <use x="274.609375" xlink:href="#DejaVuSans-32"/>
       <use x="306.396484" xlink:href="#DejaVuSans-77"/>
       <use x="392.675781" xlink:href="#DejaVuSans-73"/>
       <use x="422.167969" xlink:href="#DejaVuSans-32"/>
       <use x="453.955078" xlink:href="#DejaVuSans-60"/>
       <use x="537.744141" xlink:href="#DejaVuSans-32"/>
       <use x="569.53125" xlink:href="#DejaVuSans-49"/>
       <use x="633.154297" xlink:href="#DejaVuSans-46"/>
       <use x="664.941406" xlink:href="#DejaVuSans-53"/>
      </g>
     </g>
    </g>
    <g id="xtick_19">
     <g id="text_30">
      <!-- 1.5 ≤ MI &lt; 2.0 -->
      <g style="fill:#262626;" transform="translate(751.059999 362.810055)rotate(-45)scale(0.1 -0.1)">
       <use xlink:href="#DejaVuSans-49"/>
       <use x="63.623047" xlink:href="#DejaVuSans-46"/>
       <use x="95.410156" xlink:href="#DejaVuSans-53"/>
       <use x="159.033203" xlink:href="#DejaVuSans-32"/>
       <use x="190.820312" xlink:href="#DejaVuSans-8804"/>
       <use x="274.609375" xlink:href="#DejaVuSans-32"/>
       <use x="306.396484" xlink:href="#DejaVuSans-77"/>
       <use x="392.675781" xlink:href="#DejaVuSans-73"/>
       <use x="422.167969" xlink:href="#DejaVuSans-32"/>
       <use x="453.955078" xlink:href="#DejaVuSans-60"/>
       <use x="537.744141" xlink:href="#DejaVuSans-32"/>
       <use x="569.53125" xlink:href="#DejaVuSans-50"/>
       <use x="633.154297" xlink:href="#DejaVuSans-46"/>
       <use x="664.941406" xlink:href="#DejaVuSans-48"/>
      </g>
     </g>
    </g>
    <g id="xtick_20">
     <g id="text_31">
      <!-- 2.0 ≤ MI &lt; 2.5 -->
      <g style="fill:#262626;" transform="translate(784.212082 362.810055)rotate(-45)scale(0.1 -0.1)">
       <use xlink:href="#DejaVuSans-50"/>
       <use x="63.623047" xlink:href="#DejaVuSans-46"/>
       <use x="95.410156" xlink:href="#DejaVuSans-48"/>
       <use x="159.033203" xlink:href="#DejaVuSans-32"/>
       <use x="190.820312" xlink:href="#DejaVuSans-8804"/>
       <use x="274.609375" xlink:href="#DejaVuSans-32"/>
       <use x="306.396484" xlink:href="#DejaVuSans-77"/>
       <use x="392.675781" xlink:href="#DejaVuSans-73"/>
       <use x="422.167969" xlink:href="#DejaVuSans-32"/>
       <use x="453.955078" xlink:href="#DejaVuSans-60"/>
       <use x="537.744141" xlink:href="#DejaVuSans-32"/>
       <use x="569.53125" xlink:href="#DejaVuSans-50"/>
       <use x="633.154297" xlink:href="#DejaVuSans-46"/>
       <use x="664.941406" xlink:href="#DejaVuSans-53"/>
      </g>
     </g>
    </g>
    <g id="xtick_21">
     <g id="text_32">
      <!-- 2.5 ≤ MI &lt; 3.0 -->
      <g style="fill:#262626;" transform="translate(817.364165 362.810055)rotate(-45)scale(0.1 -0.1)">
       <use xlink:href="#DejaVuSans-50"/>
       <use x="63.623047" xlink:href="#DejaVuSans-46"/>
       <use x="95.410156" xlink:href="#DejaVuSans-53"/>
       <use x="159.033203" xlink:href="#DejaVuSans-32"/>
       <use x="190.820312" xlink:href="#DejaVuSans-8804"/>
       <use x="274.609375" xlink:href="#DejaVuSans-32"/>
       <use x="306.396484" xlink:href="#DejaVuSans-77"/>
       <use x="392.675781" xlink:href="#DejaVuSans-73"/>
       <use x="422.167969" xlink:href="#DejaVuSans-32"/>
       <use x="453.955078" xlink:href="#DejaVuSans-60"/>
       <use x="537.744141" xlink:href="#DejaVuSans-32"/>
       <use x="569.53125" xlink:href="#DejaVuSans-51"/>
       <use x="633.154297" xlink:href="#DejaVuSans-46"/>
       <use x="664.941406" xlink:href="#DejaVuSans-48"/>
      </g>
     </g>
    </g>
    <g id="xtick_22">
     <g id="text_33">
      <!-- 3.0 ≤ MI -->
      <g style="fill:#262626;" transform="translate(872.181338 341.144966)rotate(-45)scale(0.1 -0.1)">
       <use xlink:href="#DejaVuSans-51"/>
       <use x="63.623047" xlink:href="#DejaVuSans-46"/>
       <use x="95.410156" xlink:href="#DejaVuSans-48"/>
       <use x="159.033203" xlink:href="#DejaVuSans-32"/>
       <use x="190.820312" xlink:href="#DejaVuSans-8804"/>
       <use x="274.609375" xlink:href="#DejaVuSans-32"/>
       <use x="306.396484" xlink:href="#DejaVuSans-77"/>
       <use x="392.675781" xlink:href="#DejaVuSans-73"/>
      </g>
     </g>
    </g>
    <g id="text_34">
     <!-- Mechanical Index (MI) interval -->
     <g style="fill:#262626;" transform="translate(711.965417 375.879054)scale(0.1 -0.1)">
      <use xlink:href="#DejaVuSans-77"/>
      <use x="86.279297" xlink:href="#DejaVuSans-101"/>
      <use x="147.802734" xlink:href="#DejaVuSans-99"/>
      <use x="202.783203" xlink:href="#DejaVuSans-104"/>
      <use x="266.162109" xlink:href="#DejaVuSans-97"/>
      <use x="327.441406" xlink:href="#DejaVuSans-110"/>
      <use x="390.820312" xlink:href="#DejaVuSans-105"/>
      <use x="418.603516" xlink:href="#DejaVuSans-99"/>
      <use x="473.583984" xlink:href="#DejaVuSans-97"/>
      <use x="534.863281" xlink:href="#DejaVuSans-108"/>
      <use x="562.646484" xlink:href="#DejaVuSans-32"/>
      <use x="594.433594" xlink:href="#DejaVuSans-73"/>
      <use x="623.925781" xlink:href="#DejaVuSans-110"/>
      <use x="687.304688" xlink:href="#DejaVuSans-100"/>
      <use x="750.78125" xlink:href="#DejaVuSans-101"/>
      <use x="812.289062" xlink:href="#DejaVuSans-120"/>
      <use x="871.46875" xlink:href="#DejaVuSans-32"/>
      <use x="903.255859" xlink:href="#DejaVuSans-40"/>
      <use x="942.269531" xlink:href="#DejaVuSans-77"/>
      <use x="1028.548828" xlink:href="#DejaVuSans-73"/>
      <use x="1058.041016" xlink:href="#DejaVuSans-41"/>
      <use x="1097.054688" xlink:href="#DejaVuSans-32"/>
      <use x="1128.841797" xlink:href="#DejaVuSans-105"/>
      <use x="1156.625" xlink:href="#DejaVuSans-110"/>
      <use x="1220.003906" xlink:href="#DejaVuSans-116"/>
      <use x="1259.212891" xlink:href="#DejaVuSans-101"/>
      <use x="1320.736328" xlink:href="#DejaVuSans-114"/>
      <use x="1361.849609" xlink:href="#DejaVuSans-118"/>
      <use x="1421.029297" xlink:href="#DejaVuSans-97"/>
      <use x="1482.308594" xlink:href="#DejaVuSans-108"/>
     </g>
    </g>
   </g>
   <g id="matplotlib.axis_6">
    <g id="ytick_11">
     <g id="line2d_29">
      <path clip-path="url(#pd0560686ca)" d="M 654.863333 287.234841 
L 920.08 287.234841 
" style="fill:none;stroke:#cccccc;stroke-width:0.8;"/>
     </g>
    </g>
    <g id="ytick_12">
     <g id="line2d_30">
      <path clip-path="url(#pd0560686ca)" d="M 654.863333 244.44914 
L 920.08 244.44914 
" style="fill:none;stroke:#cccccc;stroke-width:0.8;"/>
     </g>
    </g>
    <g id="ytick_13">
     <g id="line2d_31">
      <path clip-path="url(#pd0560686ca)" d="M 654.863333 201.663439 
L 920.08 201.663439 
" style="fill:none;stroke:#cccccc;stroke-width:0.8;"/>
     </g>
    </g>
    <g id="ytick_14">
     <g id="line2d_32">
      <path clip-path="url(#pd0560686ca)" d="M 654.863333 158.877738 
L 920.08 158.877738 
" style="fill:none;stroke:#cccccc;stroke-width:0.8;"/>
     </g>
    </g>
    <g id="ytick_15">
     <g id="line2d_33">
      <path clip-path="url(#pd0560686ca)" d="M 654.863333 116.092037 
L 920.08 116.092037 
" style="fill:none;stroke:#cccccc;stroke-width:0.8;"/>
     </g>
    </g>
   </g>
   <g id="PathCollection_10">
    <path clip-path="url(#pd0560686ca)" d="M 662.150278 289.893522 
L 667.467639 289.893522 
L 667.467639 284.57616 
L 662.150278 284.57616 
z
" style="fill:#ffffff;stroke:#1f77b4;stroke-width:0.75;"/>
    <path clip-path="url(#pd0560686ca)" d="M 695.302361 264.626527 
L 700.619722 264.626527 
L 700.619722 259.309165 
L 695.302361 259.309165 
z
" style="fill:#ffffff;stroke:#1f77b4;stroke-width:0.75;"/>
    <path clip-path="url(#pd0560686ca)" d="M 728.454444 110.286831 
L 733.771806 110.286831 
L 733.771806 104.969469 
L 728.454444 104.969469 
z
" style="fill:#ffffff;stroke:#1f77b4;stroke-width:0.75;"/>
    <path clip-path="url(#pd0560686ca)" d="M 761.606528 280.838702 
L 766.923889 280.838702 
L 766.923889 275.521341 
L 761.606528 275.521341 
z
" style="fill:#ffffff;stroke:#1f77b4;stroke-width:0.75;"/>
    <path clip-path="url(#pd0560686ca)" d="M 794.758611 289.893522 
L 800.075972 289.893522 
L 800.075972 284.57616 
L 794.758611 284.57616 
z
" style="fill:#ffffff;stroke:#1f77b4;stroke-width:0.75;"/>
    <path clip-path="url(#pd0560686ca)" d="M 827.910694 289.893522 
L 833.228056 289.893522 
L 833.228056 284.57616 
L 827.910694 284.57616 
z
" style="fill:#ffffff;stroke:#1f77b4;stroke-width:0.75;"/>
    <path clip-path="url(#pd0560686ca)" d="M 861.062778 289.893522 
L 866.380139 289.893522 
L 866.380139 284.57616 
L 861.062778 284.57616 
z
" style="fill:#ffffff;stroke:#1f77b4;stroke-width:0.75;"/>
    <path clip-path="url(#pd0560686ca)" d="M 894.214861 289.893522 
L 899.532222 289.893522 
L 899.532222 284.57616 
L 894.214861 284.57616 
z
" style="fill:#ffffff;stroke:#1f77b4;stroke-width:0.75;"/>
   </g>
   <g id="line2d_34">
    <path clip-path="url(#pd0560686ca)" d="M 664.808958 287.234841 
L 697.961042 261.967846 
L 731.113125 107.62815 
L 764.265208 278.180022 
L 797.417292 287.234841 
L 830.569375 287.234841 
L 863.721458 287.234841 
L 896.873542 287.234841 
" style="fill:none;stroke:#1f77b4;stroke-dasharray:2.775,1.2;stroke-dashoffset:0;stroke-width:0.75;"/>
   </g>
   <g id="PathCollection_11">
    <defs>
     <path d="M 0 2.658681 
C 0.70509 2.658681 1.381397 2.378545 1.879971 1.879971 
C 2.378545 1.381397 2.658681 0.70509 2.658681 0 
C 2.658681 -0.70509 2.378545 -1.381397 1.879971 -1.879971 
C 1.381397 -2.378545 0.70509 -2.658681 0 -2.658681 
C -0.70509 -2.658681 -1.381397 -2.378545 -1.879971 -1.879971 
C -2.378545 -1.381397 -2.658681 -0.70509 -2.658681 0 
C -2.658681 0.70509 -2.378545 1.381397 -1.879971 1.879971 
C -1.381397 2.378545 -0.70509 2.658681 0 2.658681 
z
" id="C2_0_87f6a2c3b7"/>
    </defs>
    <g clip-path="url(#pd0560686ca)">
     <use style="fill:#ffffff;stroke:#ff7f0e;stroke-width:0.75;" x="671.439375" xlink:href="#C2_0_87f6a2c3b7" y="287.234841"/>
    </g>
    <g clip-path="url(#pd0560686ca)">
     <use style="fill:#ffffff;stroke:#ff7f0e;stroke-width:0.75;" x="704.591458" xlink:href="#C2_0_87f6a2c3b7" y="215.228294"/>
    </g>
    <g clip-path="url(#pd0560686ca)">
     <use style="fill:#ffffff;stroke:#ff7f0e;stroke-width:0.75;" x="737.743542" xlink:href="#C2_0_87f6a2c3b7" y="152.202794"/>
    </g>
    <g clip-path="url(#pd0560686ca)">
     <use style="fill:#ffffff;stroke:#ff7f0e;stroke-width:0.75;" x="770.895625" xlink:href="#C2_0_87f6a2c3b7" y="280.344929"/>
    </g>
    <g clip-path="url(#pd0560686ca)">
     <use style="fill:#ffffff;stroke:#ff7f0e;stroke-width:0.75;" x="804.047708" xlink:href="#C2_0_87f6a2c3b7" y="287.234841"/>
    </g>
    <g clip-path="url(#pd0560686ca)">
     <use style="fill:#ffffff;stroke:#ff7f0e;stroke-width:0.75;" x="837.199792" xlink:href="#C2_0_87f6a2c3b7" y="287.234841"/>
    </g>
    <g clip-path="url(#pd0560686ca)">
     <use style="fill:#ffffff;stroke:#ff7f0e;stroke-width:0.75;" x="870.351875" xlink:href="#C2_0_87f6a2c3b7" y="287.234841"/>
    </g>
    <g clip-path="url(#pd0560686ca)">
     <use style="fill:#ffffff;stroke:#ff7f0e;stroke-width:0.75;" x="903.503958" xlink:href="#C2_0_87f6a2c3b7" y="287.234841"/>
    </g>
   </g>
   <g id="line2d_35">
    <path clip-path="url(#pd0560686ca)" d="M 671.439375 287.234841 
L 704.591458 215.228294 
L 737.743542 152.202794 
L 770.895625 280.344929 
L 804.047708 287.234841 
L 837.199792 287.234841 
L 870.351875 287.234841 
L 903.503958 287.234841 
" style="fill:none;stroke:#ff7f0e;stroke-dasharray:4.8,1.2,0.75,1.2;stroke-dashoffset:0;stroke-width:0.75;"/>
   </g>
   <g id="line2d_36">
    <path clip-path="url(#pd0560686ca)" d="M 688.015417 298.92 
L 688.015417 83.96 
" style="fill:none;stroke:#cccccc;stroke-width:0.5;"/>
   </g>
   <g id="line2d_37">
    <path clip-path="url(#pd0560686ca)" d="M 721.1675 298.92 
L 721.1675 83.96 
" style="fill:none;stroke:#cccccc;stroke-width:0.5;"/>
   </g>
   <g id="line2d_38">
    <path clip-path="url(#pd0560686ca)" d="M 754.319583 298.92 
L 754.319583 83.96 
" style="fill:none;stroke:#cccccc;stroke-width:0.5;"/>
   </g>
   <g id="line2d_39">
    <path clip-path="url(#pd0560686ca)" d="M 787.471667 298.92 
L 787.471667 83.96 
" style="fill:none;stroke:#cccccc;stroke-width:0.5;"/>
   </g>
   <g id="line2d_40">
    <path clip-path="url(#pd0560686ca)" d="M 820.62375 298.92 
L 820.62375 83.96 
" style="fill:none;stroke:#cccccc;stroke-width:0.5;"/>
   </g>
   <g id="line2d_41">
    <path clip-path="url(#pd0560686ca)" d="M 853.775833 298.92 
L 853.775833 83.96 
" style="fill:none;stroke:#cccccc;stroke-width:0.5;"/>
   </g>
   <g id="patch_13">
    <path d="M 654.863333 298.92 
L 654.863333 83.96 
" style="fill:none;stroke:#cccccc;stroke-linecap:square;stroke-linejoin:miter;stroke-width:0.8;"/>
   </g>
   <g id="patch_14">
    <path d="M 920.08 298.92 
L 920.08 83.96 
" style="fill:none;stroke:#cccccc;stroke-linecap:square;stroke-linejoin:miter;stroke-width:0.8;"/>
   </g>
   <g id="patch_15">
    <path d="M 654.863333 298.92 
L 920.08 298.92 
" style="fill:none;stroke:#cccccc;stroke-linecap:square;stroke-linejoin:miter;stroke-width:0.8;"/>
   </g>
   <g id="patch_16">
    <path d="M 654.863333 83.96 
L 920.08 83.96 
" style="fill:none;stroke:#cccccc;stroke-linecap:square;stroke-linejoin:miter;stroke-width:0.8;"/>
   </g>
   <g id="PathCollection_12">
    <path clip-path="url(#pd0560686ca)" d="M 678.069792 284.57616 
L 675.411111 289.893522 
L 680.728472 289.893522 
z
" style="fill:#ffffff;stroke:#2ca02c;stroke-width:0.75;"/>
    <path clip-path="url(#pd0560686ca)" d="M 711.221875 213.328889 
L 708.563194 218.64625 
L 713.880556 218.64625 
z
" style="fill:#ffffff;stroke:#2ca02c;stroke-width:0.75;"/>
    <path clip-path="url(#pd0560686ca)" d="M 744.373958 146.628769 
L 741.715278 151.946131 
L 747.032639 151.946131 
z
" style="fill:#ffffff;stroke:#2ca02c;stroke-width:0.75;"/>
    <path clip-path="url(#pd0560686ca)" d="M 777.526042 279.842318 
L 774.867361 285.159679 
L 780.184722 285.159679 
z
" style="fill:#ffffff;stroke:#2ca02c;stroke-width:0.75;"/>
    <path clip-path="url(#pd0560686ca)" d="M 810.678125 284.57616 
L 808.019444 289.893522 
L 813.336806 289.893522 
z
" style="fill:#ffffff;stroke:#2ca02c;stroke-width:0.75;"/>
    <path clip-path="url(#pd0560686ca)" d="M 843.830208 284.57616 
L 841.171528 289.893522 
L 846.488889 289.893522 
z
" style="fill:#ffffff;stroke:#2ca02c;stroke-width:0.75;"/>
    <path clip-path="url(#pd0560686ca)" d="M 876.982292 284.57616 
L 874.323611 289.893522 
L 879.640972 289.893522 
z
" style="fill:#ffffff;stroke:#2ca02c;stroke-width:0.75;"/>
    <path clip-path="url(#pd0560686ca)" d="M 910.134375 284.57616 
L 907.475694 289.893522 
L 912.793056 289.893522 
z
" style="fill:#ffffff;stroke:#2ca02c;stroke-width:0.75;"/>
   </g>
   <g id="line2d_42">
    <path clip-path="url(#pd0560686ca)" d="M 678.069792 287.234841 
L 711.221875 215.987569 
L 744.373958 149.28745 
L 777.526042 282.500999 
L 810.678125 287.234841 
L 843.830208 287.234841 
L 876.982292 287.234841 
L 910.134375 287.234841 
" style="fill:none;stroke:#2ca02c;stroke-dasharray:0.75,1.2375;stroke-dashoffset:0;stroke-width:0.75;"/>
   </g>
  </g>
 </g>
 <defs>
  <clipPath id="pee64c65850">
   <rect height="214.96" width="265.216667" x="102.84" y="83.96"/>
  </clipPath>
  <clipPath id="p4a3586bd2c">
   <rect height="214.96" width="265.216667" x="378.851667" y="83.96"/>
  </clipPath>
  <clipPath id="pd0560686ca">
   <rect height="214.96" width="265.216667" x="654.863333" y="83.96"/>
  </clipPath>
 </defs>
</svg>
