<?xml version="1.0" encoding="utf-8" standalone="no"?>
<!DOCTYPE svg PUBLIC "-//W3C//DTD SVG 1.1//EN"
  "http://www.w3.org/Graphics/SVG/1.1/DTD/svg11.dtd">
<!-- Created with matplotlib (https://matplotlib.org/) -->
<svg height="252pt" version="1.1" viewBox="0 0 792 252" width="792pt" xmlns="http://www.w3.org/2000/svg" xmlns:xlink="http://www.w3.org/1999/xlink">
 <defs>
  <style type="text/css">
*{stroke-linecap:butt;stroke-linejoin:round;}
  </style>
 </defs>
 <g id="figure_1">
  <g id="patch_1">
   <path d="M 0 252 
L 792 252 
L 792 0 
L 0 0 
z
" style="fill:#ffffff;"/>
  </g>
  <g id="axes_1">
   <g id="patch_2">
    <path d="M 41.976 214.2 
L 254.005714 214.2 
L 254.005714 30.24 
L 41.976 30.24 
z
" style="fill:#ffffff;"/>
   </g>
   <g id="matplotlib.axis_1">
    <g id="xtick_1">
     <g id="text_1">
      <!-- 1 -->
      <defs>
       <path d="M 12.40625 8.296875 
L 28.515625 8.296875 
L 28.515625 63.921875 
L 10.984375 60.40625 
L 10.984375 69.390625 
L 28.421875 72.90625 
L 38.28125 72.90625 
L 38.28125 8.296875 
L 54.390625 8.296875 
L 54.390625 0 
L 12.40625 0 
z
" id="DejaVuSans-49"/>
      </defs>
      <g style="fill:#262626;" transform="translate(59.679596 232.058281)scale(0.11 -0.11)">
       <use xlink:href="#DejaVuSans-49"/>
      </g>
     </g>
    </g>
    <g id="xtick_2">
     <g id="text_2">
      <!-- 2 -->
      <defs>
       <path d="M 19.1875 8.296875 
L 53.609375 8.296875 
L 53.609375 0 
L 7.328125 0 
L 7.328125 8.296875 
Q 12.9375 14.109375 22.625 23.890625 
Q 32.328125 33.6875 34.8125 36.53125 
Q 39.546875 41.84375 41.421875 45.53125 
Q 43.3125 49.21875 43.3125 52.78125 
Q 43.3125 58.59375 39.234375 62.25 
Q 35.15625 65.921875 28.609375 65.921875 
Q 23.96875 65.921875 18.8125 64.3125 
Q 13.671875 62.703125 7.8125 59.421875 
L 7.8125 69.390625 
Q 13.765625 71.78125 18.9375 73 
Q 24.125 74.21875 28.421875 74.21875 
Q 39.75 74.21875 46.484375 68.546875 
Q 53.21875 62.890625 53.21875 53.421875 
Q 53.21875 48.921875 51.53125 44.890625 
Q 49.859375 40.875 45.40625 35.40625 
Q 44.1875 33.984375 37.640625 27.21875 
Q 31.109375 20.453125 19.1875 8.296875 
z
" id="DejaVuSans-50"/>
      </defs>
      <g style="fill:#262626;" transform="translate(102.085539 232.058281)scale(0.11 -0.11)">
       <use xlink:href="#DejaVuSans-50"/>
      </g>
     </g>
    </g>
    <g id="xtick_3">
     <g id="text_3">
      <!-- 3 -->
      <defs>
       <path d="M 40.578125 39.3125 
Q 47.65625 37.796875 51.625 33 
Q 55.609375 28.21875 55.609375 21.1875 
Q 55.609375 10.40625 48.1875 4.484375 
Q 40.765625 -1.421875 27.09375 -1.421875 
Q 22.515625 -1.421875 17.65625 -0.515625 
Q 12.796875 0.390625 7.625 2.203125 
L 7.625 11.71875 
Q 11.71875 9.328125 16.59375 8.109375 
Q 21.484375 6.890625 26.8125 6.890625 
Q 36.078125 6.890625 40.9375 10.546875 
Q 45.796875 14.203125 45.796875 21.1875 
Q 45.796875 27.640625 41.28125 31.265625 
Q 36.765625 34.90625 28.71875 34.90625 
L 20.21875 34.90625 
L 20.21875 43.015625 
L 29.109375 43.015625 
Q 36.375 43.015625 40.234375 45.921875 
Q 44.09375 48.828125 44.09375 54.296875 
Q 44.09375 59.90625 40.109375 62.90625 
Q 36.140625 65.921875 28.71875 65.921875 
Q 24.65625 65.921875 20.015625 65.03125 
Q 15.375 64.15625 9.8125 62.3125 
L 9.8125 71.09375 
Q 15.4375 72.65625 20.34375 73.4375 
Q 25.25 74.21875 29.59375 74.21875 
Q 40.828125 74.21875 47.359375 69.109375 
Q 53.90625 64.015625 53.90625 55.328125 
Q 53.90625 49.265625 50.4375 45.09375 
Q 46.96875 40.921875 40.578125 39.3125 
z
" id="DejaVuSans-51"/>
      </defs>
      <g style="fill:#262626;" transform="translate(144.491482 232.058281)scale(0.11 -0.11)">
       <use xlink:href="#DejaVuSans-51"/>
      </g>
     </g>
    </g>
    <g id="xtick_4">
     <g id="text_4">
      <!-- 4 -->
      <defs>
       <path d="M 37.796875 64.3125 
L 12.890625 25.390625 
L 37.796875 25.390625 
z
M 35.203125 72.90625 
L 47.609375 72.90625 
L 47.609375 25.390625 
L 58.015625 25.390625 
L 58.015625 17.1875 
L 47.609375 17.1875 
L 47.609375 0 
L 37.796875 0 
L 37.796875 17.1875 
L 4.890625 17.1875 
L 4.890625 26.703125 
z
" id="DejaVuSans-52"/>
      </defs>
      <g style="fill:#262626;" transform="translate(186.897425 232.058281)scale(0.11 -0.11)">
       <use xlink:href="#DejaVuSans-52"/>
      </g>
     </g>
    </g>
    <g id="xtick_5">
     <g id="text_5">
      <!-- 5 -->
      <defs>
       <path d="M 10.796875 72.90625 
L 49.515625 72.90625 
L 49.515625 64.59375 
L 19.828125 64.59375 
L 19.828125 46.734375 
Q 21.96875 47.46875 24.109375 47.828125 
Q 26.265625 48.1875 28.421875 48.1875 
Q 40.625 48.1875 47.75 41.5 
Q 54.890625 34.8125 54.890625 23.390625 
Q 54.890625 11.625 47.5625 5.09375 
Q 40.234375 -1.421875 26.90625 -1.421875 
Q 22.3125 -1.421875 17.546875 -0.640625 
Q 12.796875 0.140625 7.71875 1.703125 
L 7.71875 11.625 
Q 12.109375 9.234375 16.796875 8.0625 
Q 21.484375 6.890625 26.703125 6.890625 
Q 35.15625 6.890625 40.078125 11.328125 
Q 45.015625 15.765625 45.015625 23.390625 
Q 45.015625 31 40.078125 35.4375 
Q 35.15625 39.890625 26.703125 39.890625 
Q 22.75 39.890625 18.8125 39.015625 
Q 14.890625 38.140625 10.796875 36.28125 
z
" id="DejaVuSans-53"/>
      </defs>
      <g style="fill:#262626;" transform="translate(229.303368 232.058281)scale(0.11 -0.11)">
       <use xlink:href="#DejaVuSans-53"/>
      </g>
     </g>
    </g>
    <g id="text_6">
     <!-- CNN Layer -->
     <defs>
      <path d="M 64.40625 67.28125 
L 64.40625 56.890625 
Q 59.421875 61.53125 53.78125 63.8125 
Q 48.140625 66.109375 41.796875 66.109375 
Q 29.296875 66.109375 22.65625 58.46875 
Q 16.015625 50.828125 16.015625 36.375 
Q 16.015625 21.96875 22.65625 14.328125 
Q 29.296875 6.6875 41.796875 6.6875 
Q 48.140625 6.6875 53.78125 8.984375 
Q 59.421875 11.28125 64.40625 15.921875 
L 64.40625 5.609375 
Q 59.234375 2.09375 53.4375 0.328125 
Q 47.65625 -1.421875 41.21875 -1.421875 
Q 24.65625 -1.421875 15.125 8.703125 
Q 5.609375 18.84375 5.609375 36.375 
Q 5.609375 53.953125 15.125 64.078125 
Q 24.65625 74.21875 41.21875 74.21875 
Q 47.75 74.21875 53.53125 72.484375 
Q 59.328125 70.75 64.40625 67.28125 
z
" id="DejaVuSans-67"/>
      <path d="M 9.8125 72.90625 
L 23.09375 72.90625 
L 55.421875 11.921875 
L 55.421875 72.90625 
L 64.984375 72.90625 
L 64.984375 0 
L 51.703125 0 
L 19.390625 60.984375 
L 19.390625 0 
L 9.8125 0 
z
" id="DejaVuSans-78"/>
      <path id="DejaVuSans-32"/>
      <path d="M 9.8125 72.90625 
L 19.671875 72.90625 
L 19.671875 8.296875 
L 55.171875 8.296875 
L 55.171875 0 
L 9.8125 0 
z
" id="DejaVuSans-76"/>
      <path d="M 34.28125 27.484375 
Q 23.390625 27.484375 19.1875 25 
Q 14.984375 22.515625 14.984375 16.5 
Q 14.984375 11.71875 18.140625 8.90625 
Q 21.296875 6.109375 26.703125 6.109375 
Q 34.1875 6.109375 38.703125 11.40625 
Q 43.21875 16.703125 43.21875 25.484375 
L 43.21875 27.484375 
z
M 52.203125 31.203125 
L 52.203125 0 
L 43.21875 0 
L 43.21875 8.296875 
Q 40.140625 3.328125 35.546875 0.953125 
Q 30.953125 -1.421875 24.3125 -1.421875 
Q 15.921875 -1.421875 10.953125 3.296875 
Q 6 8.015625 6 15.921875 
Q 6 25.140625 12.171875 29.828125 
Q 18.359375 34.515625 30.609375 34.515625 
L 43.21875 34.515625 
L 43.21875 35.40625 
Q 43.21875 41.609375 39.140625 45 
Q 35.0625 48.390625 27.6875 48.390625 
Q 23 48.390625 18.546875 47.265625 
Q 14.109375 46.140625 10.015625 43.890625 
L 10.015625 52.203125 
Q 14.9375 54.109375 19.578125 55.046875 
Q 24.21875 56 28.609375 56 
Q 40.484375 56 46.34375 49.84375 
Q 52.203125 43.703125 52.203125 31.203125 
z
" id="DejaVuSans-97"/>
      <path d="M 32.171875 -5.078125 
Q 28.375 -14.84375 24.75 -17.8125 
Q 21.140625 -20.796875 15.09375 -20.796875 
L 7.90625 -20.796875 
L 7.90625 -13.28125 
L 13.1875 -13.28125 
Q 16.890625 -13.28125 18.9375 -11.515625 
Q 21 -9.765625 23.484375 -3.21875 
L 25.09375 0.875 
L 2.984375 54.6875 
L 12.5 54.6875 
L 29.59375 11.921875 
L 46.6875 54.6875 
L 56.203125 54.6875 
z
" id="DejaVuSans-121"/>
      <path d="M 56.203125 29.59375 
L 56.203125 25.203125 
L 14.890625 25.203125 
Q 15.484375 15.921875 20.484375 11.0625 
Q 25.484375 6.203125 34.421875 6.203125 
Q 39.59375 6.203125 44.453125 7.46875 
Q 49.3125 8.734375 54.109375 11.28125 
L 54.109375 2.78125 
Q 49.265625 0.734375 44.1875 -0.34375 
Q 39.109375 -1.421875 33.890625 -1.421875 
Q 20.796875 -1.421875 13.15625 6.1875 
Q 5.515625 13.8125 5.515625 26.8125 
Q 5.515625 40.234375 12.765625 48.109375 
Q 20.015625 56 32.328125 56 
Q 43.359375 56 49.78125 48.890625 
Q 56.203125 41.796875 56.203125 29.59375 
z
M 47.21875 32.234375 
Q 47.125 39.59375 43.09375 43.984375 
Q 39.0625 48.390625 32.421875 48.390625 
Q 24.90625 48.390625 20.390625 44.140625 
Q 15.875 39.890625 15.1875 32.171875 
z
" id="DejaVuSans-101"/>
      <path d="M 41.109375 46.296875 
Q 39.59375 47.171875 37.8125 47.578125 
Q 36.03125 48 33.890625 48 
Q 26.265625 48 22.1875 43.046875 
Q 18.109375 38.09375 18.109375 28.8125 
L 18.109375 0 
L 9.078125 0 
L 9.078125 54.6875 
L 18.109375 54.6875 
L 18.109375 46.1875 
Q 20.953125 51.171875 25.484375 53.578125 
Q 30.03125 56 36.53125 56 
Q 37.453125 56 38.578125 55.875 
Q 39.703125 55.765625 41.0625 55.515625 
z
" id="DejaVuSans-114"/>
     </defs>
     <g style="fill:#262626;" transform="translate(116.187107 247.464063)scale(0.12 -0.12)">
      <use xlink:href="#DejaVuSans-67"/>
      <use x="69.824219" xlink:href="#DejaVuSans-78"/>
      <use x="144.628906" xlink:href="#DejaVuSans-78"/>
      <use x="219.433594" xlink:href="#DejaVuSans-32"/>
      <use x="251.220703" xlink:href="#DejaVuSans-76"/>
      <use x="306.933594" xlink:href="#DejaVuSans-97"/>
      <use x="368.212891" xlink:href="#DejaVuSans-121"/>
      <use x="427.392578" xlink:href="#DejaVuSans-101"/>
      <use x="488.916016" xlink:href="#DejaVuSans-114"/>
     </g>
    </g>
   </g>
   <g id="matplotlib.axis_2">
    <g id="ytick_1">
     <g id="line2d_1">
      <path clip-path="url(#p55a2a7829e)" d="M 41.976 214.2 
L 254.005714 214.2 
" style="fill:none;stroke:#cccccc;"/>
     </g>
     <g id="text_7">
      <!-- 0 -->
      <defs>
       <path d="M 31.78125 66.40625 
Q 24.171875 66.40625 20.328125 58.90625 
Q 16.5 51.421875 16.5 36.375 
Q 16.5 21.390625 20.328125 13.890625 
Q 24.171875 6.390625 31.78125 6.390625 
Q 39.453125 6.390625 43.28125 13.890625 
Q 47.125 21.390625 47.125 36.375 
Q 47.125 51.421875 43.28125 58.90625 
Q 39.453125 66.40625 31.78125 66.40625 
z
M 31.78125 74.21875 
Q 44.046875 74.21875 50.515625 64.515625 
Q 56.984375 54.828125 56.984375 36.375 
Q 56.984375 17.96875 50.515625 8.265625 
Q 44.046875 -1.421875 31.78125 -1.421875 
Q 19.53125 -1.421875 13.0625 8.265625 
Q 6.59375 17.96875 6.59375 36.375 
Q 6.59375 54.828125 13.0625 64.515625 
Q 19.53125 74.21875 31.78125 74.21875 
z
" id="DejaVuSans-48"/>
      </defs>
      <g style="fill:#262626;" transform="translate(25.47725 218.379141)scale(0.11 -0.11)">
       <use xlink:href="#DejaVuSans-48"/>
      </g>
     </g>
    </g>
    <g id="ytick_2">
     <g id="line2d_2">
      <path clip-path="url(#p55a2a7829e)" d="M 41.976 193.055172 
L 254.005714 193.055172 
" style="fill:none;stroke:#cccccc;"/>
     </g>
     <g id="text_8">
      <!-- 10 -->
      <g style="fill:#262626;" transform="translate(18.4785 197.234313)scale(0.11 -0.11)">
       <use xlink:href="#DejaVuSans-49"/>
       <use x="63.623047" xlink:href="#DejaVuSans-48"/>
      </g>
     </g>
    </g>
    <g id="ytick_3">
     <g id="line2d_3">
      <path clip-path="url(#p55a2a7829e)" d="M 41.976 171.910345 
L 254.005714 171.910345 
" style="fill:none;stroke:#cccccc;"/>
     </g>
     <g id="text_9">
      <!-- 20 -->
      <g style="fill:#262626;" transform="translate(18.4785 176.089485)scale(0.11 -0.11)">
       <use xlink:href="#DejaVuSans-50"/>
       <use x="63.623047" xlink:href="#DejaVuSans-48"/>
      </g>
     </g>
    </g>
    <g id="ytick_4">
     <g id="line2d_4">
      <path clip-path="url(#p55a2a7829e)" d="M 41.976 150.765517 
L 254.005714 150.765517 
" style="fill:none;stroke:#cccccc;"/>
     </g>
     <g id="text_10">
      <!-- 30 -->
      <g style="fill:#262626;" transform="translate(18.4785 154.944658)scale(0.11 -0.11)">
       <use xlink:href="#DejaVuSans-51"/>
       <use x="63.623047" xlink:href="#DejaVuSans-48"/>
      </g>
     </g>
    </g>
    <g id="ytick_5">
     <g id="line2d_5">
      <path clip-path="url(#p55a2a7829e)" d="M 41.976 129.62069 
L 254.005714 129.62069 
" style="fill:none;stroke:#cccccc;"/>
     </g>
     <g id="text_11">
      <!-- 40 -->
      <g style="fill:#262626;" transform="translate(18.4785 133.79983)scale(0.11 -0.11)">
       <use xlink:href="#DejaVuSans-52"/>
       <use x="63.623047" xlink:href="#DejaVuSans-48"/>
      </g>
     </g>
    </g>
    <g id="ytick_6">
     <g id="line2d_6">
      <path clip-path="url(#p55a2a7829e)" d="M 41.976 108.475862 
L 254.005714 108.475862 
" style="fill:none;stroke:#cccccc;"/>
     </g>
     <g id="text_12">
      <!-- 50 -->
      <g style="fill:#262626;" transform="translate(18.4785 112.655003)scale(0.11 -0.11)">
       <use xlink:href="#DejaVuSans-53"/>
       <use x="63.623047" xlink:href="#DejaVuSans-48"/>
      </g>
     </g>
    </g>
    <g id="ytick_7">
     <g id="line2d_7">
      <path clip-path="url(#p55a2a7829e)" d="M 41.976 87.331034 
L 254.005714 87.331034 
" style="fill:none;stroke:#cccccc;"/>
     </g>
     <g id="text_13">
      <!-- 60 -->
      <defs>
       <path d="M 33.015625 40.375 
Q 26.375 40.375 22.484375 35.828125 
Q 18.609375 31.296875 18.609375 23.390625 
Q 18.609375 15.53125 22.484375 10.953125 
Q 26.375 6.390625 33.015625 6.390625 
Q 39.65625 6.390625 43.53125 10.953125 
Q 47.40625 15.53125 47.40625 23.390625 
Q 47.40625 31.296875 43.53125 35.828125 
Q 39.65625 40.375 33.015625 40.375 
z
M 52.59375 71.296875 
L 52.59375 62.3125 
Q 48.875 64.0625 45.09375 64.984375 
Q 41.3125 65.921875 37.59375 65.921875 
Q 27.828125 65.921875 22.671875 59.328125 
Q 17.53125 52.734375 16.796875 39.40625 
Q 19.671875 43.65625 24.015625 45.921875 
Q 28.375 48.1875 33.59375 48.1875 
Q 44.578125 48.1875 50.953125 41.515625 
Q 57.328125 34.859375 57.328125 23.390625 
Q 57.328125 12.15625 50.6875 5.359375 
Q 44.046875 -1.421875 33.015625 -1.421875 
Q 20.359375 -1.421875 13.671875 8.265625 
Q 6.984375 17.96875 6.984375 36.375 
Q 6.984375 53.65625 15.1875 63.9375 
Q 23.390625 74.21875 37.203125 74.21875 
Q 40.921875 74.21875 44.703125 73.484375 
Q 48.484375 72.75 52.59375 71.296875 
z
" id="DejaVuSans-54"/>
      </defs>
      <g style="fill:#262626;" transform="translate(18.4785 91.510175)scale(0.11 -0.11)">
       <use xlink:href="#DejaVuSans-54"/>
       <use x="63.623047" xlink:href="#DejaVuSans-48"/>
      </g>
     </g>
    </g>
    <g id="ytick_8">
     <g id="line2d_8">
      <path clip-path="url(#p55a2a7829e)" d="M 41.976 66.186207 
L 254.005714 66.186207 
" style="fill:none;stroke:#cccccc;"/>
     </g>
     <g id="text_14">
      <!-- 70 -->
      <defs>
       <path d="M 8.203125 72.90625 
L 55.078125 72.90625 
L 55.078125 68.703125 
L 28.609375 0 
L 18.3125 0 
L 43.21875 64.59375 
L 8.203125 64.59375 
z
" id="DejaVuSans-55"/>
      </defs>
      <g style="fill:#262626;" transform="translate(18.4785 70.365348)scale(0.11 -0.11)">
       <use xlink:href="#DejaVuSans-55"/>
       <use x="63.623047" xlink:href="#DejaVuSans-48"/>
      </g>
     </g>
    </g>
    <g id="ytick_9">
     <g id="line2d_9">
      <path clip-path="url(#p55a2a7829e)" d="M 41.976 45.041379 
L 254.005714 45.041379 
" style="fill:none;stroke:#cccccc;"/>
     </g>
     <g id="text_15">
      <!-- 80 -->
      <defs>
       <path d="M 31.78125 34.625 
Q 24.75 34.625 20.71875 30.859375 
Q 16.703125 27.09375 16.703125 20.515625 
Q 16.703125 13.921875 20.71875 10.15625 
Q 24.75 6.390625 31.78125 6.390625 
Q 38.8125 6.390625 42.859375 10.171875 
Q 46.921875 13.96875 46.921875 20.515625 
Q 46.921875 27.09375 42.890625 30.859375 
Q 38.875 34.625 31.78125 34.625 
z
M 21.921875 38.8125 
Q 15.578125 40.375 12.03125 44.71875 
Q 8.5 49.078125 8.5 55.328125 
Q 8.5 64.0625 14.71875 69.140625 
Q 20.953125 74.21875 31.78125 74.21875 
Q 42.671875 74.21875 48.875 69.140625 
Q 55.078125 64.0625 55.078125 55.328125 
Q 55.078125 49.078125 51.53125 44.71875 
Q 48 40.375 41.703125 38.8125 
Q 48.828125 37.15625 52.796875 32.3125 
Q 56.78125 27.484375 56.78125 20.515625 
Q 56.78125 9.90625 50.3125 4.234375 
Q 43.84375 -1.421875 31.78125 -1.421875 
Q 19.734375 -1.421875 13.25 4.234375 
Q 6.78125 9.90625 6.78125 20.515625 
Q 6.78125 27.484375 10.78125 32.3125 
Q 14.796875 37.15625 21.921875 38.8125 
z
M 18.3125 54.390625 
Q 18.3125 48.734375 21.84375 45.5625 
Q 25.390625 42.390625 31.78125 42.390625 
Q 38.140625 42.390625 41.71875 45.5625 
Q 45.3125 48.734375 45.3125 54.390625 
Q 45.3125 60.0625 41.71875 63.234375 
Q 38.140625 66.40625 31.78125 66.40625 
Q 25.390625 66.40625 21.84375 63.234375 
Q 18.3125 60.0625 18.3125 54.390625 
z
" id="DejaVuSans-56"/>
      </defs>
      <g style="fill:#262626;" transform="translate(18.4785 49.22052)scale(0.11 -0.11)">
       <use xlink:href="#DejaVuSans-56"/>
       <use x="63.623047" xlink:href="#DejaVuSans-48"/>
      </g>
     </g>
    </g>
    <g id="text_16">
     <!-- Precision [%] -->
     <defs>
      <path d="M 19.671875 64.796875 
L 19.671875 37.40625 
L 32.078125 37.40625 
Q 38.96875 37.40625 42.71875 40.96875 
Q 46.484375 44.53125 46.484375 51.125 
Q 46.484375 57.671875 42.71875 61.234375 
Q 38.96875 64.796875 32.078125 64.796875 
z
M 9.8125 72.90625 
L 32.078125 72.90625 
Q 44.34375 72.90625 50.609375 67.359375 
Q 56.890625 61.8125 56.890625 51.125 
Q 56.890625 40.328125 50.609375 34.8125 
Q 44.34375 29.296875 32.078125 29.296875 
L 19.671875 29.296875 
L 19.671875 0 
L 9.8125 0 
z
" id="DejaVuSans-80"/>
      <path d="M 48.78125 52.59375 
L 48.78125 44.1875 
Q 44.96875 46.296875 41.140625 47.34375 
Q 37.3125 48.390625 33.40625 48.390625 
Q 24.65625 48.390625 19.8125 42.84375 
Q 14.984375 37.3125 14.984375 27.296875 
Q 14.984375 17.28125 19.8125 11.734375 
Q 24.65625 6.203125 33.40625 6.203125 
Q 37.3125 6.203125 41.140625 7.25 
Q 44.96875 8.296875 48.78125 10.40625 
L 48.78125 2.09375 
Q 45.015625 0.34375 40.984375 -0.53125 
Q 36.96875 -1.421875 32.421875 -1.421875 
Q 20.0625 -1.421875 12.78125 6.34375 
Q 5.515625 14.109375 5.515625 27.296875 
Q 5.515625 40.671875 12.859375 48.328125 
Q 20.21875 56 33.015625 56 
Q 37.15625 56 41.109375 55.140625 
Q 45.0625 54.296875 48.78125 52.59375 
z
" id="DejaVuSans-99"/>
      <path d="M 9.421875 54.6875 
L 18.40625 54.6875 
L 18.40625 0 
L 9.421875 0 
z
M 9.421875 75.984375 
L 18.40625 75.984375 
L 18.40625 64.59375 
L 9.421875 64.59375 
z
" id="DejaVuSans-105"/>
      <path d="M 44.28125 53.078125 
L 44.28125 44.578125 
Q 40.484375 46.53125 36.375 47.5 
Q 32.28125 48.484375 27.875 48.484375 
Q 21.1875 48.484375 17.84375 46.4375 
Q 14.5 44.390625 14.5 40.28125 
Q 14.5 37.15625 16.890625 35.375 
Q 19.28125 33.59375 26.515625 31.984375 
L 29.59375 31.296875 
Q 39.15625 29.25 43.1875 25.515625 
Q 47.21875 21.78125 47.21875 15.09375 
Q 47.21875 7.46875 41.1875 3.015625 
Q 35.15625 -1.421875 24.609375 -1.421875 
Q 20.21875 -1.421875 15.453125 -0.5625 
Q 10.6875 0.296875 5.421875 2 
L 5.421875 11.28125 
Q 10.40625 8.6875 15.234375 7.390625 
Q 20.0625 6.109375 24.8125 6.109375 
Q 31.15625 6.109375 34.5625 8.28125 
Q 37.984375 10.453125 37.984375 14.40625 
Q 37.984375 18.0625 35.515625 20.015625 
Q 33.0625 21.96875 24.703125 23.78125 
L 21.578125 24.515625 
Q 13.234375 26.265625 9.515625 29.90625 
Q 5.8125 33.546875 5.8125 39.890625 
Q 5.8125 47.609375 11.28125 51.796875 
Q 16.75 56 26.8125 56 
Q 31.78125 56 36.171875 55.265625 
Q 40.578125 54.546875 44.28125 53.078125 
z
" id="DejaVuSans-115"/>
      <path d="M 30.609375 48.390625 
Q 23.390625 48.390625 19.1875 42.75 
Q 14.984375 37.109375 14.984375 27.296875 
Q 14.984375 17.484375 19.15625 11.84375 
Q 23.34375 6.203125 30.609375 6.203125 
Q 37.796875 6.203125 41.984375 11.859375 
Q 46.1875 17.53125 46.1875 27.296875 
Q 46.1875 37.015625 41.984375 42.703125 
Q 37.796875 48.390625 30.609375 48.390625 
z
M 30.609375 56 
Q 42.328125 56 49.015625 48.375 
Q 55.71875 40.765625 55.71875 27.296875 
Q 55.71875 13.875 49.015625 6.21875 
Q 42.328125 -1.421875 30.609375 -1.421875 
Q 18.84375 -1.421875 12.171875 6.21875 
Q 5.515625 13.875 5.515625 27.296875 
Q 5.515625 40.765625 12.171875 48.375 
Q 18.84375 56 30.609375 56 
z
" id="DejaVuSans-111"/>
      <path d="M 54.890625 33.015625 
L 54.890625 0 
L 45.90625 0 
L 45.90625 32.71875 
Q 45.90625 40.484375 42.875 44.328125 
Q 39.84375 48.1875 33.796875 48.1875 
Q 26.515625 48.1875 22.3125 43.546875 
Q 18.109375 38.921875 18.109375 30.90625 
L 18.109375 0 
L 9.078125 0 
L 9.078125 54.6875 
L 18.109375 54.6875 
L 18.109375 46.1875 
Q 21.34375 51.125 25.703125 53.5625 
Q 30.078125 56 35.796875 56 
Q 45.21875 56 50.046875 50.171875 
Q 54.890625 44.34375 54.890625 33.015625 
z
" id="DejaVuSans-110"/>
      <path d="M 8.59375 75.984375 
L 29.296875 75.984375 
L 29.296875 69 
L 17.578125 69 
L 17.578125 -6.203125 
L 29.296875 -6.203125 
L 29.296875 -13.1875 
L 8.59375 -13.1875 
z
" id="DejaVuSans-91"/>
      <path d="M 72.703125 32.078125 
Q 68.453125 32.078125 66.03125 28.46875 
Q 63.625 24.859375 63.625 18.40625 
Q 63.625 12.0625 66.03125 8.421875 
Q 68.453125 4.78125 72.703125 4.78125 
Q 76.859375 4.78125 79.265625 8.421875 
Q 81.6875 12.0625 81.6875 18.40625 
Q 81.6875 24.8125 79.265625 28.4375 
Q 76.859375 32.078125 72.703125 32.078125 
z
M 72.703125 38.28125 
Q 80.421875 38.28125 84.953125 32.90625 
Q 89.5 27.546875 89.5 18.40625 
Q 89.5 9.28125 84.9375 3.921875 
Q 80.375 -1.421875 72.703125 -1.421875 
Q 64.890625 -1.421875 60.34375 3.921875 
Q 55.8125 9.28125 55.8125 18.40625 
Q 55.8125 27.59375 60.375 32.9375 
Q 64.9375 38.28125 72.703125 38.28125 
z
M 22.3125 68.015625 
Q 18.109375 68.015625 15.6875 64.375 
Q 13.28125 60.75 13.28125 54.390625 
Q 13.28125 47.953125 15.671875 44.328125 
Q 18.0625 40.71875 22.3125 40.71875 
Q 26.5625 40.71875 28.96875 44.328125 
Q 31.390625 47.953125 31.390625 54.390625 
Q 31.390625 60.6875 28.953125 64.34375 
Q 26.515625 68.015625 22.3125 68.015625 
z
M 66.40625 74.21875 
L 74.21875 74.21875 
L 28.609375 -1.421875 
L 20.796875 -1.421875 
z
M 22.3125 74.21875 
Q 30.03125 74.21875 34.609375 68.875 
Q 39.203125 63.53125 39.203125 54.390625 
Q 39.203125 45.171875 34.640625 39.84375 
Q 30.078125 34.515625 22.3125 34.515625 
Q 14.546875 34.515625 10.03125 39.859375 
Q 5.515625 45.21875 5.515625 54.390625 
Q 5.515625 63.484375 10.046875 68.84375 
Q 14.59375 74.21875 22.3125 74.21875 
z
" id="DejaVuSans-37"/>
      <path d="M 30.421875 75.984375 
L 30.421875 -13.1875 
L 9.71875 -13.1875 
L 9.71875 -6.203125 
L 21.390625 -6.203125 
L 21.390625 69 
L 9.71875 69 
L 9.71875 75.984375 
z
" id="DejaVuSans-93"/>
     </defs>
     <g style="fill:#262626;" transform="translate(11.982875 161.515312)rotate(-90)scale(0.12 -0.12)">
      <use xlink:href="#DejaVuSans-80"/>
      <use x="60.287109" xlink:href="#DejaVuSans-114"/>
      <use x="101.369141" xlink:href="#DejaVuSans-101"/>
      <use x="162.892578" xlink:href="#DejaVuSans-99"/>
      <use x="217.873047" xlink:href="#DejaVuSans-105"/>
      <use x="245.65625" xlink:href="#DejaVuSans-115"/>
      <use x="297.755859" xlink:href="#DejaVuSans-105"/>
      <use x="325.539062" xlink:href="#DejaVuSans-111"/>
      <use x="386.720703" xlink:href="#DejaVuSans-110"/>
      <use x="450.099609" xlink:href="#DejaVuSans-32"/>
      <use x="481.886719" xlink:href="#DejaVuSans-91"/>
      <use x="520.900391" xlink:href="#DejaVuSans-37"/>
      <use x="615.919922" xlink:href="#DejaVuSans-93"/>
     </g>
    </g>
   </g>
   <g id="patch_3">
    <path clip-path="url(#p55a2a7829e)" d="M 46.216594 214.2 
L 54.697783 214.2 
L 54.697783 113.206718 
L 46.216594 113.206718 
z
" style="fill:url(#h07f16aa7d8);stroke:#666666;stroke-linejoin:miter;"/>
   </g>
   <g id="patch_4">
    <path clip-path="url(#p55a2a7829e)" d="M 88.622537 214.2 
L 97.103726 214.2 
L 97.103726 104.753752 
L 88.622537 104.753752 
z
" style="fill:url(#h07f16aa7d8);stroke:#666666;stroke-linejoin:miter;"/>
   </g>
   <g id="patch_5">
    <path clip-path="url(#p55a2a7829e)" d="M 131.02848 214.2 
L 139.509669 214.2 
L 139.509669 105.987072 
L 131.02848 105.987072 
z
" style="fill:url(#h07f16aa7d8);stroke:#666666;stroke-linejoin:miter;"/>
   </g>
   <g id="patch_6">
    <path clip-path="url(#p55a2a7829e)" d="M 173.434423 214.2 
L 181.915611 214.2 
L 181.915611 109.992884 
L 173.434423 109.992884 
z
" style="fill:url(#h07f16aa7d8);stroke:#666666;stroke-linejoin:miter;"/>
   </g>
   <g id="patch_7">
    <path clip-path="url(#p55a2a7829e)" d="M 215.840366 214.2 
L 224.321554 214.2 
L 224.321554 117.22749 
L 215.840366 117.22749 
z
" style="fill:url(#h07f16aa7d8);stroke:#666666;stroke-linejoin:miter;"/>
   </g>
   <g id="patch_8">
    <path clip-path="url(#p55a2a7829e)" d="M 54.697783 214.2 
L 63.178971 214.2 
L 63.178971 103.260515 
L 54.697783 103.260515 
z
" style="fill:url(#h0ed1c1ecd7);stroke:#666666;stroke-linejoin:miter;"/>
   </g>
   <g id="patch_9">
    <path clip-path="url(#p55a2a7829e)" d="M 97.103726 214.2 
L 105.584914 214.2 
L 105.584914 94.920104 
L 97.103726 94.920104 
z
" style="fill:url(#h0ed1c1ecd7);stroke:#666666;stroke-linejoin:miter;"/>
   </g>
   <g id="patch_10">
    <path clip-path="url(#p55a2a7829e)" d="M 139.509669 214.2 
L 147.990857 214.2 
L 147.990857 87.908511 
L 139.509669 87.908511 
z
" style="fill:url(#h0ed1c1ecd7);stroke:#666666;stroke-linejoin:miter;"/>
   </g>
   <g id="patch_11">
    <path clip-path="url(#p55a2a7829e)" d="M 181.915611 214.2 
L 190.3968 214.2 
L 190.3968 88.961017 
L 181.915611 88.961017 
z
" style="fill:url(#h0ed1c1ecd7);stroke:#666666;stroke-linejoin:miter;"/>
   </g>
   <g id="patch_12">
    <path clip-path="url(#p55a2a7829e)" d="M 224.321554 214.2 
L 232.802743 214.2 
L 232.802743 85.854469 
L 224.321554 85.854469 
z
" style="fill:url(#h0ed1c1ecd7);stroke:#666666;stroke-linejoin:miter;"/>
   </g>
   <g id="patch_13">
    <path clip-path="url(#p55a2a7829e)" d="M 63.178971 214.2 
L 71.66016 214.2 
L 71.66016 104.242598 
L 63.178971 104.242598 
z
" style="fill:url(#h3b11bd3868);stroke:#666666;stroke-linejoin:miter;"/>
   </g>
   <g id="patch_14">
    <path clip-path="url(#p55a2a7829e)" d="M 105.584914 214.2 
L 114.066103 214.2 
L 114.066103 99.353806 
L 105.584914 99.353806 
z
" style="fill:url(#h3b11bd3868);stroke:#666666;stroke-linejoin:miter;"/>
   </g>
   <g id="patch_15">
    <path clip-path="url(#p55a2a7829e)" d="M 147.990857 214.2 
L 156.472046 214.2 
L 156.472046 83.147839 
L 147.990857 83.147839 
z
" style="fill:url(#h3b11bd3868);stroke:#666666;stroke-linejoin:miter;"/>
   </g>
   <g id="patch_16">
    <path clip-path="url(#p55a2a7829e)" d="M 190.3968 214.2 
L 198.877989 214.2 
L 198.877989 77.588619 
L 190.3968 77.588619 
z
" style="fill:url(#h3b11bd3868);stroke:#666666;stroke-linejoin:miter;"/>
   </g>
   <g id="patch_17">
    <path clip-path="url(#p55a2a7829e)" d="M 232.802743 214.2 
L 241.283931 214.2 
L 241.283931 71.69165 
L 232.802743 71.69165 
z
" style="fill:url(#h3b11bd3868);stroke:#666666;stroke-linejoin:miter;"/>
   </g>
   <g id="patch_18">
    <path clip-path="url(#p55a2a7829e)" d="M 71.66016 214.2 
L 80.141349 214.2 
L 80.141349 97.372016 
L 71.66016 97.372016 
z
" style="fill:url(#h24cf3ac0e7);stroke:#666666;stroke-linejoin:miter;"/>
   </g>
   <g id="patch_19">
    <path clip-path="url(#p55a2a7829e)" d="M 114.066103 214.2 
L 122.547291 214.2 
L 122.547291 99.528614 
L 114.066103 99.528614 
z
" style="fill:url(#h24cf3ac0e7);stroke:#666666;stroke-linejoin:miter;"/>
   </g>
   <g id="patch_20">
    <path clip-path="url(#p55a2a7829e)" d="M 156.472046 214.2 
L 164.953234 214.2 
L 164.953234 91.160463 
L 156.472046 91.160463 
z
" style="fill:url(#h24cf3ac0e7);stroke:#666666;stroke-linejoin:miter;"/>
   </g>
   <g id="patch_21">
    <path clip-path="url(#p55a2a7829e)" d="M 198.877989 214.2 
L 207.359177 214.2 
L 207.359177 65.462199 
L 198.877989 65.462199 
z
" style="fill:url(#h24cf3ac0e7);stroke:#666666;stroke-linejoin:miter;"/>
   </g>
   <g id="patch_22">
    <path clip-path="url(#p55a2a7829e)" d="M 241.283931 214.2 
L 249.76512 214.2 
L 249.76512 38.723042 
L 241.283931 38.723042 
z
" style="fill:url(#h24cf3ac0e7);stroke:#666666;stroke-linejoin:miter;"/>
   </g>
   <g id="line2d_10">
    <path clip-path="url(#p55a2a7829e)" d="M 50.457189 115.285236 
L 50.457189 111.1282 
" style="fill:none;stroke:#424242;"/>
   </g>
   <g id="line2d_11">
    <path clip-path="url(#p55a2a7829e)" d="M 48.336891 115.285236 
L 52.577486 115.285236 
" style="fill:none;stroke:#424242;"/>
   </g>
   <g id="line2d_12">
    <path clip-path="url(#p55a2a7829e)" d="M 48.336891 111.1282 
L 52.577486 111.1282 
" style="fill:none;stroke:#424242;"/>
   </g>
   <g id="line2d_13">
    <path clip-path="url(#p55a2a7829e)" d="M 92.863131 114.584907 
L 92.863131 94.922597 
" style="fill:none;stroke:#424242;"/>
   </g>
   <g id="line2d_14">
    <path clip-path="url(#p55a2a7829e)" d="M 90.742834 114.584907 
L 94.983429 114.584907 
" style="fill:none;stroke:#424242;"/>
   </g>
   <g id="line2d_15">
    <path clip-path="url(#p55a2a7829e)" d="M 90.742834 94.922597 
L 94.983429 94.922597 
" style="fill:none;stroke:#424242;"/>
   </g>
   <g id="line2d_16">
    <path clip-path="url(#p55a2a7829e)" d="M 135.269074 113.444764 
L 135.269074 98.52938 
" style="fill:none;stroke:#424242;"/>
   </g>
   <g id="line2d_17">
    <path clip-path="url(#p55a2a7829e)" d="M 133.148777 113.444764 
L 137.389371 113.444764 
" style="fill:none;stroke:#424242;"/>
   </g>
   <g id="line2d_18">
    <path clip-path="url(#p55a2a7829e)" d="M 133.148777 98.52938 
L 137.389371 98.52938 
" style="fill:none;stroke:#424242;"/>
   </g>
   <g id="line2d_19">
    <path clip-path="url(#p55a2a7829e)" d="M 177.675017 114.828095 
L 177.675017 105.157674 
" style="fill:none;stroke:#424242;"/>
   </g>
   <g id="line2d_20">
    <path clip-path="url(#p55a2a7829e)" d="M 175.55472 114.828095 
L 179.795314 114.828095 
" style="fill:none;stroke:#424242;"/>
   </g>
   <g id="line2d_21">
    <path clip-path="url(#p55a2a7829e)" d="M 175.55472 105.157674 
L 179.795314 105.157674 
" style="fill:none;stroke:#424242;"/>
   </g>
   <g id="line2d_22">
    <path clip-path="url(#p55a2a7829e)" d="M 220.08096 123.846643 
L 220.08096 110.608336 
" style="fill:none;stroke:#424242;"/>
   </g>
   <g id="line2d_23">
    <path clip-path="url(#p55a2a7829e)" d="M 217.960663 123.846643 
L 222.201257 123.846643 
" style="fill:none;stroke:#424242;"/>
   </g>
   <g id="line2d_24">
    <path clip-path="url(#p55a2a7829e)" d="M 217.960663 110.608336 
L 222.201257 110.608336 
" style="fill:none;stroke:#424242;"/>
   </g>
   <g id="line2d_25">
    <path clip-path="url(#p55a2a7829e)" d="M 58.938377 115.545985 
L 58.938377 90.975044 
" style="fill:none;stroke:#424242;"/>
   </g>
   <g id="line2d_26">
    <path clip-path="url(#p55a2a7829e)" d="M 56.81808 115.545985 
L 61.058674 115.545985 
" style="fill:none;stroke:#424242;"/>
   </g>
   <g id="line2d_27">
    <path clip-path="url(#p55a2a7829e)" d="M 56.81808 90.975044 
L 61.058674 90.975044 
" style="fill:none;stroke:#424242;"/>
   </g>
   <g id="line2d_28">
    <path clip-path="url(#p55a2a7829e)" d="M 101.34432 104.428535 
L 101.34432 85.411673 
" style="fill:none;stroke:#424242;"/>
   </g>
   <g id="line2d_29">
    <path clip-path="url(#p55a2a7829e)" d="M 99.224023 104.428535 
L 103.464617 104.428535 
" style="fill:none;stroke:#424242;"/>
   </g>
   <g id="line2d_30">
    <path clip-path="url(#p55a2a7829e)" d="M 99.224023 85.411673 
L 103.464617 85.411673 
" style="fill:none;stroke:#424242;"/>
   </g>
   <g id="line2d_31">
    <path clip-path="url(#p55a2a7829e)" d="M 143.750263 89.902699 
L 143.750263 85.914323 
" style="fill:none;stroke:#424242;"/>
   </g>
   <g id="line2d_32">
    <path clip-path="url(#p55a2a7829e)" d="M 141.629966 89.902699 
L 145.87056 89.902699 
" style="fill:none;stroke:#424242;"/>
   </g>
   <g id="line2d_33">
    <path clip-path="url(#p55a2a7829e)" d="M 141.629966 85.914323 
L 145.87056 85.914323 
" style="fill:none;stroke:#424242;"/>
   </g>
   <g id="line2d_34">
    <path clip-path="url(#p55a2a7829e)" d="M 186.156206 90.148332 
L 186.156206 87.773702 
" style="fill:none;stroke:#424242;"/>
   </g>
   <g id="line2d_35">
    <path clip-path="url(#p55a2a7829e)" d="M 184.035909 90.148332 
L 188.276503 90.148332 
" style="fill:none;stroke:#424242;"/>
   </g>
   <g id="line2d_36">
    <path clip-path="url(#p55a2a7829e)" d="M 184.035909 87.773702 
L 188.276503 87.773702 
" style="fill:none;stroke:#424242;"/>
   </g>
   <g id="line2d_37">
    <path clip-path="url(#p55a2a7829e)" d="M 228.562149 93.890103 
L 228.562149 77.818835 
" style="fill:none;stroke:#424242;"/>
   </g>
   <g id="line2d_38">
    <path clip-path="url(#p55a2a7829e)" d="M 226.441851 93.890103 
L 230.682446 93.890103 
" style="fill:none;stroke:#424242;"/>
   </g>
   <g id="line2d_39">
    <path clip-path="url(#p55a2a7829e)" d="M 226.441851 77.818835 
L 230.682446 77.818835 
" style="fill:none;stroke:#424242;"/>
   </g>
   <g id="line2d_40">
    <path clip-path="url(#p55a2a7829e)" d="M 67.419566 111.647309 
L 67.419566 96.837887 
" style="fill:none;stroke:#424242;"/>
   </g>
   <g id="line2d_41">
    <path clip-path="url(#p55a2a7829e)" d="M 65.299269 111.647309 
L 69.539863 111.647309 
" style="fill:none;stroke:#424242;"/>
   </g>
   <g id="line2d_42">
    <path clip-path="url(#p55a2a7829e)" d="M 65.299269 96.837887 
L 69.539863 96.837887 
" style="fill:none;stroke:#424242;"/>
   </g>
   <g id="line2d_43">
    <path clip-path="url(#p55a2a7829e)" d="M 109.825509 102.409338 
L 109.825509 96.298275 
" style="fill:none;stroke:#424242;"/>
   </g>
   <g id="line2d_44">
    <path clip-path="url(#p55a2a7829e)" d="M 107.705211 102.409338 
L 111.945806 102.409338 
" style="fill:none;stroke:#424242;"/>
   </g>
   <g id="line2d_45">
    <path clip-path="url(#p55a2a7829e)" d="M 107.705211 96.298275 
L 111.945806 96.298275 
" style="fill:none;stroke:#424242;"/>
   </g>
   <g id="line2d_46">
    <path clip-path="url(#p55a2a7829e)" d="M 152.231451 85.908935 
L 152.231451 80.386744 
" style="fill:none;stroke:#424242;"/>
   </g>
   <g id="line2d_47">
    <path clip-path="url(#p55a2a7829e)" d="M 150.111154 85.908935 
L 154.351749 85.908935 
" style="fill:none;stroke:#424242;"/>
   </g>
   <g id="line2d_48">
    <path clip-path="url(#p55a2a7829e)" d="M 150.111154 80.386744 
L 154.351749 80.386744 
" style="fill:none;stroke:#424242;"/>
   </g>
   <g id="line2d_49">
    <path clip-path="url(#p55a2a7829e)" d="M 194.637394 84.659328 
L 194.637394 70.51791 
" style="fill:none;stroke:#424242;"/>
   </g>
   <g id="line2d_50">
    <path clip-path="url(#p55a2a7829e)" d="M 192.517097 84.659328 
L 196.757691 84.659328 
" style="fill:none;stroke:#424242;"/>
   </g>
   <g id="line2d_51">
    <path clip-path="url(#p55a2a7829e)" d="M 192.517097 70.51791 
L 196.757691 70.51791 
" style="fill:none;stroke:#424242;"/>
   </g>
   <g id="line2d_52">
    <path clip-path="url(#p55a2a7829e)" d="M 237.043337 77.672634 
L 237.043337 65.710666 
" style="fill:none;stroke:#424242;"/>
   </g>
   <g id="line2d_53">
    <path clip-path="url(#p55a2a7829e)" d="M 234.92304 77.672634 
L 239.163634 77.672634 
" style="fill:none;stroke:#424242;"/>
   </g>
   <g id="line2d_54">
    <path clip-path="url(#p55a2a7829e)" d="M 234.92304 65.710666 
L 239.163634 65.710666 
" style="fill:none;stroke:#424242;"/>
   </g>
   <g id="line2d_55">
    <path clip-path="url(#p55a2a7829e)" d="M 75.900754 108.118879 
L 75.900754 86.625153 
" style="fill:none;stroke:#424242;"/>
   </g>
   <g id="line2d_56">
    <path clip-path="url(#p55a2a7829e)" d="M 73.780457 108.118879 
L 78.021051 108.118879 
" style="fill:none;stroke:#424242;"/>
   </g>
   <g id="line2d_57">
    <path clip-path="url(#p55a2a7829e)" d="M 73.780457 86.625153 
L 78.021051 86.625153 
" style="fill:none;stroke:#424242;"/>
   </g>
   <g id="line2d_58">
    <path clip-path="url(#p55a2a7829e)" d="M 118.306697 102.94373 
L 118.306697 96.113497 
" style="fill:none;stroke:#424242;"/>
   </g>
   <g id="line2d_59">
    <path clip-path="url(#p55a2a7829e)" d="M 116.1864 102.94373 
L 120.426994 102.94373 
" style="fill:none;stroke:#424242;"/>
   </g>
   <g id="line2d_60">
    <path clip-path="url(#p55a2a7829e)" d="M 116.1864 96.113497 
L 120.426994 96.113497 
" style="fill:none;stroke:#424242;"/>
   </g>
   <g id="line2d_61">
    <path clip-path="url(#p55a2a7829e)" d="M 160.71264 98.380554 
L 160.71264 83.940373 
" style="fill:none;stroke:#424242;"/>
   </g>
   <g id="line2d_62">
    <path clip-path="url(#p55a2a7829e)" d="M 158.592343 98.380554 
L 162.832937 98.380554 
" style="fill:none;stroke:#424242;"/>
   </g>
   <g id="line2d_63">
    <path clip-path="url(#p55a2a7829e)" d="M 158.592343 83.940373 
L 162.832937 83.940373 
" style="fill:none;stroke:#424242;"/>
   </g>
   <g id="line2d_64">
    <path clip-path="url(#p55a2a7829e)" d="M 203.118583 76.684754 
L 203.118583 54.239643 
" style="fill:none;stroke:#424242;"/>
   </g>
   <g id="line2d_65">
    <path clip-path="url(#p55a2a7829e)" d="M 200.998286 76.684754 
L 205.23888 76.684754 
" style="fill:none;stroke:#424242;"/>
   </g>
   <g id="line2d_66">
    <path clip-path="url(#p55a2a7829e)" d="M 200.998286 54.239643 
L 205.23888 54.239643 
" style="fill:none;stroke:#424242;"/>
   </g>
   <g id="line2d_67">
    <path clip-path="url(#p55a2a7829e)" d="M 245.524526 44.872012 
L 245.524526 32.574073 
" style="fill:none;stroke:#424242;"/>
   </g>
   <g id="line2d_68">
    <path clip-path="url(#p55a2a7829e)" d="M 243.404229 44.872012 
L 247.644823 44.872012 
" style="fill:none;stroke:#424242;"/>
   </g>
   <g id="line2d_69">
    <path clip-path="url(#p55a2a7829e)" d="M 243.404229 32.574073 
L 247.644823 32.574073 
" style="fill:none;stroke:#424242;"/>
   </g>
   <g id="patch_23">
    <path d="M 41.976 214.2 
L 41.976 30.24 
" style="fill:none;stroke:#cccccc;stroke-linecap:square;stroke-linejoin:miter;stroke-width:1.25;"/>
   </g>
   <g id="patch_24">
    <path d="M 254.005714 214.2 
L 254.005714 30.24 
" style="fill:none;stroke:#cccccc;stroke-linecap:square;stroke-linejoin:miter;stroke-width:1.25;"/>
   </g>
   <g id="patch_25">
    <path d="M 41.976 214.2 
L 254.005714 214.2 
" style="fill:none;stroke:#cccccc;stroke-linecap:square;stroke-linejoin:miter;stroke-width:1.25;"/>
   </g>
   <g id="patch_26">
    <path d="M 41.976 30.24 
L 254.005714 30.24 
" style="fill:none;stroke:#cccccc;stroke-linecap:square;stroke-linejoin:miter;stroke-width:1.25;"/>
   </g>
   <g id="legend_1">
    <g id="patch_27">
     <path d="M 43.394811 17.225081 
L 65.394811 17.225081 
L 65.394811 9.525081 
L 43.394811 9.525081 
z
" style="fill:url(#h07f16aa7d8);stroke:#666666;stroke-linejoin:miter;"/>
    </g>
    <g id="text_17">
     <!-- Random Feat. -->
     <defs>
      <path d="M 44.390625 34.1875 
Q 47.5625 33.109375 50.5625 29.59375 
Q 53.5625 26.078125 56.59375 19.921875 
L 66.609375 0 
L 56 0 
L 46.6875 18.703125 
Q 43.0625 26.03125 39.671875 28.421875 
Q 36.28125 30.8125 30.421875 30.8125 
L 19.671875 30.8125 
L 19.671875 0 
L 9.8125 0 
L 9.8125 72.90625 
L 32.078125 72.90625 
Q 44.578125 72.90625 50.734375 67.671875 
Q 56.890625 62.453125 56.890625 51.90625 
Q 56.890625 45.015625 53.6875 40.46875 
Q 50.484375 35.9375 44.390625 34.1875 
z
M 19.671875 64.796875 
L 19.671875 38.921875 
L 32.078125 38.921875 
Q 39.203125 38.921875 42.84375 42.21875 
Q 46.484375 45.515625 46.484375 51.90625 
Q 46.484375 58.296875 42.84375 61.546875 
Q 39.203125 64.796875 32.078125 64.796875 
z
" id="DejaVuSans-82"/>
      <path d="M 45.40625 46.390625 
L 45.40625 75.984375 
L 54.390625 75.984375 
L 54.390625 0 
L 45.40625 0 
L 45.40625 8.203125 
Q 42.578125 3.328125 38.25 0.953125 
Q 33.9375 -1.421875 27.875 -1.421875 
Q 17.96875 -1.421875 11.734375 6.484375 
Q 5.515625 14.40625 5.515625 27.296875 
Q 5.515625 40.1875 11.734375 48.09375 
Q 17.96875 56 27.875 56 
Q 33.9375 56 38.25 53.625 
Q 42.578125 51.265625 45.40625 46.390625 
z
M 14.796875 27.296875 
Q 14.796875 17.390625 18.875 11.75 
Q 22.953125 6.109375 30.078125 6.109375 
Q 37.203125 6.109375 41.296875 11.75 
Q 45.40625 17.390625 45.40625 27.296875 
Q 45.40625 37.203125 41.296875 42.84375 
Q 37.203125 48.484375 30.078125 48.484375 
Q 22.953125 48.484375 18.875 42.84375 
Q 14.796875 37.203125 14.796875 27.296875 
z
" id="DejaVuSans-100"/>
      <path d="M 52 44.1875 
Q 55.375 50.25 60.0625 53.125 
Q 64.75 56 71.09375 56 
Q 79.640625 56 84.28125 50.015625 
Q 88.921875 44.046875 88.921875 33.015625 
L 88.921875 0 
L 79.890625 0 
L 79.890625 32.71875 
Q 79.890625 40.578125 77.09375 44.375 
Q 74.3125 48.1875 68.609375 48.1875 
Q 61.625 48.1875 57.5625 43.546875 
Q 53.515625 38.921875 53.515625 30.90625 
L 53.515625 0 
L 44.484375 0 
L 44.484375 32.71875 
Q 44.484375 40.625 41.703125 44.40625 
Q 38.921875 48.1875 33.109375 48.1875 
Q 26.21875 48.1875 22.15625 43.53125 
Q 18.109375 38.875 18.109375 30.90625 
L 18.109375 0 
L 9.078125 0 
L 9.078125 54.6875 
L 18.109375 54.6875 
L 18.109375 46.1875 
Q 21.1875 51.21875 25.484375 53.609375 
Q 29.78125 56 35.6875 56 
Q 41.65625 56 45.828125 52.96875 
Q 50 49.953125 52 44.1875 
z
" id="DejaVuSans-109"/>
      <path d="M 9.8125 72.90625 
L 51.703125 72.90625 
L 51.703125 64.59375 
L 19.671875 64.59375 
L 19.671875 43.109375 
L 48.578125 43.109375 
L 48.578125 34.8125 
L 19.671875 34.8125 
L 19.671875 0 
L 9.8125 0 
z
" id="DejaVuSans-70"/>
      <path d="M 18.3125 70.21875 
L 18.3125 54.6875 
L 36.8125 54.6875 
L 36.8125 47.703125 
L 18.3125 47.703125 
L 18.3125 18.015625 
Q 18.3125 11.328125 20.140625 9.421875 
Q 21.96875 7.515625 27.59375 7.515625 
L 36.8125 7.515625 
L 36.8125 0 
L 27.59375 0 
Q 17.1875 0 13.234375 3.875 
Q 9.28125 7.765625 9.28125 18.015625 
L 9.28125 47.703125 
L 2.6875 47.703125 
L 2.6875 54.6875 
L 9.28125 54.6875 
L 9.28125 70.21875 
z
" id="DejaVuSans-116"/>
      <path d="M 10.6875 12.40625 
L 21 12.40625 
L 21 0 
L 10.6875 0 
z
" id="DejaVuSans-46"/>
     </defs>
     <g style="fill:#262626;" transform="translate(74.194811 17.225081)scale(0.11 -0.11)">
      <use xlink:href="#DejaVuSans-82"/>
      <use x="69.451172" xlink:href="#DejaVuSans-97"/>
      <use x="130.730469" xlink:href="#DejaVuSans-110"/>
      <use x="194.109375" xlink:href="#DejaVuSans-100"/>
      <use x="257.585938" xlink:href="#DejaVuSans-111"/>
      <use x="318.767578" xlink:href="#DejaVuSans-109"/>
      <use x="416.179688" xlink:href="#DejaVuSans-32"/>
      <use x="447.966797" xlink:href="#DejaVuSans-70"/>
      <use x="505.408203" xlink:href="#DejaVuSans-101"/>
      <use x="566.931641" xlink:href="#DejaVuSans-97"/>
      <use x="628.210938" xlink:href="#DejaVuSans-116"/>
      <use x="667.419922" xlink:href="#DejaVuSans-46"/>
     </g>
    </g>
    <g id="patch_28">
     <path d="M 173.107155 17.225081 
L 195.107155 17.225081 
L 195.107155 9.525081 
L 173.107155 9.525081 
z
" style="fill:url(#h0ed1c1ecd7);stroke:#666666;stroke-linejoin:miter;"/>
    </g>
    <g id="text_18">
     <!-- Gaze-VAM -->
     <defs>
      <path d="M 59.515625 10.40625 
L 59.515625 29.984375 
L 43.40625 29.984375 
L 43.40625 38.09375 
L 69.28125 38.09375 
L 69.28125 6.78125 
Q 63.578125 2.734375 56.6875 0.65625 
Q 49.8125 -1.421875 42 -1.421875 
Q 24.90625 -1.421875 15.25 8.5625 
Q 5.609375 18.5625 5.609375 36.375 
Q 5.609375 54.25 15.25 64.234375 
Q 24.90625 74.21875 42 74.21875 
Q 49.125 74.21875 55.546875 72.453125 
Q 61.96875 70.703125 67.390625 67.28125 
L 67.390625 56.78125 
Q 61.921875 61.421875 55.765625 63.765625 
Q 49.609375 66.109375 42.828125 66.109375 
Q 29.4375 66.109375 22.71875 58.640625 
Q 16.015625 51.171875 16.015625 36.375 
Q 16.015625 21.625 22.71875 14.15625 
Q 29.4375 6.6875 42.828125 6.6875 
Q 48.046875 6.6875 52.140625 7.59375 
Q 56.25 8.5 59.515625 10.40625 
z
" id="DejaVuSans-71"/>
      <path d="M 5.515625 54.6875 
L 48.1875 54.6875 
L 48.1875 46.484375 
L 14.40625 7.171875 
L 48.1875 7.171875 
L 48.1875 0 
L 4.296875 0 
L 4.296875 8.203125 
L 38.09375 47.515625 
L 5.515625 47.515625 
z
" id="DejaVuSans-122"/>
      <path d="M 4.890625 31.390625 
L 31.203125 31.390625 
L 31.203125 23.390625 
L 4.890625 23.390625 
z
" id="DejaVuSans-45"/>
      <path d="M 28.609375 0 
L 0.78125 72.90625 
L 11.078125 72.90625 
L 34.1875 11.53125 
L 57.328125 72.90625 
L 67.578125 72.90625 
L 39.796875 0 
z
" id="DejaVuSans-86"/>
      <path d="M 34.1875 63.1875 
L 20.796875 26.90625 
L 47.609375 26.90625 
z
M 28.609375 72.90625 
L 39.796875 72.90625 
L 67.578125 0 
L 57.328125 0 
L 50.6875 18.703125 
L 17.828125 18.703125 
L 11.1875 0 
L 0.78125 0 
z
" id="DejaVuSans-65"/>
      <path d="M 9.8125 72.90625 
L 24.515625 72.90625 
L 43.109375 23.296875 
L 61.8125 72.90625 
L 76.515625 72.90625 
L 76.515625 0 
L 66.890625 0 
L 66.890625 64.015625 
L 48.09375 14.015625 
L 38.1875 14.015625 
L 19.390625 64.015625 
L 19.390625 0 
L 9.8125 0 
z
" id="DejaVuSans-77"/>
     </defs>
     <g style="fill:#262626;" transform="translate(203.907155 17.225081)scale(0.11 -0.11)">
      <use xlink:href="#DejaVuSans-71"/>
      <use x="77.490234" xlink:href="#DejaVuSans-97"/>
      <use x="138.769531" xlink:href="#DejaVuSans-122"/>
      <use x="191.259766" xlink:href="#DejaVuSans-101"/>
      <use x="252.783203" xlink:href="#DejaVuSans-45"/>
      <use x="288.789062" xlink:href="#DejaVuSans-86"/>
      <use x="357.103516" xlink:href="#DejaVuSans-65"/>
      <use x="425.511719" xlink:href="#DejaVuSans-77"/>
     </g>
    </g>
    <g id="patch_29">
     <path d="M 282.203093 17.225081 
L 304.203093 17.225081 
L 304.203093 9.525081 
L 282.203093 9.525081 
z
" style="fill:url(#h3b11bd3868);stroke:#666666;stroke-linejoin:miter;"/>
    </g>
    <g id="text_19">
     <!-- Saliency-VAM -->
     <defs>
      <path d="M 53.515625 70.515625 
L 53.515625 60.890625 
Q 47.90625 63.578125 42.921875 64.890625 
Q 37.9375 66.21875 33.296875 66.21875 
Q 25.25 66.21875 20.875 63.09375 
Q 16.5 59.96875 16.5 54.203125 
Q 16.5 49.359375 19.40625 46.890625 
Q 22.3125 44.4375 30.421875 42.921875 
L 36.375 41.703125 
Q 47.40625 39.59375 52.65625 34.296875 
Q 57.90625 29 57.90625 20.125 
Q 57.90625 9.515625 50.796875 4.046875 
Q 43.703125 -1.421875 29.984375 -1.421875 
Q 24.8125 -1.421875 18.96875 -0.25 
Q 13.140625 0.921875 6.890625 3.21875 
L 6.890625 13.375 
Q 12.890625 10.015625 18.65625 8.296875 
Q 24.421875 6.59375 29.984375 6.59375 
Q 38.421875 6.59375 43.015625 9.90625 
Q 47.609375 13.234375 47.609375 19.390625 
Q 47.609375 24.75 44.3125 27.78125 
Q 41.015625 30.8125 33.5 32.328125 
L 27.484375 33.5 
Q 16.453125 35.6875 11.515625 40.375 
Q 6.59375 45.0625 6.59375 53.421875 
Q 6.59375 63.09375 13.40625 68.65625 
Q 20.21875 74.21875 32.171875 74.21875 
Q 37.3125 74.21875 42.625 73.28125 
Q 47.953125 72.359375 53.515625 70.515625 
z
" id="DejaVuSans-83"/>
      <path d="M 9.421875 75.984375 
L 18.40625 75.984375 
L 18.40625 0 
L 9.421875 0 
z
" id="DejaVuSans-108"/>
     </defs>
     <g style="fill:#262626;" transform="translate(313.003093 17.225081)scale(0.11 -0.11)">
      <use xlink:href="#DejaVuSans-83"/>
      <use x="63.476562" xlink:href="#DejaVuSans-97"/>
      <use x="124.755859" xlink:href="#DejaVuSans-108"/>
      <use x="152.539062" xlink:href="#DejaVuSans-105"/>
      <use x="180.322266" xlink:href="#DejaVuSans-101"/>
      <use x="241.845703" xlink:href="#DejaVuSans-110"/>
      <use x="305.224609" xlink:href="#DejaVuSans-99"/>
      <use x="360.205078" xlink:href="#DejaVuSans-121"/>
      <use x="419.369141" xlink:href="#DejaVuSans-45"/>
      <use x="455.375" xlink:href="#DejaVuSans-86"/>
      <use x="523.689453" xlink:href="#DejaVuSans-65"/>
      <use x="592.097656" xlink:href="#DejaVuSans-77"/>
     </g>
    </g>
    <g id="patch_30">
     <path d="M 409.626061 17.225081 
L 431.626061 17.225081 
L 431.626061 9.525081 
L 409.626061 9.525081 
z
" style="fill:url(#h24cf3ac0e7);stroke:#666666;stroke-linejoin:miter;"/>
    </g>
    <g id="text_20">
     <!-- SonoNet -->
     <g style="fill:#262626;" transform="translate(440.426061 17.225081)scale(0.11 -0.11)">
      <use xlink:href="#DejaVuSans-83"/>
      <use x="63.476562" xlink:href="#DejaVuSans-111"/>
      <use x="124.658203" xlink:href="#DejaVuSans-110"/>
      <use x="188.037109" xlink:href="#DejaVuSans-111"/>
      <use x="249.21875" xlink:href="#DejaVuSans-78"/>
      <use x="324.023438" xlink:href="#DejaVuSans-101"/>
      <use x="385.546875" xlink:href="#DejaVuSans-116"/>
     </g>
    </g>
   </g>
  </g>
  <g id="axes_2">
   <g id="patch_31">
    <path d="M 307.013143 214.2 
L 519.042857 214.2 
L 519.042857 30.24 
L 307.013143 30.24 
z
" style="fill:#ffffff;"/>
   </g>
   <g id="matplotlib.axis_3">
    <g id="xtick_6">
     <g id="text_21">
      <!-- 1 -->
      <g style="fill:#262626;" transform="translate(324.716739 232.058281)scale(0.11 -0.11)">
       <use xlink:href="#DejaVuSans-49"/>
      </g>
     </g>
    </g>
    <g id="xtick_7">
     <g id="text_22">
      <!-- 2 -->
      <g style="fill:#262626;" transform="translate(367.122682 232.058281)scale(0.11 -0.11)">
       <use xlink:href="#DejaVuSans-50"/>
      </g>
     </g>
    </g>
    <g id="xtick_8">
     <g id="text_23">
      <!-- 3 -->
      <g style="fill:#262626;" transform="translate(409.528625 232.058281)scale(0.11 -0.11)">
       <use xlink:href="#DejaVuSans-51"/>
      </g>
     </g>
    </g>
    <g id="xtick_9">
     <g id="text_24">
      <!-- 4 -->
      <g style="fill:#262626;" transform="translate(451.934568 232.058281)scale(0.11 -0.11)">
       <use xlink:href="#DejaVuSans-52"/>
      </g>
     </g>
    </g>
    <g id="xtick_10">
     <g id="text_25">
      <!-- 5 -->
      <g style="fill:#262626;" transform="translate(494.340511 232.058281)scale(0.11 -0.11)">
       <use xlink:href="#DejaVuSans-53"/>
      </g>
     </g>
    </g>
    <g id="text_26">
     <!-- CNN Layer -->
     <g style="fill:#262626;" transform="translate(381.22425 247.464063)scale(0.12 -0.12)">
      <use xlink:href="#DejaVuSans-67"/>
      <use x="69.824219" xlink:href="#DejaVuSans-78"/>
      <use x="144.628906" xlink:href="#DejaVuSans-78"/>
      <use x="219.433594" xlink:href="#DejaVuSans-32"/>
      <use x="251.220703" xlink:href="#DejaVuSans-76"/>
      <use x="306.933594" xlink:href="#DejaVuSans-97"/>
      <use x="368.212891" xlink:href="#DejaVuSans-121"/>
      <use x="427.392578" xlink:href="#DejaVuSans-101"/>
      <use x="488.916016" xlink:href="#DejaVuSans-114"/>
     </g>
    </g>
   </g>
   <g id="matplotlib.axis_4">
    <g id="ytick_10">
     <g id="line2d_70">
      <path clip-path="url(#p5cd5b672cf)" d="M 307.013143 214.2 
L 519.042857 214.2 
" style="fill:none;stroke:#cccccc;"/>
     </g>
     <g id="text_27">
      <!-- 0 -->
      <g style="fill:#262626;" transform="translate(290.514393 218.379141)scale(0.11 -0.11)">
       <use xlink:href="#DejaVuSans-48"/>
      </g>
     </g>
    </g>
    <g id="ytick_11">
     <g id="line2d_71">
      <path clip-path="url(#p5cd5b672cf)" d="M 307.013143 193.055172 
L 519.042857 193.055172 
" style="fill:none;stroke:#cccccc;"/>
     </g>
     <g id="text_28">
      <!-- 10 -->
      <g style="fill:#262626;" transform="translate(283.515643 197.234313)scale(0.11 -0.11)">
       <use xlink:href="#DejaVuSans-49"/>
       <use x="63.623047" xlink:href="#DejaVuSans-48"/>
      </g>
     </g>
    </g>
    <g id="ytick_12">
     <g id="line2d_72">
      <path clip-path="url(#p5cd5b672cf)" d="M 307.013143 171.910345 
L 519.042857 171.910345 
" style="fill:none;stroke:#cccccc;"/>
     </g>
     <g id="text_29">
      <!-- 20 -->
      <g style="fill:#262626;" transform="translate(283.515643 176.089485)scale(0.11 -0.11)">
       <use xlink:href="#DejaVuSans-50"/>
       <use x="63.623047" xlink:href="#DejaVuSans-48"/>
      </g>
     </g>
    </g>
    <g id="ytick_13">
     <g id="line2d_73">
      <path clip-path="url(#p5cd5b672cf)" d="M 307.013143 150.765517 
L 519.042857 150.765517 
" style="fill:none;stroke:#cccccc;"/>
     </g>
     <g id="text_30">
      <!-- 30 -->
      <g style="fill:#262626;" transform="translate(283.515643 154.944658)scale(0.11 -0.11)">
       <use xlink:href="#DejaVuSans-51"/>
       <use x="63.623047" xlink:href="#DejaVuSans-48"/>
      </g>
     </g>
    </g>
    <g id="ytick_14">
     <g id="line2d_74">
      <path clip-path="url(#p5cd5b672cf)" d="M 307.013143 129.62069 
L 519.042857 129.62069 
" style="fill:none;stroke:#cccccc;"/>
     </g>
     <g id="text_31">
      <!-- 40 -->
      <g style="fill:#262626;" transform="translate(283.515643 133.79983)scale(0.11 -0.11)">
       <use xlink:href="#DejaVuSans-52"/>
       <use x="63.623047" xlink:href="#DejaVuSans-48"/>
      </g>
     </g>
    </g>
    <g id="ytick_15">
     <g id="line2d_75">
      <path clip-path="url(#p5cd5b672cf)" d="M 307.013143 108.475862 
L 519.042857 108.475862 
" style="fill:none;stroke:#cccccc;"/>
     </g>
     <g id="text_32">
      <!-- 50 -->
      <g style="fill:#262626;" transform="translate(283.515643 112.655003)scale(0.11 -0.11)">
       <use xlink:href="#DejaVuSans-53"/>
       <use x="63.623047" xlink:href="#DejaVuSans-48"/>
      </g>
     </g>
    </g>
    <g id="ytick_16">
     <g id="line2d_76">
      <path clip-path="url(#p5cd5b672cf)" d="M 307.013143 87.331034 
L 519.042857 87.331034 
" style="fill:none;stroke:#cccccc;"/>
     </g>
     <g id="text_33">
      <!-- 60 -->
      <g style="fill:#262626;" transform="translate(283.515643 91.510175)scale(0.11 -0.11)">
       <use xlink:href="#DejaVuSans-54"/>
       <use x="63.623047" xlink:href="#DejaVuSans-48"/>
      </g>
     </g>
    </g>
    <g id="ytick_17">
     <g id="line2d_77">
      <path clip-path="url(#p5cd5b672cf)" d="M 307.013143 66.186207 
L 519.042857 66.186207 
" style="fill:none;stroke:#cccccc;"/>
     </g>
     <g id="text_34">
      <!-- 70 -->
      <g style="fill:#262626;" transform="translate(283.515643 70.365348)scale(0.11 -0.11)">
       <use xlink:href="#DejaVuSans-55"/>
       <use x="63.623047" xlink:href="#DejaVuSans-48"/>
      </g>
     </g>
    </g>
    <g id="ytick_18">
     <g id="line2d_78">
      <path clip-path="url(#p5cd5b672cf)" d="M 307.013143 45.041379 
L 519.042857 45.041379 
" style="fill:none;stroke:#cccccc;"/>
     </g>
     <g id="text_35">
      <!-- 80 -->
      <g style="fill:#262626;" transform="translate(283.515643 49.22052)scale(0.11 -0.11)">
       <use xlink:href="#DejaVuSans-56"/>
       <use x="63.623047" xlink:href="#DejaVuSans-48"/>
      </g>
     </g>
    </g>
    <g id="text_36">
     <!-- Recall [%] -->
     <g style="fill:#262626;" transform="translate(277.020018 152.676562)rotate(-90)scale(0.12 -0.12)">
      <use xlink:href="#DejaVuSans-82"/>
      <use x="69.419922" xlink:href="#DejaVuSans-101"/>
      <use x="130.943359" xlink:href="#DejaVuSans-99"/>
      <use x="185.923828" xlink:href="#DejaVuSans-97"/>
      <use x="247.203125" xlink:href="#DejaVuSans-108"/>
      <use x="274.986328" xlink:href="#DejaVuSans-108"/>
      <use x="302.769531" xlink:href="#DejaVuSans-32"/>
      <use x="334.556641" xlink:href="#DejaVuSans-91"/>
      <use x="373.570312" xlink:href="#DejaVuSans-37"/>
      <use x="468.589844" xlink:href="#DejaVuSans-93"/>
     </g>
    </g>
   </g>
   <g id="patch_32">
    <path clip-path="url(#p5cd5b672cf)" d="M 311.253737 214.2 
L 319.734926 214.2 
L 319.734926 142.170783 
L 311.253737 142.170783 
z
" style="fill:url(#h07f16aa7d8);stroke:#666666;stroke-linejoin:miter;"/>
   </g>
   <g id="patch_33">
    <path clip-path="url(#p5cd5b672cf)" d="M 353.65968 214.2 
L 362.140869 214.2 
L 362.140869 124.381462 
L 353.65968 124.381462 
z
" style="fill:url(#h07f16aa7d8);stroke:#666666;stroke-linejoin:miter;"/>
   </g>
   <g id="patch_34">
    <path clip-path="url(#p5cd5b672cf)" d="M 396.065623 214.2 
L 404.546811 214.2 
L 404.546811 121.21094 
L 396.065623 121.21094 
z
" style="fill:url(#h07f16aa7d8);stroke:#666666;stroke-linejoin:miter;"/>
   </g>
   <g id="patch_35">
    <path clip-path="url(#p5cd5b672cf)" d="M 438.471566 214.2 
L 446.952754 214.2 
L 446.952754 122.303716 
L 438.471566 122.303716 
z
" style="fill:url(#h07f16aa7d8);stroke:#666666;stroke-linejoin:miter;"/>
   </g>
   <g id="patch_36">
    <path clip-path="url(#p5cd5b672cf)" d="M 480.877509 214.2 
L 489.358697 214.2 
L 489.358697 128.35921 
L 480.877509 128.35921 
z
" style="fill:url(#h07f16aa7d8);stroke:#666666;stroke-linejoin:miter;"/>
   </g>
   <g id="patch_37">
    <path clip-path="url(#p5cd5b672cf)" d="M 319.734926 214.2 
L 328.216114 214.2 
L 328.216114 157.830939 
L 319.734926 157.830939 
z
" style="fill:url(#h0ed1c1ecd7);stroke:#666666;stroke-linejoin:miter;"/>
   </g>
   <g id="patch_38">
    <path clip-path="url(#p5cd5b672cf)" d="M 362.140869 214.2 
L 370.622057 214.2 
L 370.622057 122.576265 
L 362.140869 122.576265 
z
" style="fill:url(#h0ed1c1ecd7);stroke:#666666;stroke-linejoin:miter;"/>
   </g>
   <g id="patch_39">
    <path clip-path="url(#p5cd5b672cf)" d="M 404.546811 214.2 
L 413.028 214.2 
L 413.028 112.03533 
L 404.546811 112.03533 
z
" style="fill:url(#h0ed1c1ecd7);stroke:#666666;stroke-linejoin:miter;"/>
   </g>
   <g id="patch_40">
    <path clip-path="url(#p5cd5b672cf)" d="M 446.952754 214.2 
L 455.433943 214.2 
L 455.433943 102.606791 
L 446.952754 102.606791 
z
" style="fill:url(#h0ed1c1ecd7);stroke:#666666;stroke-linejoin:miter;"/>
   </g>
   <g id="patch_41">
    <path clip-path="url(#p5cd5b672cf)" d="M 489.358697 214.2 
L 497.839886 214.2 
L 497.839886 106.35877 
L 489.358697 106.35877 
z
" style="fill:url(#h0ed1c1ecd7);stroke:#666666;stroke-linejoin:miter;"/>
   </g>
   <g id="patch_42">
    <path clip-path="url(#p5cd5b672cf)" d="M 328.216114 214.2 
L 336.697303 214.2 
L 336.697303 160.868395 
L 328.216114 160.868395 
z
" style="fill:url(#h3b11bd3868);stroke:#666666;stroke-linejoin:miter;"/>
   </g>
   <g id="patch_43">
    <path clip-path="url(#p5cd5b672cf)" d="M 370.622057 214.2 
L 379.103246 214.2 
L 379.103246 118.429421 
L 370.622057 118.429421 
z
" style="fill:url(#h3b11bd3868);stroke:#666666;stroke-linejoin:miter;"/>
   </g>
   <g id="patch_44">
    <path clip-path="url(#p5cd5b672cf)" d="M 413.028 214.2 
L 421.509189 214.2 
L 421.509189 105.447793 
L 413.028 105.447793 
z
" style="fill:url(#h3b11bd3868);stroke:#666666;stroke-linejoin:miter;"/>
   </g>
   <g id="patch_45">
    <path clip-path="url(#p5cd5b672cf)" d="M 455.433943 214.2 
L 463.915131 214.2 
L 463.915131 89.764105 
L 455.433943 89.764105 
z
" style="fill:url(#h3b11bd3868);stroke:#666666;stroke-linejoin:miter;"/>
   </g>
   <g id="patch_46">
    <path clip-path="url(#p5cd5b672cf)" d="M 497.839886 214.2 
L 506.321074 214.2 
L 506.321074 88.343323 
L 497.839886 88.343323 
z
" style="fill:url(#h3b11bd3868);stroke:#666666;stroke-linejoin:miter;"/>
   </g>
   <g id="patch_47">
    <path clip-path="url(#p5cd5b672cf)" d="M 336.697303 214.2 
L 345.178491 214.2 
L 345.178491 145.231871 
L 336.697303 145.231871 
z
" style="fill:url(#h24cf3ac0e7);stroke:#666666;stroke-linejoin:miter;"/>
   </g>
   <g id="patch_48">
    <path clip-path="url(#p5cd5b672cf)" d="M 379.103246 214.2 
L 387.584434 214.2 
L 387.584434 117.035616 
L 379.103246 117.035616 
z
" style="fill:url(#h24cf3ac0e7);stroke:#666666;stroke-linejoin:miter;"/>
   </g>
   <g id="patch_49">
    <path clip-path="url(#p5cd5b672cf)" d="M 421.509189 214.2 
L 429.990377 214.2 
L 429.990377 104.663646 
L 421.509189 104.663646 
z
" style="fill:url(#h24cf3ac0e7);stroke:#666666;stroke-linejoin:miter;"/>
   </g>
   <g id="patch_50">
    <path clip-path="url(#p5cd5b672cf)" d="M 463.915131 214.2 
L 472.39632 214.2 
L 472.39632 86.23073 
L 463.915131 86.23073 
z
" style="fill:url(#h24cf3ac0e7);stroke:#666666;stroke-linejoin:miter;"/>
   </g>
   <g id="patch_51">
    <path clip-path="url(#p5cd5b672cf)" d="M 506.321074 214.2 
L 514.802263 214.2 
L 514.802263 59.662935 
L 506.321074 59.662935 
z
" style="fill:url(#h24cf3ac0e7);stroke:#666666;stroke-linejoin:miter;"/>
   </g>
   <g id="line2d_79">
    <path clip-path="url(#p5cd5b672cf)" d="M 315.494331 143.002539 
L 315.494331 141.339027 
" style="fill:none;stroke:#424242;"/>
   </g>
   <g id="line2d_80">
    <path clip-path="url(#p5cd5b672cf)" d="M 313.374034 143.002539 
L 317.614629 143.002539 
" style="fill:none;stroke:#424242;"/>
   </g>
   <g id="line2d_81">
    <path clip-path="url(#p5cd5b672cf)" d="M 313.374034 141.339027 
L 317.614629 141.339027 
" style="fill:none;stroke:#424242;"/>
   </g>
   <g id="line2d_82">
    <path clip-path="url(#p5cd5b672cf)" d="M 357.900274 129.581002 
L 357.900274 119.181922 
" style="fill:none;stroke:#424242;"/>
   </g>
   <g id="line2d_83">
    <path clip-path="url(#p5cd5b672cf)" d="M 355.779977 129.581002 
L 360.020571 129.581002 
" style="fill:none;stroke:#424242;"/>
   </g>
   <g id="line2d_84">
    <path clip-path="url(#p5cd5b672cf)" d="M 355.779977 119.181922 
L 360.020571 119.181922 
" style="fill:none;stroke:#424242;"/>
   </g>
   <g id="line2d_85">
    <path clip-path="url(#p5cd5b672cf)" d="M 400.306217 125.251553 
L 400.306217 117.170326 
" style="fill:none;stroke:#424242;"/>
   </g>
   <g id="line2d_86">
    <path clip-path="url(#p5cd5b672cf)" d="M 398.18592 125.251553 
L 402.426514 125.251553 
" style="fill:none;stroke:#424242;"/>
   </g>
   <g id="line2d_87">
    <path clip-path="url(#p5cd5b672cf)" d="M 398.18592 117.170326 
L 402.426514 117.170326 
" style="fill:none;stroke:#424242;"/>
   </g>
   <g id="line2d_88">
    <path clip-path="url(#p5cd5b672cf)" d="M 442.71216 126.266335 
L 442.71216 118.341097 
" style="fill:none;stroke:#424242;"/>
   </g>
   <g id="line2d_89">
    <path clip-path="url(#p5cd5b672cf)" d="M 440.591863 126.266335 
L 444.832457 126.266335 
" style="fill:none;stroke:#424242;"/>
   </g>
   <g id="line2d_90">
    <path clip-path="url(#p5cd5b672cf)" d="M 440.591863 118.341097 
L 444.832457 118.341097 
" style="fill:none;stroke:#424242;"/>
   </g>
   <g id="line2d_91">
    <path clip-path="url(#p5cd5b672cf)" d="M 485.118103 133.493438 
L 485.118103 123.224981 
" style="fill:none;stroke:#424242;"/>
   </g>
   <g id="line2d_92">
    <path clip-path="url(#p5cd5b672cf)" d="M 482.997806 133.493438 
L 487.2384 133.493438 
" style="fill:none;stroke:#424242;"/>
   </g>
   <g id="line2d_93">
    <path clip-path="url(#p5cd5b672cf)" d="M 482.997806 123.224981 
L 487.2384 123.224981 
" style="fill:none;stroke:#424242;"/>
   </g>
   <g id="line2d_94">
    <path clip-path="url(#p5cd5b672cf)" d="M 323.97552 159.345905 
L 323.97552 156.315973 
" style="fill:none;stroke:#424242;"/>
   </g>
   <g id="line2d_95">
    <path clip-path="url(#p5cd5b672cf)" d="M 321.855223 159.345905 
L 326.095817 159.345905 
" style="fill:none;stroke:#424242;"/>
   </g>
   <g id="line2d_96">
    <path clip-path="url(#p5cd5b672cf)" d="M 321.855223 156.315973 
L 326.095817 156.315973 
" style="fill:none;stroke:#424242;"/>
   </g>
   <g id="line2d_97">
    <path clip-path="url(#p5cd5b672cf)" d="M 366.381463 123.773046 
L 366.381463 121.379483 
" style="fill:none;stroke:#424242;"/>
   </g>
   <g id="line2d_98">
    <path clip-path="url(#p5cd5b672cf)" d="M 364.261166 123.773046 
L 368.50176 123.773046 
" style="fill:none;stroke:#424242;"/>
   </g>
   <g id="line2d_99">
    <path clip-path="url(#p5cd5b672cf)" d="M 364.261166 121.379483 
L 368.50176 121.379483 
" style="fill:none;stroke:#424242;"/>
   </g>
   <g id="line2d_100">
    <path clip-path="url(#p5cd5b672cf)" d="M 408.787406 115.859805 
L 408.787406 108.210855 
" style="fill:none;stroke:#424242;"/>
   </g>
   <g id="line2d_101">
    <path clip-path="url(#p5cd5b672cf)" d="M 406.667109 115.859805 
L 410.907703 115.859805 
" style="fill:none;stroke:#424242;"/>
   </g>
   <g id="line2d_102">
    <path clip-path="url(#p5cd5b672cf)" d="M 406.667109 108.210855 
L 410.907703 108.210855 
" style="fill:none;stroke:#424242;"/>
   </g>
   <g id="line2d_103">
    <path clip-path="url(#p5cd5b672cf)" d="M 451.193349 106.992577 
L 451.193349 98.221004 
" style="fill:none;stroke:#424242;"/>
   </g>
   <g id="line2d_104">
    <path clip-path="url(#p5cd5b672cf)" d="M 449.073051 106.992577 
L 453.313646 106.992577 
" style="fill:none;stroke:#424242;"/>
   </g>
   <g id="line2d_105">
    <path clip-path="url(#p5cd5b672cf)" d="M 449.073051 98.221004 
L 453.313646 98.221004 
" style="fill:none;stroke:#424242;"/>
   </g>
   <g id="line2d_106">
    <path clip-path="url(#p5cd5b672cf)" d="M 493.599291 110.131455 
L 493.599291 102.586085 
" style="fill:none;stroke:#424242;"/>
   </g>
   <g id="line2d_107">
    <path clip-path="url(#p5cd5b672cf)" d="M 491.478994 110.131455 
L 495.719589 110.131455 
" style="fill:none;stroke:#424242;"/>
   </g>
   <g id="line2d_108">
    <path clip-path="url(#p5cd5b672cf)" d="M 491.478994 102.586085 
L 495.719589 102.586085 
" style="fill:none;stroke:#424242;"/>
   </g>
   <g id="line2d_109">
    <path clip-path="url(#p5cd5b672cf)" d="M 332.456709 165.397993 
L 332.456709 156.338798 
" style="fill:none;stroke:#424242;"/>
   </g>
   <g id="line2d_110">
    <path clip-path="url(#p5cd5b672cf)" d="M 330.336411 165.397993 
L 334.577006 165.397993 
" style="fill:none;stroke:#424242;"/>
   </g>
   <g id="line2d_111">
    <path clip-path="url(#p5cd5b672cf)" d="M 330.336411 156.338798 
L 334.577006 156.338798 
" style="fill:none;stroke:#424242;"/>
   </g>
   <g id="line2d_112">
    <path clip-path="url(#p5cd5b672cf)" d="M 374.862651 125.503108 
L 374.862651 111.355733 
" style="fill:none;stroke:#424242;"/>
   </g>
   <g id="line2d_113">
    <path clip-path="url(#p5cd5b672cf)" d="M 372.742354 125.503108 
L 376.982949 125.503108 
" style="fill:none;stroke:#424242;"/>
   </g>
   <g id="line2d_114">
    <path clip-path="url(#p5cd5b672cf)" d="M 372.742354 111.355733 
L 376.982949 111.355733 
" style="fill:none;stroke:#424242;"/>
   </g>
   <g id="line2d_115">
    <path clip-path="url(#p5cd5b672cf)" d="M 417.268594 114.576263 
L 417.268594 96.319323 
" style="fill:none;stroke:#424242;"/>
   </g>
   <g id="line2d_116">
    <path clip-path="url(#p5cd5b672cf)" d="M 415.148297 114.576263 
L 419.388891 114.576263 
" style="fill:none;stroke:#424242;"/>
   </g>
   <g id="line2d_117">
    <path clip-path="url(#p5cd5b672cf)" d="M 415.148297 96.319323 
L 419.388891 96.319323 
" style="fill:none;stroke:#424242;"/>
   </g>
   <g id="line2d_118">
    <path clip-path="url(#p5cd5b672cf)" d="M 459.674537 98.227023 
L 459.674537 81.301187 
" style="fill:none;stroke:#424242;"/>
   </g>
   <g id="line2d_119">
    <path clip-path="url(#p5cd5b672cf)" d="M 457.55424 98.227023 
L 461.794834 98.227023 
" style="fill:none;stroke:#424242;"/>
   </g>
   <g id="line2d_120">
    <path clip-path="url(#p5cd5b672cf)" d="M 457.55424 81.301187 
L 461.794834 81.301187 
" style="fill:none;stroke:#424242;"/>
   </g>
   <g id="line2d_121">
    <path clip-path="url(#p5cd5b672cf)" d="M 502.08048 96.522602 
L 502.08048 80.164045 
" style="fill:none;stroke:#424242;"/>
   </g>
   <g id="line2d_122">
    <path clip-path="url(#p5cd5b672cf)" d="M 499.960183 96.522602 
L 504.200777 96.522602 
" style="fill:none;stroke:#424242;"/>
   </g>
   <g id="line2d_123">
    <path clip-path="url(#p5cd5b672cf)" d="M 499.960183 80.164045 
L 504.200777 80.164045 
" style="fill:none;stroke:#424242;"/>
   </g>
   <g id="line2d_124">
    <path clip-path="url(#p5cd5b672cf)" d="M 340.937897 146.615276 
L 340.937897 143.848466 
" style="fill:none;stroke:#424242;"/>
   </g>
   <g id="line2d_125">
    <path clip-path="url(#p5cd5b672cf)" d="M 338.8176 146.615276 
L 343.058194 146.615276 
" style="fill:none;stroke:#424242;"/>
   </g>
   <g id="line2d_126">
    <path clip-path="url(#p5cd5b672cf)" d="M 338.8176 143.848466 
L 343.058194 143.848466 
" style="fill:none;stroke:#424242;"/>
   </g>
   <g id="line2d_127">
    <path clip-path="url(#p5cd5b672cf)" d="M 383.34384 120.826966 
L 383.34384 113.244266 
" style="fill:none;stroke:#424242;"/>
   </g>
   <g id="line2d_128">
    <path clip-path="url(#p5cd5b672cf)" d="M 381.223543 120.826966 
L 385.464137 120.826966 
" style="fill:none;stroke:#424242;"/>
   </g>
   <g id="line2d_129">
    <path clip-path="url(#p5cd5b672cf)" d="M 381.223543 113.244266 
L 385.464137 113.244266 
" style="fill:none;stroke:#424242;"/>
   </g>
   <g id="line2d_130">
    <path clip-path="url(#p5cd5b672cf)" d="M 425.749783 109.469808 
L 425.749783 99.857484 
" style="fill:none;stroke:#424242;"/>
   </g>
   <g id="line2d_131">
    <path clip-path="url(#p5cd5b672cf)" d="M 423.629486 109.469808 
L 427.87008 109.469808 
" style="fill:none;stroke:#424242;"/>
   </g>
   <g id="line2d_132">
    <path clip-path="url(#p5cd5b672cf)" d="M 423.629486 99.857484 
L 427.87008 99.857484 
" style="fill:none;stroke:#424242;"/>
   </g>
   <g id="line2d_133">
    <path clip-path="url(#p5cd5b672cf)" d="M 468.155726 92.213626 
L 468.155726 80.247834 
" style="fill:none;stroke:#424242;"/>
   </g>
   <g id="line2d_134">
    <path clip-path="url(#p5cd5b672cf)" d="M 466.035429 92.213626 
L 470.276023 92.213626 
" style="fill:none;stroke:#424242;"/>
   </g>
   <g id="line2d_135">
    <path clip-path="url(#p5cd5b672cf)" d="M 466.035429 80.247834 
L 470.276023 80.247834 
" style="fill:none;stroke:#424242;"/>
   </g>
   <g id="line2d_136">
    <path clip-path="url(#p5cd5b672cf)" d="M 510.561669 63.298209 
L 510.561669 56.027661 
" style="fill:none;stroke:#424242;"/>
   </g>
   <g id="line2d_137">
    <path clip-path="url(#p5cd5b672cf)" d="M 508.441371 63.298209 
L 512.681966 63.298209 
" style="fill:none;stroke:#424242;"/>
   </g>
   <g id="line2d_138">
    <path clip-path="url(#p5cd5b672cf)" d="M 508.441371 56.027661 
L 512.681966 56.027661 
" style="fill:none;stroke:#424242;"/>
   </g>
   <g id="patch_52">
    <path d="M 307.013143 214.2 
L 307.013143 30.24 
" style="fill:none;stroke:#cccccc;stroke-linecap:square;stroke-linejoin:miter;stroke-width:1.25;"/>
   </g>
   <g id="patch_53">
    <path d="M 519.042857 214.2 
L 519.042857 30.24 
" style="fill:none;stroke:#cccccc;stroke-linecap:square;stroke-linejoin:miter;stroke-width:1.25;"/>
   </g>
   <g id="patch_54">
    <path d="M 307.013143 214.2 
L 519.042857 214.2 
" style="fill:none;stroke:#cccccc;stroke-linecap:square;stroke-linejoin:miter;stroke-width:1.25;"/>
   </g>
   <g id="patch_55">
    <path d="M 307.013143 30.24 
L 519.042857 30.24 
" style="fill:none;stroke:#cccccc;stroke-linecap:square;stroke-linejoin:miter;stroke-width:1.25;"/>
   </g>
  </g>
  <g id="axes_3">
   <g id="patch_56">
    <path d="M 572.050286 214.2 
L 784.08 214.2 
L 784.08 30.24 
L 572.050286 30.24 
z
" style="fill:#ffffff;"/>
   </g>
   <g id="matplotlib.axis_5">
    <g id="xtick_11">
     <g id="text_37">
      <!-- 1 -->
      <g style="fill:#262626;" transform="translate(589.753882 232.058281)scale(0.11 -0.11)">
       <use xlink:href="#DejaVuSans-49"/>
      </g>
     </g>
    </g>
    <g id="xtick_12">
     <g id="text_38">
      <!-- 2 -->
      <g style="fill:#262626;" transform="translate(632.159825 232.058281)scale(0.11 -0.11)">
       <use xlink:href="#DejaVuSans-50"/>
      </g>
     </g>
    </g>
    <g id="xtick_13">
     <g id="text_39">
      <!-- 3 -->
      <g style="fill:#262626;" transform="translate(674.565768 232.058281)scale(0.11 -0.11)">
       <use xlink:href="#DejaVuSans-51"/>
      </g>
     </g>
    </g>
    <g id="xtick_14">
     <g id="text_40">
      <!-- 4 -->
      <g style="fill:#262626;" transform="translate(716.971711 232.058281)scale(0.11 -0.11)">
       <use xlink:href="#DejaVuSans-52"/>
      </g>
     </g>
    </g>
    <g id="xtick_15">
     <g id="text_41">
      <!-- 5 -->
      <g style="fill:#262626;" transform="translate(759.377654 232.058281)scale(0.11 -0.11)">
       <use xlink:href="#DejaVuSans-53"/>
      </g>
     </g>
    </g>
    <g id="text_42">
     <!-- CNN Layer -->
     <g style="fill:#262626;" transform="translate(646.261393 247.464063)scale(0.12 -0.12)">
      <use xlink:href="#DejaVuSans-67"/>
      <use x="69.824219" xlink:href="#DejaVuSans-78"/>
      <use x="144.628906" xlink:href="#DejaVuSans-78"/>
      <use x="219.433594" xlink:href="#DejaVuSans-32"/>
      <use x="251.220703" xlink:href="#DejaVuSans-76"/>
      <use x="306.933594" xlink:href="#DejaVuSans-97"/>
      <use x="368.212891" xlink:href="#DejaVuSans-121"/>
      <use x="427.392578" xlink:href="#DejaVuSans-101"/>
      <use x="488.916016" xlink:href="#DejaVuSans-114"/>
     </g>
    </g>
   </g>
   <g id="matplotlib.axis_6">
    <g id="ytick_19">
     <g id="line2d_139">
      <path clip-path="url(#p1ca51f06cc)" d="M 572.050286 214.2 
L 784.08 214.2 
" style="fill:none;stroke:#cccccc;"/>
     </g>
     <g id="text_43">
      <!-- 0 -->
      <g style="fill:#262626;" transform="translate(555.551536 218.379141)scale(0.11 -0.11)">
       <use xlink:href="#DejaVuSans-48"/>
      </g>
     </g>
    </g>
    <g id="ytick_20">
     <g id="line2d_140">
      <path clip-path="url(#p1ca51f06cc)" d="M 572.050286 193.055172 
L 784.08 193.055172 
" style="fill:none;stroke:#cccccc;"/>
     </g>
     <g id="text_44">
      <!-- 10 -->
      <g style="fill:#262626;" transform="translate(548.552786 197.234313)scale(0.11 -0.11)">
       <use xlink:href="#DejaVuSans-49"/>
       <use x="63.623047" xlink:href="#DejaVuSans-48"/>
      </g>
     </g>
    </g>
    <g id="ytick_21">
     <g id="line2d_141">
      <path clip-path="url(#p1ca51f06cc)" d="M 572.050286 171.910345 
L 784.08 171.910345 
" style="fill:none;stroke:#cccccc;"/>
     </g>
     <g id="text_45">
      <!-- 20 -->
      <g style="fill:#262626;" transform="translate(548.552786 176.089485)scale(0.11 -0.11)">
       <use xlink:href="#DejaVuSans-50"/>
       <use x="63.623047" xlink:href="#DejaVuSans-48"/>
      </g>
     </g>
    </g>
    <g id="ytick_22">
     <g id="line2d_142">
      <path clip-path="url(#p1ca51f06cc)" d="M 572.050286 150.765517 
L 784.08 150.765517 
" style="fill:none;stroke:#cccccc;"/>
     </g>
     <g id="text_46">
      <!-- 30 -->
      <g style="fill:#262626;" transform="translate(548.552786 154.944658)scale(0.11 -0.11)">
       <use xlink:href="#DejaVuSans-51"/>
       <use x="63.623047" xlink:href="#DejaVuSans-48"/>
      </g>
     </g>
    </g>
    <g id="ytick_23">
     <g id="line2d_143">
      <path clip-path="url(#p1ca51f06cc)" d="M 572.050286 129.62069 
L 784.08 129.62069 
" style="fill:none;stroke:#cccccc;"/>
     </g>
     <g id="text_47">
      <!-- 40 -->
      <g style="fill:#262626;" transform="translate(548.552786 133.79983)scale(0.11 -0.11)">
       <use xlink:href="#DejaVuSans-52"/>
       <use x="63.623047" xlink:href="#DejaVuSans-48"/>
      </g>
     </g>
    </g>
    <g id="ytick_24">
     <g id="line2d_144">
      <path clip-path="url(#p1ca51f06cc)" d="M 572.050286 108.475862 
L 784.08 108.475862 
" style="fill:none;stroke:#cccccc;"/>
     </g>
     <g id="text_48">
      <!-- 50 -->
      <g style="fill:#262626;" transform="translate(548.552786 112.655003)scale(0.11 -0.11)">
       <use xlink:href="#DejaVuSans-53"/>
       <use x="63.623047" xlink:href="#DejaVuSans-48"/>
      </g>
     </g>
    </g>
    <g id="ytick_25">
     <g id="line2d_145">
      <path clip-path="url(#p1ca51f06cc)" d="M 572.050286 87.331034 
L 784.08 87.331034 
" style="fill:none;stroke:#cccccc;"/>
     </g>
     <g id="text_49">
      <!-- 60 -->
      <g style="fill:#262626;" transform="translate(548.552786 91.510175)scale(0.11 -0.11)">
       <use xlink:href="#DejaVuSans-54"/>
       <use x="63.623047" xlink:href="#DejaVuSans-48"/>
      </g>
     </g>
    </g>
    <g id="ytick_26">
     <g id="line2d_146">
      <path clip-path="url(#p1ca51f06cc)" d="M 572.050286 66.186207 
L 784.08 66.186207 
" style="fill:none;stroke:#cccccc;"/>
     </g>
     <g id="text_50">
      <!-- 70 -->
      <g style="fill:#262626;" transform="translate(548.552786 70.365348)scale(0.11 -0.11)">
       <use xlink:href="#DejaVuSans-55"/>
       <use x="63.623047" xlink:href="#DejaVuSans-48"/>
      </g>
     </g>
    </g>
    <g id="ytick_27">
     <g id="line2d_147">
      <path clip-path="url(#p1ca51f06cc)" d="M 572.050286 45.041379 
L 784.08 45.041379 
" style="fill:none;stroke:#cccccc;"/>
     </g>
     <g id="text_51">
      <!-- 80 -->
      <g style="fill:#262626;" transform="translate(548.552786 49.22052)scale(0.11 -0.11)">
       <use xlink:href="#DejaVuSans-56"/>
       <use x="63.623047" xlink:href="#DejaVuSans-48"/>
      </g>
     </g>
    </g>
    <g id="text_52">
     <!-- F1-score [%] -->
     <g style="fill:#262626;" transform="translate(542.057161 160.195312)rotate(-90)scale(0.12 -0.12)">
      <use xlink:href="#DejaVuSans-70"/>
      <use x="57.519531" xlink:href="#DejaVuSans-49"/>
      <use x="121.142578" xlink:href="#DejaVuSans-45"/>
      <use x="157.226562" xlink:href="#DejaVuSans-115"/>
      <use x="209.326172" xlink:href="#DejaVuSans-99"/>
      <use x="264.306641" xlink:href="#DejaVuSans-111"/>
      <use x="325.488281" xlink:href="#DejaVuSans-114"/>
      <use x="366.570312" xlink:href="#DejaVuSans-101"/>
      <use x="428.09375" xlink:href="#DejaVuSans-32"/>
      <use x="459.880859" xlink:href="#DejaVuSans-91"/>
      <use x="498.894531" xlink:href="#DejaVuSans-37"/>
      <use x="593.914062" xlink:href="#DejaVuSans-93"/>
     </g>
    </g>
   </g>
   <g id="patch_57">
    <path clip-path="url(#p1ca51f06cc)" d="M 576.29088 214.2 
L 584.772069 214.2 
L 584.772069 133.151278 
L 576.29088 133.151278 
z
" style="fill:url(#h07f16aa7d8);stroke:#666666;stroke-linejoin:miter;"/>
   </g>
   <g id="patch_58">
    <path clip-path="url(#p1ca51f06cc)" d="M 618.696823 214.2 
L 627.178011 214.2 
L 627.178011 117.445117 
L 618.696823 117.445117 
z
" style="fill:url(#h07f16aa7d8);stroke:#666666;stroke-linejoin:miter;"/>
   </g>
   <g id="patch_59">
    <path clip-path="url(#p1ca51f06cc)" d="M 661.102766 214.2 
L 669.583954 214.2 
L 669.583954 116.034032 
L 661.102766 116.034032 
z
" style="fill:url(#h07f16aa7d8);stroke:#666666;stroke-linejoin:miter;"/>
   </g>
   <g id="patch_60">
    <path clip-path="url(#p1ca51f06cc)" d="M 703.508709 214.2 
L 711.989897 214.2 
L 711.989897 117.992024 
L 703.508709 117.992024 
z
" style="fill:url(#h07f16aa7d8);stroke:#666666;stroke-linejoin:miter;"/>
   </g>
   <g id="patch_61">
    <path clip-path="url(#p1ca51f06cc)" d="M 745.914651 214.2 
L 754.39584 214.2 
L 754.39584 124.247901 
L 745.914651 124.247901 
z
" style="fill:url(#h07f16aa7d8);stroke:#666666;stroke-linejoin:miter;"/>
   </g>
   <g id="patch_62">
    <path clip-path="url(#p1ca51f06cc)" d="M 584.772069 214.2 
L 593.253257 214.2 
L 593.253257 146.282116 
L 584.772069 146.282116 
z
" style="fill:url(#h0ed1c1ecd7);stroke:#666666;stroke-linejoin:miter;"/>
   </g>
   <g id="patch_63">
    <path clip-path="url(#p1ca51f06cc)" d="M 627.178011 214.2 
L 635.6592 214.2 
L 635.6592 113.607409 
L 627.178011 113.607409 
z
" style="fill:url(#h0ed1c1ecd7);stroke:#666666;stroke-linejoin:miter;"/>
   </g>
   <g id="patch_64">
    <path clip-path="url(#p1ca51f06cc)" d="M 669.583954 214.2 
L 678.065143 214.2 
L 678.065143 103.693564 
L 669.583954 103.693564 
z
" style="fill:url(#h0ed1c1ecd7);stroke:#666666;stroke-linejoin:miter;"/>
   </g>
   <g id="patch_65">
    <path clip-path="url(#p1ca51f06cc)" d="M 711.989897 214.2 
L 720.471086 214.2 
L 720.471086 97.056598 
L 711.989897 97.056598 
z
" style="fill:url(#h0ed1c1ecd7);stroke:#666666;stroke-linejoin:miter;"/>
   </g>
   <g id="patch_66">
    <path clip-path="url(#p1ca51f06cc)" d="M 754.39584 214.2 
L 762.877029 214.2 
L 762.877029 98.694055 
L 754.39584 98.694055 
z
" style="fill:url(#h0ed1c1ecd7);stroke:#666666;stroke-linejoin:miter;"/>
   </g>
   <g id="patch_67">
    <path clip-path="url(#p1ca51f06cc)" d="M 593.253257 214.2 
L 601.734446 214.2 
L 601.734446 150.32416 
L 593.253257 150.32416 
z
" style="fill:url(#h3b11bd3868);stroke:#666666;stroke-linejoin:miter;"/>
   </g>
   <g id="patch_68">
    <path clip-path="url(#p1ca51f06cc)" d="M 635.6592 214.2 
L 644.140389 214.2 
L 644.140389 111.719959 
L 635.6592 111.719959 
z
" style="fill:url(#h3b11bd3868);stroke:#666666;stroke-linejoin:miter;"/>
   </g>
   <g id="patch_69">
    <path clip-path="url(#p1ca51f06cc)" d="M 678.065143 214.2 
L 686.546331 214.2 
L 686.546331 97.451388 
L 678.065143 97.451388 
z
" style="fill:url(#h3b11bd3868);stroke:#666666;stroke-linejoin:miter;"/>
   </g>
   <g id="patch_70">
    <path clip-path="url(#p1ca51f06cc)" d="M 720.471086 214.2 
L 728.952274 214.2 
L 728.952274 85.087118 
L 720.471086 85.087118 
z
" style="fill:url(#h3b11bd3868);stroke:#666666;stroke-linejoin:miter;"/>
   </g>
   <g id="patch_71">
    <path clip-path="url(#p1ca51f06cc)" d="M 762.877029 214.2 
L 771.358217 214.2 
L 771.358217 82.170639 
L 762.877029 82.170639 
z
" style="fill:url(#h3b11bd3868);stroke:#666666;stroke-linejoin:miter;"/>
   </g>
   <g id="patch_72">
    <path clip-path="url(#p1ca51f06cc)" d="M 601.734446 214.2 
L 610.215634 214.2 
L 610.215634 133.796769 
L 601.734446 133.796769 
z
" style="fill:url(#h24cf3ac0e7);stroke:#666666;stroke-linejoin:miter;"/>
   </g>
   <g id="patch_73">
    <path clip-path="url(#p1ca51f06cc)" d="M 644.140389 214.2 
L 652.621577 214.2 
L 652.621577 110.079435 
L 644.140389 110.079435 
z
" style="fill:url(#h24cf3ac0e7);stroke:#666666;stroke-linejoin:miter;"/>
   </g>
   <g id="patch_74">
    <path clip-path="url(#p1ca51f06cc)" d="M 686.546331 214.2 
L 695.02752 214.2 
L 695.02752 99.24206 
L 686.546331 99.24206 
z
" style="fill:url(#h24cf3ac0e7);stroke:#666666;stroke-linejoin:miter;"/>
   </g>
   <g id="patch_75">
    <path clip-path="url(#p1ca51f06cc)" d="M 728.952274 214.2 
L 737.433463 214.2 
L 737.433463 78.184278 
L 728.952274 78.184278 
z
" style="fill:url(#h24cf3ac0e7);stroke:#666666;stroke-linejoin:miter;"/>
   </g>
   <g id="patch_76">
    <path clip-path="url(#p1ca51f06cc)" d="M 771.358217 214.2 
L 779.839406 214.2 
L 779.839406 51.073943 
L 771.358217 51.073943 
z
" style="fill:url(#h24cf3ac0e7);stroke:#666666;stroke-linejoin:miter;"/>
   </g>
   <g id="line2d_148">
    <path clip-path="url(#p1ca51f06cc)" d="M 580.531474 133.724322 
L 580.531474 132.578234 
" style="fill:none;stroke:#424242;"/>
   </g>
   <g id="line2d_149">
    <path clip-path="url(#p1ca51f06cc)" d="M 578.411177 133.724322 
L 582.651771 133.724322 
" style="fill:none;stroke:#424242;"/>
   </g>
   <g id="line2d_150">
    <path clip-path="url(#p1ca51f06cc)" d="M 578.411177 132.578234 
L 582.651771 132.578234 
" style="fill:none;stroke:#424242;"/>
   </g>
   <g id="line2d_151">
    <path clip-path="url(#p1ca51f06cc)" d="M 622.937417 124.463826 
L 622.937417 110.426408 
" style="fill:none;stroke:#424242;"/>
   </g>
   <g id="line2d_152">
    <path clip-path="url(#p1ca51f06cc)" d="M 620.81712 124.463826 
L 625.057714 124.463826 
" style="fill:none;stroke:#424242;"/>
   </g>
   <g id="line2d_153">
    <path clip-path="url(#p1ca51f06cc)" d="M 620.81712 110.426408 
L 625.057714 110.426408 
" style="fill:none;stroke:#424242;"/>
   </g>
   <g id="line2d_154">
    <path clip-path="url(#p1ca51f06cc)" d="M 665.34336 118.023976 
L 665.34336 114.044088 
" style="fill:none;stroke:#424242;"/>
   </g>
   <g id="line2d_155">
    <path clip-path="url(#p1ca51f06cc)" d="M 663.223063 118.023976 
L 667.463657 118.023976 
" style="fill:none;stroke:#424242;"/>
   </g>
   <g id="line2d_156">
    <path clip-path="url(#p1ca51f06cc)" d="M 663.223063 114.044088 
L 667.463657 114.044088 
" style="fill:none;stroke:#424242;"/>
   </g>
   <g id="line2d_157">
    <path clip-path="url(#p1ca51f06cc)" d="M 707.749303 121.852799 
L 707.749303 114.131248 
" style="fill:none;stroke:#424242;"/>
   </g>
   <g id="line2d_158">
    <path clip-path="url(#p1ca51f06cc)" d="M 705.629006 121.852799 
L 709.8696 121.852799 
" style="fill:none;stroke:#424242;"/>
   </g>
   <g id="line2d_159">
    <path clip-path="url(#p1ca51f06cc)" d="M 705.629006 114.131248 
L 709.8696 114.131248 
" style="fill:none;stroke:#424242;"/>
   </g>
   <g id="line2d_160">
    <path clip-path="url(#p1ca51f06cc)" d="M 750.155246 129.488946 
L 750.155246 119.006856 
" style="fill:none;stroke:#424242;"/>
   </g>
   <g id="line2d_161">
    <path clip-path="url(#p1ca51f06cc)" d="M 748.034949 129.488946 
L 752.275543 129.488946 
" style="fill:none;stroke:#424242;"/>
   </g>
   <g id="line2d_162">
    <path clip-path="url(#p1ca51f06cc)" d="M 748.034949 119.006856 
L 752.275543 119.006856 
" style="fill:none;stroke:#424242;"/>
   </g>
   <g id="line2d_163">
    <path clip-path="url(#p1ca51f06cc)" d="M 589.012663 149.549665 
L 589.012663 143.014567 
" style="fill:none;stroke:#424242;"/>
   </g>
   <g id="line2d_164">
    <path clip-path="url(#p1ca51f06cc)" d="M 586.892366 149.549665 
L 591.13296 149.549665 
" style="fill:none;stroke:#424242;"/>
   </g>
   <g id="line2d_165">
    <path clip-path="url(#p1ca51f06cc)" d="M 586.892366 143.014567 
L 591.13296 143.014567 
" style="fill:none;stroke:#424242;"/>
   </g>
   <g id="line2d_166">
    <path clip-path="url(#p1ca51f06cc)" d="M 631.418606 116.789937 
L 631.418606 110.424881 
" style="fill:none;stroke:#424242;"/>
   </g>
   <g id="line2d_167">
    <path clip-path="url(#p1ca51f06cc)" d="M 629.298309 116.789937 
L 633.538903 116.789937 
" style="fill:none;stroke:#424242;"/>
   </g>
   <g id="line2d_168">
    <path clip-path="url(#p1ca51f06cc)" d="M 629.298309 110.424881 
L 633.538903 110.424881 
" style="fill:none;stroke:#424242;"/>
   </g>
   <g id="line2d_169">
    <path clip-path="url(#p1ca51f06cc)" d="M 673.824549 104.672929 
L 673.824549 102.714199 
" style="fill:none;stroke:#424242;"/>
   </g>
   <g id="line2d_170">
    <path clip-path="url(#p1ca51f06cc)" d="M 671.704251 104.672929 
L 675.944846 104.672929 
" style="fill:none;stroke:#424242;"/>
   </g>
   <g id="line2d_171">
    <path clip-path="url(#p1ca51f06cc)" d="M 671.704251 102.714199 
L 675.944846 102.714199 
" style="fill:none;stroke:#424242;"/>
   </g>
   <g id="line2d_172">
    <path clip-path="url(#p1ca51f06cc)" d="M 716.230491 99.623812 
L 716.230491 94.489383 
" style="fill:none;stroke:#424242;"/>
   </g>
   <g id="line2d_173">
    <path clip-path="url(#p1ca51f06cc)" d="M 714.110194 99.623812 
L 718.350789 99.623812 
" style="fill:none;stroke:#424242;"/>
   </g>
   <g id="line2d_174">
    <path clip-path="url(#p1ca51f06cc)" d="M 714.110194 94.489383 
L 718.350789 94.489383 
" style="fill:none;stroke:#424242;"/>
   </g>
   <g id="line2d_175">
    <path clip-path="url(#p1ca51f06cc)" d="M 758.636434 102.060743 
L 758.636434 95.327366 
" style="fill:none;stroke:#424242;"/>
   </g>
   <g id="line2d_176">
    <path clip-path="url(#p1ca51f06cc)" d="M 756.516137 102.060743 
L 760.756731 102.060743 
" style="fill:none;stroke:#424242;"/>
   </g>
   <g id="line2d_177">
    <path clip-path="url(#p1ca51f06cc)" d="M 756.516137 95.327366 
L 760.756731 95.327366 
" style="fill:none;stroke:#424242;"/>
   </g>
   <g id="line2d_178">
    <path clip-path="url(#p1ca51f06cc)" d="M 597.493851 155.817593 
L 597.493851 144.830727 
" style="fill:none;stroke:#424242;"/>
   </g>
   <g id="line2d_179">
    <path clip-path="url(#p1ca51f06cc)" d="M 595.373554 155.817593 
L 599.614149 155.817593 
" style="fill:none;stroke:#424242;"/>
   </g>
   <g id="line2d_180">
    <path clip-path="url(#p1ca51f06cc)" d="M 595.373554 144.830727 
L 599.614149 144.830727 
" style="fill:none;stroke:#424242;"/>
   </g>
   <g id="line2d_181">
    <path clip-path="url(#p1ca51f06cc)" d="M 639.899794 117.048346 
L 639.899794 106.391572 
" style="fill:none;stroke:#424242;"/>
   </g>
   <g id="line2d_182">
    <path clip-path="url(#p1ca51f06cc)" d="M 637.779497 117.048346 
L 642.020091 117.048346 
" style="fill:none;stroke:#424242;"/>
   </g>
   <g id="line2d_183">
    <path clip-path="url(#p1ca51f06cc)" d="M 637.779497 106.391572 
L 642.020091 106.391572 
" style="fill:none;stroke:#424242;"/>
   </g>
   <g id="line2d_184">
    <path clip-path="url(#p1ca51f06cc)" d="M 682.305737 103.716203 
L 682.305737 91.186572 
" style="fill:none;stroke:#424242;"/>
   </g>
   <g id="line2d_185">
    <path clip-path="url(#p1ca51f06cc)" d="M 680.18544 103.716203 
L 684.426034 103.716203 
" style="fill:none;stroke:#424242;"/>
   </g>
   <g id="line2d_186">
    <path clip-path="url(#p1ca51f06cc)" d="M 680.18544 91.186572 
L 684.426034 91.186572 
" style="fill:none;stroke:#424242;"/>
   </g>
   <g id="line2d_187">
    <path clip-path="url(#p1ca51f06cc)" d="M 724.71168 92.905877 
L 724.71168 77.26836 
" style="fill:none;stroke:#424242;"/>
   </g>
   <g id="line2d_188">
    <path clip-path="url(#p1ca51f06cc)" d="M 722.591383 92.905877 
L 726.831977 92.905877 
" style="fill:none;stroke:#424242;"/>
   </g>
   <g id="line2d_189">
    <path clip-path="url(#p1ca51f06cc)" d="M 722.591383 77.26836 
L 726.831977 77.26836 
" style="fill:none;stroke:#424242;"/>
   </g>
   <g id="line2d_190">
    <path clip-path="url(#p1ca51f06cc)" d="M 767.117623 87.293933 
L 767.117623 77.047345 
" style="fill:none;stroke:#424242;"/>
   </g>
   <g id="line2d_191">
    <path clip-path="url(#p1ca51f06cc)" d="M 764.997326 87.293933 
L 769.23792 87.293933 
" style="fill:none;stroke:#424242;"/>
   </g>
   <g id="line2d_192">
    <path clip-path="url(#p1ca51f06cc)" d="M 764.997326 77.047345 
L 769.23792 77.047345 
" style="fill:none;stroke:#424242;"/>
   </g>
   <g id="line2d_193">
    <path clip-path="url(#p1ca51f06cc)" d="M 605.97504 135.336826 
L 605.97504 132.256713 
" style="fill:none;stroke:#424242;"/>
   </g>
   <g id="line2d_194">
    <path clip-path="url(#p1ca51f06cc)" d="M 603.854743 135.336826 
L 608.095337 135.336826 
" style="fill:none;stroke:#424242;"/>
   </g>
   <g id="line2d_195">
    <path clip-path="url(#p1ca51f06cc)" d="M 603.854743 132.256713 
L 608.095337 132.256713 
" style="fill:none;stroke:#424242;"/>
   </g>
   <g id="line2d_196">
    <path clip-path="url(#p1ca51f06cc)" d="M 648.380983 113.437973 
L 648.380983 106.720898 
" style="fill:none;stroke:#424242;"/>
   </g>
   <g id="line2d_197">
    <path clip-path="url(#p1ca51f06cc)" d="M 646.260686 113.437973 
L 650.50128 113.437973 
" style="fill:none;stroke:#424242;"/>
   </g>
   <g id="line2d_198">
    <path clip-path="url(#p1ca51f06cc)" d="M 646.260686 106.720898 
L 650.50128 106.720898 
" style="fill:none;stroke:#424242;"/>
   </g>
   <g id="line2d_199">
    <path clip-path="url(#p1ca51f06cc)" d="M 690.786926 105.197087 
L 690.786926 93.287033 
" style="fill:none;stroke:#424242;"/>
   </g>
   <g id="line2d_200">
    <path clip-path="url(#p1ca51f06cc)" d="M 688.666629 105.197087 
L 692.907223 105.197087 
" style="fill:none;stroke:#424242;"/>
   </g>
   <g id="line2d_201">
    <path clip-path="url(#p1ca51f06cc)" d="M 688.666629 93.287033 
L 692.907223 93.287033 
" style="fill:none;stroke:#424242;"/>
   </g>
   <g id="line2d_202">
    <path clip-path="url(#p1ca51f06cc)" d="M 733.192869 85.940099 
L 733.192869 70.428456 
" style="fill:none;stroke:#424242;"/>
   </g>
   <g id="line2d_203">
    <path clip-path="url(#p1ca51f06cc)" d="M 731.072571 85.940099 
L 735.313166 85.940099 
" style="fill:none;stroke:#424242;"/>
   </g>
   <g id="line2d_204">
    <path clip-path="url(#p1ca51f06cc)" d="M 731.072571 70.428456 
L 735.313166 70.428456 
" style="fill:none;stroke:#424242;"/>
   </g>
   <g id="line2d_205">
    <path clip-path="url(#p1ca51f06cc)" d="M 775.598811 51.517247 
L 775.598811 50.630638 
" style="fill:none;stroke:#424242;"/>
   </g>
   <g id="line2d_206">
    <path clip-path="url(#p1ca51f06cc)" d="M 773.478514 51.517247 
L 777.719109 51.517247 
" style="fill:none;stroke:#424242;"/>
   </g>
   <g id="line2d_207">
    <path clip-path="url(#p1ca51f06cc)" d="M 773.478514 50.630638 
L 777.719109 50.630638 
" style="fill:none;stroke:#424242;"/>
   </g>
   <g id="patch_77">
    <path d="M 572.050286 214.2 
L 572.050286 30.24 
" style="fill:none;stroke:#cccccc;stroke-linecap:square;stroke-linejoin:miter;stroke-width:1.25;"/>
   </g>
   <g id="patch_78">
    <path d="M 784.08 214.2 
L 784.08 30.24 
" style="fill:none;stroke:#cccccc;stroke-linecap:square;stroke-linejoin:miter;stroke-width:1.25;"/>
   </g>
   <g id="patch_79">
    <path d="M 572.050286 214.2 
L 784.08 214.2 
" style="fill:none;stroke:#cccccc;stroke-linecap:square;stroke-linejoin:miter;stroke-width:1.25;"/>
   </g>
   <g id="patch_80">
    <path d="M 572.050286 30.24 
L 784.08 30.24 
" style="fill:none;stroke:#cccccc;stroke-linecap:square;stroke-linejoin:miter;stroke-width:1.25;"/>
   </g>
  </g>
 </g>
 <defs>
  <clipPath id="p55a2a7829e">
   <rect height="183.96" width="212.029714" x="41.976" y="30.24"/>
  </clipPath>
  <clipPath id="p5cd5b672cf">
   <rect height="183.96" width="212.029714" x="307.013143" y="30.24"/>
  </clipPath>
  <clipPath id="p1ca51f06cc">
   <rect height="183.96" width="212.029714" x="572.050286" y="30.24"/>
  </clipPath>
 </defs>
 <defs>
  <pattern height="72" id="h07f16aa7d8" patternUnits="userSpaceOnUse" width="72" x="0" y="0">
   <rect fill="#597dbf" height="73" width="73" x="0" y="0"/>
   <path d="M -36 36 
L 36 -36 
M -24 48 
L 48 -24 
M -12 60 
L 60 -12 
M 0 72 
L 72 0 
M 12 84 
L 84 12 
M 24 96 
L 96 24 
M 36 108 
L 108 36 
M -36 36 
L 36 108 
M -24 24 
L 48 96 
M -12 12 
L 60 84 
M 0 0 
L 72 72 
M 12 -12 
L 84 60 
M 24 -24 
L 96 48 
M 36 -36 
L 108 36 
" style="fill:#666666;stroke:#666666;stroke-linecap:butt;stroke-linejoin:miter;stroke-width:1.0;"/>
  </pattern>
  <pattern height="72" id="h0ed1c1ecd7" patternUnits="userSpaceOnUse" width="72" x="0" y="0">
   <rect fill="#d98b5f" height="73" width="73" x="0" y="0"/>
   <path d="M -36 36 
L 36 -36 
M -24 48 
L 48 -24 
M -12 60 
L 60 -12 
M 0 72 
L 72 0 
M 12 84 
L 84 12 
M 24 96 
L 96 24 
M 36 108 
L 108 36 
" style="fill:#666666;stroke:#666666;stroke-linecap:butt;stroke-linejoin:miter;stroke-width:1.0;"/>
  </pattern>
  <pattern height="72" id="h3b11bd3868" patternUnits="userSpaceOnUse" width="72" x="0" y="0">
   <rect fill="#75bf71" height="73" width="73" x="0" y="0"/>
   <path d="M -36 36 
L 36 -36 
M -30 42 
L 42 -30 
M -24 48 
L 48 -24 
M -18 54 
L 54 -18 
M -12 60 
L 60 -12 
M -6 66 
L 66 -6 
M 0 72 
L 72 0 
M 6 78 
L 78 6 
M 12 84 
L 84 12 
M 18 90 
L 90 18 
M 24 96 
L 96 24 
M 30 102 
L 102 30 
M 36 108 
L 108 36 
" style="fill:#666666;stroke:#666666;stroke-linecap:butt;stroke-linejoin:miter;stroke-width:1.0;"/>
  </pattern>
  <pattern height="72" id="h24cf3ac0e7" patternUnits="userSpaceOnUse" width="72" x="0" y="0">
   <rect fill="#c76e6e" height="73" width="73" x="0" y="0"/>
   <path d="M -36 36 
L 36 108 
M -24 24 
L 48 96 
M -12 12 
L 60 84 
M 0 0 
L 72 72 
M 12 -12 
L 84 60 
M 24 -24 
L 96 48 
M 36 -36 
L 108 36 
" style="fill:#666666;stroke:#666666;stroke-linecap:butt;stroke-linejoin:miter;stroke-width:1.0;"/>
  </pattern>
 </defs>
</svg>
